<mxfile host="app.diagrams.net" modified="2021-05-09T19:54:28.134Z" agent="5.0 (Macintosh; Intel Mac OS X 10_15_7) AppleWebKit/605.1.15 (KHTML, like Gecko) Version/14.1 Safari/605.1.15" etag="WjOV0xA8vlFSqwp0UJV0" version="14.6.11" type="github">
  <diagram id="kgpKYQtTHZ0yAKxKKP6v" name="Page-1">
    <mxGraphModel dx="2145" dy="1963" grid="1" gridSize="10" guides="1" tooltips="1" connect="1" arrows="1" fold="1" page="1" pageScale="1" pageWidth="1390" pageHeight="980" math="0" shadow="0">
      <root>
        <mxCell id="0" />
        <mxCell id="1" parent="0" />
        <mxCell id="HkbM3BWrgPiWBRJZKnyU-26" style="edgeStyle=orthogonalEdgeStyle;rounded=0;orthogonalLoop=1;jettySize=auto;html=1;exitX=0;exitY=0.5;exitDx=0;exitDy=0;entryX=1.005;entryY=0.675;entryDx=0;entryDy=0;entryPerimeter=0;fontSize=12;fontColor=#000000;" edge="1" parent="1" source="5EttTMxwSdxb7IPhr4SC-211" target="HkbM3BWrgPiWBRJZKnyU-22">
          <mxGeometry relative="1" as="geometry">
            <Array as="points">
              <mxPoint x="-253" y="-45" />
              <mxPoint x="-253" y="1" />
            </Array>
          </mxGeometry>
        </mxCell>
        <mxCell id="5EttTMxwSdxb7IPhr4SC-211" value="" style="rounded=1;whiteSpace=wrap;html=1;labelBackgroundColor=none;fontSize=10;fontColor=#000000;" parent="1" vertex="1">
          <mxGeometry x="-95" y="-90" width="80" height="90" as="geometry" />
        </mxCell>
        <mxCell id="5EttTMxwSdxb7IPhr4SC-204" value="" style="rounded=1;whiteSpace=wrap;html=1;labelBackgroundColor=none;fontSize=10;fontColor=#000000;" parent="1" vertex="1">
          <mxGeometry x="-10.000000000000002" y="-140" width="62.7" height="80" as="geometry" />
        </mxCell>
        <mxCell id="5EttTMxwSdxb7IPhr4SC-153" value="" style="rounded=1;whiteSpace=wrap;html=1;fontSize=10;fontColor=#333333;fillColor=#f5f5f5;strokeColor=#666666;" parent="1" vertex="1">
          <mxGeometry x="715" y="190" width="120" height="60" as="geometry" />
        </mxCell>
        <mxCell id="5EttTMxwSdxb7IPhr4SC-199" style="edgeStyle=elbowEdgeStyle;rounded=0;orthogonalLoop=1;jettySize=auto;html=1;exitX=0.5;exitY=0;exitDx=0;exitDy=0;entryX=1;entryY=0.5;entryDx=0;entryDy=0;fontSize=10;fontColor=#000000;endArrow=classic;endFill=1;strokeWidth=1;fillColor=#d5e8d4;strokeColor=#82b366;" parent="1" source="5EttTMxwSdxb7IPhr4SC-141" target="5EttTMxwSdxb7IPhr4SC-196" edge="1">
          <mxGeometry relative="1" as="geometry">
            <Array as="points">
              <mxPoint x="740" y="-100" />
            </Array>
          </mxGeometry>
        </mxCell>
        <mxCell id="5EttTMxwSdxb7IPhr4SC-141" value="" style="rounded=1;whiteSpace=wrap;html=1;fontSize=10;fillColor=#d5e8d4;strokeColor=#82b366;" parent="1" vertex="1">
          <mxGeometry x="570" y="-60" width="200" height="210" as="geometry" />
        </mxCell>
        <mxCell id="5EttTMxwSdxb7IPhr4SC-143" style="edgeStyle=elbowEdgeStyle;rounded=0;orthogonalLoop=1;jettySize=auto;html=1;exitX=0.5;exitY=0;exitDx=0;exitDy=0;fontSize=10;fontColor=#4D4D4D;endArrow=classic;endFill=1;strokeWidth=1;" parent="1" source="5EttTMxwSdxb7IPhr4SC-121" target="5EttTMxwSdxb7IPhr4SC-110" edge="1">
          <mxGeometry relative="1" as="geometry">
            <Array as="points">
              <mxPoint x="678" y="70" />
            </Array>
          </mxGeometry>
        </mxCell>
        <mxCell id="5EttTMxwSdxb7IPhr4SC-121" value="" style="rounded=1;whiteSpace=wrap;html=1;fontSize=10;" parent="1" vertex="1">
          <mxGeometry x="587" y="90.25" width="155" height="53" as="geometry" />
        </mxCell>
        <mxCell id="5EttTMxwSdxb7IPhr4SC-114" value="" style="strokeWidth=2;html=1;shape=mxgraph.flowchart.multi-document;whiteSpace=wrap;fontSize=10;fillColor=#f5f5f5;strokeColor=#666666;fontColor=#333333;" parent="1" vertex="1">
          <mxGeometry x="585.5" y="-50" width="70" height="30" as="geometry" />
        </mxCell>
        <mxCell id="5EttTMxwSdxb7IPhr4SC-41" style="edgeStyle=orthogonalEdgeStyle;rounded=0;orthogonalLoop=1;jettySize=auto;html=1;exitX=0.5;exitY=1;exitDx=0;exitDy=0;" parent="1" source="5EttTMxwSdxb7IPhr4SC-37" target="5EttTMxwSdxb7IPhr4SC-40" edge="1">
          <mxGeometry relative="1" as="geometry">
            <Array as="points">
              <mxPoint x="-210" y="710" />
              <mxPoint x="-210" y="780" />
              <mxPoint x="-355" y="780" />
            </Array>
          </mxGeometry>
        </mxCell>
        <mxCell id="5EttTMxwSdxb7IPhr4SC-42" style="edgeStyle=orthogonalEdgeStyle;rounded=0;orthogonalLoop=1;jettySize=auto;html=1;exitX=0.5;exitY=1;exitDx=0;exitDy=0;entryX=0.5;entryY=0;entryDx=0;entryDy=0;" parent="1" source="5EttTMxwSdxb7IPhr4SC-37" target="5EttTMxwSdxb7IPhr4SC-44" edge="1">
          <mxGeometry relative="1" as="geometry">
            <mxPoint x="250" y="840" as="targetPoint" />
            <Array as="points">
              <mxPoint x="-210" y="710" />
              <mxPoint x="-210" y="780" />
              <mxPoint x="-95" y="780" />
            </Array>
          </mxGeometry>
        </mxCell>
        <mxCell id="5EttTMxwSdxb7IPhr4SC-37" value="" style="rounded=0;whiteSpace=wrap;html=1;" parent="1" vertex="1">
          <mxGeometry x="-290" y="320" width="320" height="390" as="geometry" />
        </mxCell>
        <mxCell id="5EttTMxwSdxb7IPhr4SC-4" value="&lt;p style=&quot;line-height: 120%&quot;&gt;&lt;font style=&quot;font-size: 10px&quot;&gt;Google Pub/Sub&lt;/font&gt;&lt;/p&gt;" style="rounded=1;whiteSpace=wrap;html=1;fillColor=#f8cecc;strokeColor=#b85450;" parent="1" vertex="1">
          <mxGeometry x="430" y="130" width="60" height="30" as="geometry" />
        </mxCell>
        <mxCell id="5EttTMxwSdxb7IPhr4SC-102" style="edgeStyle=orthogonalEdgeStyle;rounded=0;orthogonalLoop=1;jettySize=auto;html=1;exitX=0;exitY=0.5;exitDx=0;exitDy=0;fontSize=24;" parent="1" source="5EttTMxwSdxb7IPhr4SC-5" edge="1">
          <mxGeometry relative="1" as="geometry">
            <mxPoint x="-160" y="320" as="targetPoint" />
            <Array as="points">
              <mxPoint x="100" y="100" />
              <mxPoint x="40" y="100" />
              <mxPoint x="40" y="300" />
              <mxPoint x="-160" y="300" />
            </Array>
          </mxGeometry>
        </mxCell>
        <mxCell id="5EttTMxwSdxb7IPhr4SC-103" style="edgeStyle=orthogonalEdgeStyle;rounded=0;orthogonalLoop=1;jettySize=auto;html=1;exitX=0;exitY=0.5;exitDx=0;exitDy=0;fontSize=24;entryX=0.5;entryY=0;entryDx=0;entryDy=0;fillColor=#b1ddf0;strokeColor=#10739e;fontColor=#0099FF;" parent="1" source="5EttTMxwSdxb7IPhr4SC-5" target="5EttTMxwSdxb7IPhr4SC-47" edge="1">
          <mxGeometry relative="1" as="geometry">
            <Array as="points">
              <mxPoint x="100" y="110" />
              <mxPoint x="50" y="110" />
              <mxPoint x="50" y="300" />
              <mxPoint x="245" y="300" />
            </Array>
          </mxGeometry>
        </mxCell>
        <mxCell id="5EttTMxwSdxb7IPhr4SC-104" style="edgeStyle=orthogonalEdgeStyle;rounded=0;orthogonalLoop=1;jettySize=auto;html=1;exitX=0;exitY=0.5;exitDx=0;exitDy=0;entryX=0.486;entryY=0.007;entryDx=0;entryDy=0;fontSize=24;fillColor=#d5e8d4;strokeColor=#82b366;entryPerimeter=0;" parent="1" source="5EttTMxwSdxb7IPhr4SC-5" target="5EttTMxwSdxb7IPhr4SC-100" edge="1">
          <mxGeometry relative="1" as="geometry">
            <Array as="points">
              <mxPoint x="100" y="120" />
              <mxPoint x="60" y="120" />
              <mxPoint x="60" y="290" />
              <mxPoint x="616" y="290" />
            </Array>
          </mxGeometry>
        </mxCell>
        <mxCell id="5EttTMxwSdxb7IPhr4SC-105" style="edgeStyle=orthogonalEdgeStyle;rounded=0;orthogonalLoop=1;jettySize=auto;html=1;exitX=0;exitY=0.5;exitDx=0;exitDy=0;fontSize=24;fillColor=#fad9d5;strokeColor=#ae4132;" parent="1" source="5EttTMxwSdxb7IPhr4SC-5" target="5EttTMxwSdxb7IPhr4SC-84" edge="1">
          <mxGeometry relative="1" as="geometry">
            <Array as="points">
              <mxPoint x="100" y="130" />
              <mxPoint x="70" y="130" />
              <mxPoint x="70" y="280" />
              <mxPoint x="980" y="280" />
            </Array>
          </mxGeometry>
        </mxCell>
        <mxCell id="HkbM3BWrgPiWBRJZKnyU-12" style="edgeStyle=orthogonalEdgeStyle;rounded=0;orthogonalLoop=1;jettySize=auto;html=1;exitX=0;exitY=0.25;exitDx=0;exitDy=0;entryX=0.5;entryY=0;entryDx=0;entryDy=0;fontSize=12;fontColor=#32639C;fillColor=#fad7ac;strokeColor=#b46504;" edge="1" parent="1" source="5EttTMxwSdxb7IPhr4SC-5" target="HkbM3BWrgPiWBRJZKnyU-11">
          <mxGeometry relative="1" as="geometry">
            <Array as="points">
              <mxPoint x="100" y="90" />
              <mxPoint x="30" y="90" />
              <mxPoint x="30" y="290" />
              <mxPoint x="-490" y="290" />
            </Array>
          </mxGeometry>
        </mxCell>
        <mxCell id="5EttTMxwSdxb7IPhr4SC-5" value="" style="rounded=1;whiteSpace=wrap;html=1;fillColor=#e1d5e7;strokeColor=#9673a6;" parent="1" vertex="1">
          <mxGeometry x="100" y="20" width="230" height="240" as="geometry" />
        </mxCell>
        <mxCell id="5EttTMxwSdxb7IPhr4SC-6" value="&lt;font style=&quot;font-size: 10px&quot;&gt;Services for Apps &amp;amp;&amp;nbsp;APIs&lt;br&gt;&lt;/font&gt;" style="text;html=1;strokeColor=none;fillColor=none;align=center;verticalAlign=middle;whiteSpace=wrap;rounded=0;fontStyle=1" parent="1" vertex="1">
          <mxGeometry x="155" y="20" width="125" height="20" as="geometry" />
        </mxCell>
        <mxCell id="5EttTMxwSdxb7IPhr4SC-8" value="" style="curved=1;endArrow=classic;html=1;entryX=-0.051;entryY=0.644;entryDx=0;entryDy=0;entryPerimeter=0;fillColor=#f8cecc;strokeColor=#b85450;" parent="1" source="5EttTMxwSdxb7IPhr4SC-5" target="5EttTMxwSdxb7IPhr4SC-4" edge="1">
          <mxGeometry width="50" height="50" relative="1" as="geometry">
            <mxPoint x="340" y="170" as="sourcePoint" />
            <mxPoint x="450" y="180" as="targetPoint" />
            <Array as="points">
              <mxPoint x="360" y="140" />
              <mxPoint x="400" y="180" />
            </Array>
          </mxGeometry>
        </mxCell>
        <mxCell id="5EttTMxwSdxb7IPhr4SC-176" value="Publish&lt;br&gt;Events" style="edgeLabel;html=1;align=center;verticalAlign=middle;resizable=0;points=[];fontSize=8;fontColor=#FF6666;" parent="5EttTMxwSdxb7IPhr4SC-8" vertex="1" connectable="0">
          <mxGeometry x="0.1637" y="5" relative="1" as="geometry">
            <mxPoint as="offset" />
          </mxGeometry>
        </mxCell>
        <mxCell id="5EttTMxwSdxb7IPhr4SC-15" value="" style="endArrow=none;html=1;exitX=0;exitY=0.75;exitDx=0;exitDy=0;entryX=1;entryY=0.75;entryDx=0;entryDy=0;" parent="1" source="5EttTMxwSdxb7IPhr4SC-5" target="5EttTMxwSdxb7IPhr4SC-5" edge="1">
          <mxGeometry width="50" height="50" relative="1" as="geometry">
            <mxPoint x="480" y="290" as="sourcePoint" />
            <mxPoint x="530" y="240" as="targetPoint" />
          </mxGeometry>
        </mxCell>
        <mxCell id="5EttTMxwSdxb7IPhr4SC-16" value="" style="rounded=0;whiteSpace=wrap;html=1;" parent="1" vertex="1">
          <mxGeometry x="110.3" y="177.5" width="30" height="22.5" as="geometry" />
        </mxCell>
        <mxCell id="5EttTMxwSdxb7IPhr4SC-126" style="edgeStyle=elbowEdgeStyle;rounded=0;orthogonalLoop=1;jettySize=auto;html=1;exitX=0.5;exitY=0;exitDx=0;exitDy=0;entryX=0.5;entryY=1;entryDx=0;entryDy=0;fontSize=10;arcSize=10;elbow=horizontal;endArrow=open;endFill=0;" parent="1" source="5EttTMxwSdxb7IPhr4SC-13" target="5EttTMxwSdxb7IPhr4SC-11" edge="1">
          <mxGeometry relative="1" as="geometry" />
        </mxCell>
        <mxCell id="5EttTMxwSdxb7IPhr4SC-13" value="&lt;font style=&quot;font-size: 10px&quot;&gt;&lt;b&gt;GCE&lt;br&gt;&lt;/b&gt;&lt;/font&gt;" style="text;html=1;strokeColor=none;fillColor=none;align=center;verticalAlign=middle;whiteSpace=wrap;rounded=0;" parent="1" vertex="1">
          <mxGeometry x="110" y="177.5" width="30" height="20" as="geometry" />
        </mxCell>
        <mxCell id="5EttTMxwSdxb7IPhr4SC-19" value="&lt;font style=&quot;line-height: 80%; font-size: 10px;&quot;&gt;Database&lt;/font&gt;" style="text;html=1;strokeColor=none;fillColor=none;align=center;verticalAlign=middle;whiteSpace=wrap;rounded=0;spacing=0;fontSize=10;fontStyle=1" parent="1" vertex="1">
          <mxGeometry x="115" y="203" width="40" height="10" as="geometry" />
        </mxCell>
        <mxCell id="5EttTMxwSdxb7IPhr4SC-20" value="" style="rounded=0;whiteSpace=wrap;html=1;" parent="1" vertex="1">
          <mxGeometry x="110" y="140" width="30" height="20" as="geometry" />
        </mxCell>
        <mxCell id="5EttTMxwSdxb7IPhr4SC-11" value="&lt;font style=&quot;font-size: 10px&quot;&gt;&lt;b&gt;GKE&lt;br&gt;&lt;/b&gt;&lt;/font&gt;" style="text;html=1;strokeColor=none;fillColor=none;align=center;verticalAlign=middle;whiteSpace=wrap;rounded=0;" parent="1" vertex="1">
          <mxGeometry x="110" y="140" width="30" height="20" as="geometry" />
        </mxCell>
        <mxCell id="5EttTMxwSdxb7IPhr4SC-21" value="" style="rounded=0;whiteSpace=wrap;html=1;" parent="1" vertex="1">
          <mxGeometry x="110" y="107.5" width="30" height="22.5" as="geometry" />
        </mxCell>
        <mxCell id="5EttTMxwSdxb7IPhr4SC-22" value="&lt;font style=&quot;font-size: 10px&quot;&gt;&lt;b&gt;Run&lt;br&gt;&lt;/b&gt;&lt;/font&gt;" style="text;html=1;strokeColor=none;fillColor=none;align=center;verticalAlign=middle;whiteSpace=wrap;rounded=0;" parent="1" vertex="1">
          <mxGeometry x="110" y="108.75" width="30" height="20" as="geometry" />
        </mxCell>
        <mxCell id="5EttTMxwSdxb7IPhr4SC-23" value="" style="rounded=0;whiteSpace=wrap;html=1;" parent="1" vertex="1">
          <mxGeometry x="110" y="80" width="30" height="22.5" as="geometry" />
        </mxCell>
        <mxCell id="5EttTMxwSdxb7IPhr4SC-25" value="" style="rounded=0;whiteSpace=wrap;html=1;" parent="1" vertex="1">
          <mxGeometry x="110" y="50" width="30" height="22.5" as="geometry" />
        </mxCell>
        <mxCell id="5EttTMxwSdxb7IPhr4SC-26" value="&lt;font style=&quot;font-size: 10px&quot;&gt;&lt;b&gt;Func&lt;br&gt;&lt;/b&gt;&lt;/font&gt;" style="text;html=1;strokeColor=none;fillColor=none;align=center;verticalAlign=middle;whiteSpace=wrap;rounded=0;" parent="1" vertex="1">
          <mxGeometry x="110" y="50" width="30" height="20" as="geometry" />
        </mxCell>
        <mxCell id="5EttTMxwSdxb7IPhr4SC-29" value="" style="endArrow=classic;html=1;exitX=1;exitY=0.25;exitDx=0;exitDy=0;" parent="1" source="5EttTMxwSdxb7IPhr4SC-30" edge="1">
          <mxGeometry width="50" height="50" relative="1" as="geometry">
            <mxPoint x="161" y="192.5" as="sourcePoint" />
            <mxPoint x="160" y="50" as="targetPoint" />
          </mxGeometry>
        </mxCell>
        <mxCell id="5EttTMxwSdxb7IPhr4SC-30" value="&lt;font style=&quot;font-size: 10px&quot;&gt;less Infrastructure&lt;/font&gt;" style="text;html=1;strokeColor=none;fillColor=none;align=center;verticalAlign=middle;whiteSpace=wrap;rounded=0;rotation=90;" parent="1" vertex="1">
          <mxGeometry x="100" y="120" width="110" height="20" as="geometry" />
        </mxCell>
        <mxCell id="5EttTMxwSdxb7IPhr4SC-24" value="&lt;font style=&quot;font-size: 10px&quot;&gt;&lt;b&gt;App&lt;br&gt;&lt;/b&gt;&lt;/font&gt;" style="text;html=1;strokeColor=none;fillColor=none;align=center;verticalAlign=middle;whiteSpace=wrap;rounded=0;" parent="1" vertex="1">
          <mxGeometry x="110" y="80" width="30" height="20" as="geometry" />
        </mxCell>
        <mxCell id="5EttTMxwSdxb7IPhr4SC-33" value="&lt;h1&gt;Google Compute Engine&lt;/h1&gt;&lt;p&gt;&lt;/p&gt;&lt;ul&gt;&lt;li&gt;Direct Access to VM &amp;amp; Operating System&lt;/li&gt;&lt;li&gt;Full Control, but also full Responsibility&lt;/li&gt;&lt;li&gt;Perfect for legacy deployments and self-hosted databases&lt;/li&gt;&lt;/ul&gt;GCE is available in a &lt;b&gt;Managed&lt;/b&gt; and &lt;b&gt;Unmanaged&lt;/b&gt; Cluster.&lt;br&gt;&lt;br&gt;Normally you can choose between &lt;b&gt;CPU, Memory, or General-Purpose VM&#39;&lt;/b&gt;s. Also, VM&#39;s with GPU and TPU are available for special&amp;nbsp;use cases.&lt;br&gt;&lt;br&gt;To safe costs, you can use &lt;b&gt;Preemptible VMs&lt;/b&gt;, but which do require a workload which can be interrupted within 30s. Also these VMs stay only for max. 24h.&lt;br&gt;&lt;br&gt;&lt;b&gt;&lt;u&gt;Security:&lt;/u&gt;&lt;/b&gt;&lt;br&gt;&lt;ul&gt;&lt;li&gt;&lt;b&gt;C&lt;/b&gt;ustomer &lt;b&gt;M&lt;/b&gt;anaged &lt;b&gt;E&lt;/b&gt;ncryption &lt;b&gt;K&lt;/b&gt;eys &amp;amp; &lt;b&gt;C&lt;/b&gt;ustomer &lt;b&gt;S&lt;/b&gt;upplied&amp;nbsp;&lt;b&gt;E&lt;/b&gt;ncryption &lt;b&gt;K&lt;/b&gt;eys are available&lt;/li&gt;&lt;li&gt;By default, you can enable confidential mode&lt;/li&gt;&lt;li&gt;You can set a &quot;Delete Prevention&quot;-Flag, only users with &lt;i&gt;compute.instances.create&lt;/i&gt; permissions can update the flag&lt;/li&gt;&lt;/ul&gt;&lt;p&gt;&lt;/p&gt;" style="text;html=1;strokeColor=none;fillColor=none;spacing=5;spacingTop=-20;whiteSpace=wrap;overflow=hidden;rounded=0;" parent="1" vertex="1">
          <mxGeometry x="-290" y="320" width="320" height="390" as="geometry" />
        </mxCell>
        <mxCell id="5EttTMxwSdxb7IPhr4SC-39" value="" style="rounded=0;whiteSpace=wrap;html=1;" parent="1" vertex="1">
          <mxGeometry x="-480" y="805" width="250" height="380" as="geometry" />
        </mxCell>
        <mxCell id="5EttTMxwSdxb7IPhr4SC-40" value="&lt;h1 style=&quot;font-size: 19px&quot;&gt;&lt;font style=&quot;font-size: 19px&quot;&gt;GCE Group - Managed&lt;/font&gt;&lt;/h1&gt;&lt;div&gt;&lt;ul&gt;&lt;li&gt;&quot;MIG&quot; = Managed Instance Group&lt;/li&gt;&lt;li&gt;Group works as one entity, all have the same settings&lt;/li&gt;&lt;/ul&gt;&lt;div&gt;&lt;b&gt;Features:&lt;/b&gt;&lt;/div&gt;&lt;/div&gt;&lt;div&gt;&lt;ul&gt;&lt;li&gt;Auto-Recovery (via Health-Check)&lt;/li&gt;&lt;li&gt;Load-Balancing&lt;/li&gt;&lt;li&gt;Auto-Scaling&lt;/li&gt;&lt;li&gt;Rolling Updates&lt;/li&gt;&lt;li&gt;State oriented Work-Load&lt;/li&gt;&lt;/ul&gt;&lt;div&gt;Is available for regional or zonal clusters. Can be used for stateless and stateful applications. In most cases you use a instance template to create new instance manually or by auto-scaling.&lt;/div&gt;&lt;/div&gt;&lt;div&gt;&lt;br&gt;&lt;/div&gt;&lt;div&gt;You can also use (like for single computes), a Container-Image or a Startup-Script. Also automation workflows via Terraform or equal is possible.&lt;/div&gt;&lt;div&gt;&lt;br&gt;&lt;/div&gt;&lt;div&gt;Managed Groups are normally used for GKE.&lt;/div&gt;" style="text;html=1;strokeColor=none;fillColor=none;spacing=5;spacingTop=-20;whiteSpace=wrap;overflow=hidden;rounded=0;" parent="1" vertex="1">
          <mxGeometry x="-480" y="810" width="250" height="370" as="geometry" />
        </mxCell>
        <mxCell id="5EttTMxwSdxb7IPhr4SC-43" value="" style="rounded=0;whiteSpace=wrap;html=1;" parent="1" vertex="1">
          <mxGeometry x="-220" y="805" width="250" height="310" as="geometry" />
        </mxCell>
        <mxCell id="5EttTMxwSdxb7IPhr4SC-44" value="&lt;h1 style=&quot;font-size: 19px&quot;&gt;&lt;font style=&quot;font-size: 19px&quot;&gt;GCE Group - Unmanaged&lt;/font&gt;&lt;/h1&gt;&lt;div&gt;&lt;div&gt;Group works as one entity, but still each on can have a different.&lt;br&gt;&lt;/div&gt;&lt;div&gt;&lt;br&gt;&lt;/div&gt;&lt;div&gt;&lt;b&gt;Features:&lt;/b&gt;&lt;/div&gt;&lt;/div&gt;&lt;div&gt;&lt;ul&gt;&lt;li&gt;Load-Balancing (but only via Port-Mapping of the VMs)&lt;br&gt;&lt;/li&gt;&lt;li&gt;Tweaking each instance separate&lt;/li&gt;&lt;/ul&gt;&lt;div&gt;Is available only for zonal clusters. Can be used for stateless and stateful applications, but do not provide autoscaling and auto-recovery. Also no instance templating is available.&lt;/div&gt;&lt;/div&gt;&lt;div&gt;&lt;br&gt;&lt;/div&gt;&lt;div&gt;You can also use (like for single computes), a Container-Image or a Startup-Script. Also automation workflows via Terraform or equal is possible, but limited.&lt;/div&gt;" style="text;html=1;strokeColor=none;fillColor=none;spacing=5;spacingTop=-20;whiteSpace=wrap;overflow=hidden;rounded=0;" parent="1" vertex="1">
          <mxGeometry x="-220" y="805" width="250" height="300" as="geometry" />
        </mxCell>
        <mxCell id="HkbM3BWrgPiWBRJZKnyU-2" style="edgeStyle=orthogonalEdgeStyle;rounded=0;orthogonalLoop=1;jettySize=auto;html=1;exitX=0.5;exitY=1;exitDx=0;exitDy=0;entryX=0.567;entryY=-0.004;entryDx=0;entryDy=0;entryPerimeter=0;" edge="1" parent="1" source="5EttTMxwSdxb7IPhr4SC-47" target="5EttTMxwSdxb7IPhr4SC-73">
          <mxGeometry relative="1" as="geometry" />
        </mxCell>
        <mxCell id="5EttTMxwSdxb7IPhr4SC-47" value="" style="rounded=0;whiteSpace=wrap;html=1;" parent="1" vertex="1">
          <mxGeometry x="80" y="320" width="330" height="240" as="geometry" />
        </mxCell>
        <mxCell id="5EttTMxwSdxb7IPhr4SC-48" value="&lt;h1&gt;&lt;font color=&quot;#0099ff&quot;&gt;Google Kubernetes Engine&lt;/font&gt;&lt;/h1&gt;&lt;p&gt;Is available in two modes, the &quot;Autopilot&quot; mode or in the &quot;Default&quot; mode.&lt;/p&gt;&lt;p&gt;In Autopilot-Mode you don&#39;t have to care about the underlying infrastructure only care about the Kubernetes-Cluster and your deployments, but it restricts in special configurations of your cluster and doesn&#39;t allow interactions with the underlying hardware.&lt;/p&gt;&lt;p&gt;The default mode relies on GCE MIGs, which are called &quot;Node-Pools&quot;.&lt;/p&gt;" style="text;html=1;strokeColor=none;fillColor=none;spacing=5;spacingTop=-20;whiteSpace=wrap;overflow=hidden;rounded=0;" parent="1" vertex="1">
          <mxGeometry x="80" y="320" width="330" height="210" as="geometry" />
        </mxCell>
        <mxCell id="5EttTMxwSdxb7IPhr4SC-73" value="" style="rounded=1;whiteSpace=wrap;html=1;" parent="1" vertex="1">
          <mxGeometry x="42.3" y="610" width="400" height="250" as="geometry" />
        </mxCell>
        <mxCell id="5EttTMxwSdxb7IPhr4SC-61" value="" style="rounded=1;whiteSpace=wrap;html=1;" parent="1" vertex="1">
          <mxGeometry x="57.3" y="750" width="215" height="100" as="geometry" />
        </mxCell>
        <mxCell id="5EttTMxwSdxb7IPhr4SC-51" value="" style="rounded=1;whiteSpace=wrap;html=1;" parent="1" vertex="1">
          <mxGeometry x="67.3" y="780" width="80" height="60" as="geometry" />
        </mxCell>
        <mxCell id="5EttTMxwSdxb7IPhr4SC-53" value="Pod 1" style="text;html=1;strokeColor=none;fillColor=none;align=center;verticalAlign=middle;whiteSpace=wrap;rounded=0;" parent="1" vertex="1">
          <mxGeometry x="70.3" y="780" width="40" height="20" as="geometry" />
        </mxCell>
        <mxCell id="5EttTMxwSdxb7IPhr4SC-54" value="Container" style="rounded=1;whiteSpace=wrap;html=1;" parent="1" vertex="1">
          <mxGeometry x="77.3" y="800" width="60" height="30" as="geometry" />
        </mxCell>
        <mxCell id="5EttTMxwSdxb7IPhr4SC-55" value="Container" style="rounded=1;whiteSpace=wrap;html=1;" parent="1" vertex="1">
          <mxGeometry x="81.3" y="805" width="60" height="30" as="geometry" />
        </mxCell>
        <mxCell id="5EttTMxwSdxb7IPhr4SC-57" value="" style="rounded=1;whiteSpace=wrap;html=1;" parent="1" vertex="1">
          <mxGeometry x="167.3" y="780" width="80" height="60" as="geometry" />
        </mxCell>
        <mxCell id="5EttTMxwSdxb7IPhr4SC-58" value="Container" style="rounded=1;whiteSpace=wrap;html=1;" parent="1" vertex="1">
          <mxGeometry x="177.3" y="800" width="60" height="30" as="geometry" />
        </mxCell>
        <mxCell id="5EttTMxwSdxb7IPhr4SC-59" value="Container" style="rounded=1;whiteSpace=wrap;html=1;" parent="1" vertex="1">
          <mxGeometry x="181.3" y="805" width="60" height="30" as="geometry" />
        </mxCell>
        <mxCell id="5EttTMxwSdxb7IPhr4SC-60" value="Pod&amp;nbsp;2" style="text;html=1;strokeColor=none;fillColor=none;align=center;verticalAlign=middle;whiteSpace=wrap;rounded=0;" parent="1" vertex="1">
          <mxGeometry x="171.3" y="780" width="40" height="20" as="geometry" />
        </mxCell>
        <mxCell id="5EttTMxwSdxb7IPhr4SC-62" value="Service A&amp;nbsp;" style="text;html=1;strokeColor=none;fillColor=none;align=center;verticalAlign=middle;whiteSpace=wrap;rounded=0;" parent="1" vertex="1">
          <mxGeometry x="70.3" y="755" width="60" height="20" as="geometry" />
        </mxCell>
        <mxCell id="5EttTMxwSdxb7IPhr4SC-63" value="" style="rounded=1;whiteSpace=wrap;html=1;" parent="1" vertex="1">
          <mxGeometry x="57.3" y="640" width="215" height="100" as="geometry" />
        </mxCell>
        <mxCell id="5EttTMxwSdxb7IPhr4SC-64" value="" style="rounded=1;whiteSpace=wrap;html=1;" parent="1" vertex="1">
          <mxGeometry x="67.3" y="670" width="80" height="60" as="geometry" />
        </mxCell>
        <mxCell id="5EttTMxwSdxb7IPhr4SC-65" value="Pod 1" style="text;html=1;strokeColor=none;fillColor=none;align=center;verticalAlign=middle;whiteSpace=wrap;rounded=0;" parent="1" vertex="1">
          <mxGeometry x="70.3" y="670" width="40" height="20" as="geometry" />
        </mxCell>
        <mxCell id="5EttTMxwSdxb7IPhr4SC-66" value="Container" style="rounded=1;whiteSpace=wrap;html=1;" parent="1" vertex="1">
          <mxGeometry x="77.3" y="690" width="60" height="30" as="geometry" />
        </mxCell>
        <mxCell id="5EttTMxwSdxb7IPhr4SC-67" value="Container" style="rounded=1;whiteSpace=wrap;html=1;" parent="1" vertex="1">
          <mxGeometry x="81.3" y="695" width="60" height="30" as="geometry" />
        </mxCell>
        <mxCell id="5EttTMxwSdxb7IPhr4SC-68" value="" style="rounded=1;whiteSpace=wrap;html=1;" parent="1" vertex="1">
          <mxGeometry x="167.3" y="670" width="80" height="60" as="geometry" />
        </mxCell>
        <mxCell id="5EttTMxwSdxb7IPhr4SC-69" value="Container" style="rounded=1;whiteSpace=wrap;html=1;" parent="1" vertex="1">
          <mxGeometry x="177.3" y="690" width="60" height="30" as="geometry" />
        </mxCell>
        <mxCell id="5EttTMxwSdxb7IPhr4SC-70" value="Container" style="rounded=1;whiteSpace=wrap;html=1;" parent="1" vertex="1">
          <mxGeometry x="181.3" y="695" width="60" height="30" as="geometry" />
        </mxCell>
        <mxCell id="5EttTMxwSdxb7IPhr4SC-71" value="Pod&amp;nbsp;2" style="text;html=1;strokeColor=none;fillColor=none;align=center;verticalAlign=middle;whiteSpace=wrap;rounded=0;" parent="1" vertex="1">
          <mxGeometry x="171.3" y="670" width="40" height="20" as="geometry" />
        </mxCell>
        <mxCell id="5EttTMxwSdxb7IPhr4SC-72" value="Service A&amp;nbsp;" style="text;html=1;strokeColor=none;fillColor=none;align=center;verticalAlign=middle;whiteSpace=wrap;rounded=0;" parent="1" vertex="1">
          <mxGeometry x="70.3" y="645" width="60" height="20" as="geometry" />
        </mxCell>
        <mxCell id="5EttTMxwSdxb7IPhr4SC-50" value="Node-Pool" style="text;html=1;strokeColor=none;fillColor=none;align=center;verticalAlign=middle;whiteSpace=wrap;rounded=0;" parent="1" vertex="1">
          <mxGeometry x="67.3" y="615" width="80" height="20" as="geometry" />
        </mxCell>
        <mxCell id="5EttTMxwSdxb7IPhr4SC-76" value="Load-Balancer" style="ellipse;shape=cloud;whiteSpace=wrap;html=1;" parent="1" vertex="1">
          <mxGeometry x="282.3" y="720" width="80" height="55" as="geometry" />
        </mxCell>
        <mxCell id="5EttTMxwSdxb7IPhr4SC-77" value="" style="curved=1;endArrow=classic;html=1;exitX=0.484;exitY=0.096;exitDx=0;exitDy=0;exitPerimeter=0;entryX=1.003;entryY=0.459;entryDx=0;entryDy=0;entryPerimeter=0;" parent="1" source="5EttTMxwSdxb7IPhr4SC-76" target="5EttTMxwSdxb7IPhr4SC-63" edge="1">
          <mxGeometry width="50" height="50" relative="1" as="geometry">
            <mxPoint x="322.3" y="715" as="sourcePoint" />
            <mxPoint x="372.3" y="665" as="targetPoint" />
            <Array as="points">
              <mxPoint x="322.3" y="665" />
            </Array>
          </mxGeometry>
        </mxCell>
        <mxCell id="5EttTMxwSdxb7IPhr4SC-79" value="" style="curved=1;endArrow=classic;html=1;entryX=1.003;entryY=0.459;entryDx=0;entryDy=0;entryPerimeter=0;" parent="1" source="5EttTMxwSdxb7IPhr4SC-76" edge="1">
          <mxGeometry width="50" height="50" relative="1" as="geometry">
            <mxPoint x="321.02000000000027" y="840.28" as="sourcePoint" />
            <mxPoint x="272.945" y="800.8999999999999" as="targetPoint" />
            <Array as="points">
              <mxPoint x="332.3" y="810" />
            </Array>
          </mxGeometry>
        </mxCell>
        <mxCell id="5EttTMxwSdxb7IPhr4SC-80" value="" style="shape=flexArrow;endArrow=classic;startArrow=classic;html=1;entryX=1.001;entryY=0.546;entryDx=0;entryDy=0;entryPerimeter=0;" parent="1" target="5EttTMxwSdxb7IPhr4SC-73" edge="1">
          <mxGeometry width="100" height="100" relative="1" as="geometry">
            <mxPoint x="362.3" y="750" as="sourcePoint" />
            <mxPoint x="462.3" y="650" as="targetPoint" />
          </mxGeometry>
        </mxCell>
        <mxCell id="5EttTMxwSdxb7IPhr4SC-81" value="API" style="text;html=1;strokeColor=none;fillColor=none;align=center;verticalAlign=middle;whiteSpace=wrap;rounded=0;" parent="1" vertex="1">
          <mxGeometry x="382.3" y="720" width="40" height="20" as="geometry" />
        </mxCell>
        <mxCell id="HkbM3BWrgPiWBRJZKnyU-20" style="edgeStyle=orthogonalEdgeStyle;rounded=0;orthogonalLoop=1;jettySize=auto;html=1;exitX=0.5;exitY=1;exitDx=0;exitDy=0;entryX=0.25;entryY=0;entryDx=0;entryDy=0;fontSize=12;fontColor=#0099FF;" edge="1" parent="1" source="5EttTMxwSdxb7IPhr4SC-82" target="HkbM3BWrgPiWBRJZKnyU-15">
          <mxGeometry relative="1" as="geometry" />
        </mxCell>
        <mxCell id="5EttTMxwSdxb7IPhr4SC-82" value="" style="rounded=0;whiteSpace=wrap;html=1;" parent="1" vertex="1">
          <mxGeometry x="460.5" y="320" width="320" height="490" as="geometry" />
        </mxCell>
        <mxCell id="5EttTMxwSdxb7IPhr4SC-85" value="VPC" style="ellipse;shape=cloud;whiteSpace=wrap;html=1;" parent="1" vertex="1">
          <mxGeometry x="187.6" y="96.75" width="70" height="40" as="geometry" />
        </mxCell>
        <mxCell id="5EttTMxwSdxb7IPhr4SC-87" value="Datastore" style="rounded=0;whiteSpace=wrap;html=1;fontSize=10;fontStyle=1" parent="1" vertex="1">
          <mxGeometry x="115.00000000000001" y="222.25" width="57.3" height="22.5" as="geometry" />
        </mxCell>
        <mxCell id="5EttTMxwSdxb7IPhr4SC-88" value="Bigtable" style="rounded=0;whiteSpace=wrap;html=1;fontSize=10;fontStyle=1" parent="1" vertex="1">
          <mxGeometry x="182.3" y="210" width="60" height="20" as="geometry" />
        </mxCell>
        <mxCell id="5EttTMxwSdxb7IPhr4SC-89" value="" style="rounded=1;whiteSpace=wrap;html=1;fontSize=10;" parent="1" vertex="1">
          <mxGeometry x="530" y="1250" width="550" height="440" as="geometry" />
        </mxCell>
        <mxCell id="5EttTMxwSdxb7IPhr4SC-90" value="Limitierungen" style="text;html=1;strokeColor=none;fillColor=none;align=center;verticalAlign=middle;whiteSpace=wrap;rounded=0;fontSize=24;fontStyle=1" parent="1" vertex="1">
          <mxGeometry x="630" y="1270" width="40" height="20" as="geometry" />
        </mxCell>
        <mxCell id="5EttTMxwSdxb7IPhr4SC-94" value="" style="shape=or;whiteSpace=wrap;html=1;fontSize=24;rotation=90;" parent="1" vertex="1">
          <mxGeometry x="335.57" y="594.42" width="52.3" height="88.85" as="geometry" />
        </mxCell>
        <mxCell id="5EttTMxwSdxb7IPhr4SC-95" value="&lt;font style=&quot;font-size: 9px ; line-height: 20%&quot;&gt;Kubernetes API / Konfiguration&lt;/font&gt;" style="text;html=1;strokeColor=none;fillColor=none;align=center;verticalAlign=middle;whiteSpace=wrap;rounded=0;fontSize=24;" parent="1" vertex="1">
          <mxGeometry x="314.00000000000006" y="610" width="96" height="43" as="geometry" />
        </mxCell>
        <mxCell id="HkbM3BWrgPiWBRJZKnyU-21" style="edgeStyle=orthogonalEdgeStyle;rounded=0;orthogonalLoop=1;jettySize=auto;html=1;exitX=0.5;exitY=1;exitDx=0;exitDy=0;entryX=0.786;entryY=-0.064;entryDx=0;entryDy=0;entryPerimeter=0;fontSize=12;fontColor=#0099FF;" edge="1" parent="1" source="5EttTMxwSdxb7IPhr4SC-99" target="HkbM3BWrgPiWBRJZKnyU-15">
          <mxGeometry relative="1" as="geometry" />
        </mxCell>
        <mxCell id="5EttTMxwSdxb7IPhr4SC-99" value="" style="rounded=0;whiteSpace=wrap;html=1;" parent="1" vertex="1">
          <mxGeometry x="820" y="320" width="320" height="430" as="geometry" />
        </mxCell>
        <mxCell id="5EttTMxwSdxb7IPhr4SC-100" value="&lt;h1&gt;&lt;font color=&quot;#97d077&quot;&gt;Google Cloud Run&lt;/font&gt;&lt;/h1&gt;&lt;p&gt;A serverless platform for deploying containers directly to the cloud without the manner of managing infrastructure. It only supports stateless containers and is invocable via web requests and Pub/Sub events.&lt;/p&gt;&lt;p&gt;It is built on top of Knative, a Kubernetes-based Serverless architecture. Because it is stateless and it only runs containers, file system access is limited to the container instance and is never persisted. The use of storage is using the container instance memory.&lt;/p&gt;&lt;p&gt;TLS is terminated for HTTP &amp;amp; gRPC calls and the container receives the request without TLS.&lt;/p&gt;&lt;p&gt;The container always runs within the scope of a request. It does not have any CPU allocated when no request is being processed.&lt;/p&gt;&lt;p&gt;The number of instances is automatically scaled by the number of requests which get processed. It is able to scale to zero by default but can have set a number of idle containers to serve faster reaction times.&lt;/p&gt;&lt;p&gt;Per default one vCPU is allocated to each container (can be changed). Also, you can set the amount of memory that is reserved for the process to up to 8GB. By default 128MB is given.&lt;/p&gt;&lt;p&gt;Also by default, it is expected, that each container can serve for multiple concurrent requests. This can also be changed.&lt;/p&gt;" style="text;html=1;strokeColor=none;fillColor=none;spacing=5;spacingTop=-20;whiteSpace=wrap;overflow=hidden;rounded=0;" parent="1" vertex="1">
          <mxGeometry x="460.5" y="320" width="320" height="480" as="geometry" />
        </mxCell>
        <mxCell id="5EttTMxwSdxb7IPhr4SC-108" value="&lt;font style=&quot;font-size: 10px&quot;&gt;more Code&lt;/font&gt;" style="text;html=1;strokeColor=none;fillColor=none;align=center;verticalAlign=middle;whiteSpace=wrap;rounded=0;fontSize=24;rotation=90;" parent="1" vertex="1">
          <mxGeometry x="135" y="120" width="80" height="20" as="geometry" />
        </mxCell>
        <mxCell id="5EttTMxwSdxb7IPhr4SC-184" style="edgeStyle=elbowEdgeStyle;rounded=0;orthogonalLoop=1;jettySize=auto;html=1;exitX=0.5;exitY=0;exitDx=0;exitDy=0;entryX=0;entryY=0.5;entryDx=0;entryDy=0;fontSize=8;fontColor=#FF6666;endArrow=classic;endFill=1;strokeWidth=1;" parent="1" source="5EttTMxwSdxb7IPhr4SC-110" target="5EttTMxwSdxb7IPhr4SC-116" edge="1">
          <mxGeometry relative="1" as="geometry" />
        </mxCell>
        <mxCell id="5EttTMxwSdxb7IPhr4SC-185" style="edgeStyle=elbowEdgeStyle;rounded=0;orthogonalLoop=1;jettySize=auto;html=1;exitX=0.5;exitY=0;exitDx=0;exitDy=0;entryX=1;entryY=0.5;entryDx=0;entryDy=0;fontSize=8;fontColor=#FF6666;endArrow=classic;endFill=1;strokeWidth=1;" parent="1" source="5EttTMxwSdxb7IPhr4SC-110" target="5EttTMxwSdxb7IPhr4SC-180" edge="1">
          <mxGeometry relative="1" as="geometry" />
        </mxCell>
        <mxCell id="5EttTMxwSdxb7IPhr4SC-110" value="&lt;p style=&quot;font-size: 10px;&quot;&gt;&lt;font style=&quot;line-height: 70%; font-size: 10px;&quot;&gt;Big Query&lt;/font&gt;&lt;/p&gt;" style="rounded=1;whiteSpace=wrap;html=1;fontSize=10;fontStyle=1" parent="1" vertex="1">
          <mxGeometry x="641.25" y="30" width="72.5" height="30" as="geometry" />
        </mxCell>
        <mxCell id="5EttTMxwSdxb7IPhr4SC-115" value="&lt;b&gt;Dataflow&lt;/b&gt;" style="rounded=0;whiteSpace=wrap;html=1;fontSize=10;" parent="1" vertex="1">
          <mxGeometry x="595.5" y="115.5" width="60" height="20" as="geometry" />
        </mxCell>
        <mxCell id="5EttTMxwSdxb7IPhr4SC-116" value="&lt;b&gt;Data Lab&lt;/b&gt;" style="whiteSpace=wrap;html=1;fontSize=10;rounded=1;" parent="1" vertex="1">
          <mxGeometry x="702" y="-10" width="60" height="20" as="geometry" />
        </mxCell>
        <mxCell id="5EttTMxwSdxb7IPhr4SC-117" value="&lt;b&gt;Cloud SQL&lt;/b&gt;" style="rounded=0;whiteSpace=wrap;html=1;fontSize=10;" parent="1" vertex="1">
          <mxGeometry x="251.60000000000002" y="210" width="62.4" height="20" as="geometry" />
        </mxCell>
        <mxCell id="5EttTMxwSdxb7IPhr4SC-118" value="&lt;b&gt;Spanner&lt;/b&gt;" style="rounded=0;whiteSpace=wrap;html=1;fontSize=10;" parent="1" vertex="1">
          <mxGeometry x="251.60000000000002" y="235" width="50" height="20" as="geometry" />
        </mxCell>
        <mxCell id="5EttTMxwSdxb7IPhr4SC-119" value="&lt;b&gt;Dataproc&lt;/b&gt;" style="rounded=0;whiteSpace=wrap;html=1;fontSize=10;" parent="1" vertex="1">
          <mxGeometry x="675" y="115.5" width="60" height="20" as="geometry" />
        </mxCell>
        <mxCell id="5EttTMxwSdxb7IPhr4SC-122" value="Data processing" style="text;html=1;strokeColor=none;fillColor=none;align=center;verticalAlign=middle;whiteSpace=wrap;rounded=0;fontSize=10;" parent="1" vertex="1">
          <mxGeometry x="589.25" y="92" width="91" height="10.5" as="geometry" />
        </mxCell>
        <mxCell id="5EttTMxwSdxb7IPhr4SC-123" value="Storage" style="rounded=0;whiteSpace=wrap;html=1;fontSize=10;fillColor=#dae8fc;strokeColor=#6c8ebf;" parent="1" vertex="1">
          <mxGeometry x="362.3" y="-70" width="70" height="30" as="geometry" />
        </mxCell>
        <mxCell id="5EttTMxwSdxb7IPhr4SC-125" style="edgeStyle=elbowEdgeStyle;rounded=0;orthogonalLoop=1;jettySize=auto;html=1;exitX=0;exitY=0.5;exitDx=0;exitDy=0;entryX=1;entryY=0.75;entryDx=0;entryDy=0;fontSize=10;fillColor=#dae8fc;strokeColor=#6c8ebf;" parent="1" source="5EttTMxwSdxb7IPhr4SC-124" target="5EttTMxwSdxb7IPhr4SC-13" edge="1">
          <mxGeometry relative="1" as="geometry">
            <Array as="points">
              <mxPoint x="250" y="180" />
            </Array>
          </mxGeometry>
        </mxCell>
        <mxCell id="5EttTMxwSdxb7IPhr4SC-129" style="edgeStyle=elbowEdgeStyle;rounded=0;orthogonalLoop=1;jettySize=auto;html=1;exitX=0.5;exitY=0;exitDx=0;exitDy=0;entryX=1;entryY=0.25;entryDx=0;entryDy=0;fontSize=10;endArrow=classic;endFill=1;fillColor=#dae8fc;strokeColor=#6c8ebf;" parent="1" source="5EttTMxwSdxb7IPhr4SC-124" target="5EttTMxwSdxb7IPhr4SC-128" edge="1">
          <mxGeometry relative="1" as="geometry" />
        </mxCell>
        <mxCell id="5EttTMxwSdxb7IPhr4SC-124" value="Disks" style="rounded=0;whiteSpace=wrap;html=1;fontSize=10;fillColor=#dae8fc;strokeColor=#6c8ebf;" parent="1" vertex="1">
          <mxGeometry x="262.3" y="170" width="50" height="20" as="geometry" />
        </mxCell>
        <mxCell id="5EttTMxwSdxb7IPhr4SC-128" value="Snapshots" style="rounded=0;whiteSpace=wrap;html=1;fontSize=10;fillColor=#dae8fc;strokeColor=#6c8ebf;" parent="1" vertex="1">
          <mxGeometry x="185" y="160" width="60" height="20" as="geometry" />
        </mxCell>
        <mxCell id="5EttTMxwSdxb7IPhr4SC-130" value="" style="curved=1;endArrow=classic;html=1;fontSize=10;entryX=1;entryY=0.25;entryDx=0;entryDy=0;fillColor=#f8cecc;strokeColor=#b85450;" parent="1" source="5EttTMxwSdxb7IPhr4SC-4" target="5EttTMxwSdxb7IPhr4SC-5" edge="1">
          <mxGeometry width="50" height="50" relative="1" as="geometry">
            <mxPoint x="430" y="130" as="sourcePoint" />
            <mxPoint x="510" y="58.75" as="targetPoint" />
            <Array as="points">
              <mxPoint x="440" y="110" />
              <mxPoint x="410" y="110" />
              <mxPoint x="380" y="110" />
              <mxPoint x="350" y="100" />
            </Array>
          </mxGeometry>
        </mxCell>
        <mxCell id="5EttTMxwSdxb7IPhr4SC-175" value="Consum&lt;br&gt;Events" style="edgeLabel;html=1;align=center;verticalAlign=middle;resizable=0;points=[];fontSize=8;fontColor=#FF6666;" parent="5EttTMxwSdxb7IPhr4SC-130" vertex="1" connectable="0">
          <mxGeometry x="-0.1012" relative="1" as="geometry">
            <mxPoint as="offset" />
          </mxGeometry>
        </mxCell>
        <mxCell id="5EttTMxwSdxb7IPhr4SC-135" value="&lt;b&gt;Big Data&lt;/b&gt;" style="text;html=1;align=center;verticalAlign=middle;whiteSpace=wrap;rounded=0;fontSize=10;fontColor=#4D4D4D;" parent="1" vertex="1">
          <mxGeometry x="589.25" y="-45" width="50" height="20" as="geometry" />
        </mxCell>
        <mxCell id="5EttTMxwSdxb7IPhr4SC-136" value="" style="curved=1;endArrow=classic;html=1;fontSize=10;fontColor=#4D4D4D;strokeWidth=1;exitX=1;exitY=0.75;exitDx=0;exitDy=0;entryX=0.165;entryY=1.012;entryDx=0;entryDy=0;entryPerimeter=0;fillColor=#f8cecc;strokeColor=#b85450;" parent="1" source="5EttTMxwSdxb7IPhr4SC-4" target="5EttTMxwSdxb7IPhr4SC-121" edge="1">
          <mxGeometry width="50" height="50" relative="1" as="geometry">
            <mxPoint x="520" y="203" as="sourcePoint" />
            <mxPoint x="570" y="153" as="targetPoint" />
            <Array as="points">
              <mxPoint x="510" y="170" />
              <mxPoint x="550" y="150" />
              <mxPoint x="600" y="180" />
            </Array>
          </mxGeometry>
        </mxCell>
        <mxCell id="5EttTMxwSdxb7IPhr4SC-174" value="Event&lt;br&gt;Steam" style="edgeLabel;html=1;align=center;verticalAlign=middle;resizable=0;points=[];fontSize=8;fontColor=#FF6666;" parent="5EttTMxwSdxb7IPhr4SC-136" vertex="1" connectable="0">
          <mxGeometry x="-0.1067" y="-5" relative="1" as="geometry">
            <mxPoint as="offset" />
          </mxGeometry>
        </mxCell>
        <mxCell id="5EttTMxwSdxb7IPhr4SC-138" value="" style="curved=1;endArrow=classic;html=1;fontSize=10;fontColor=#4D4D4D;strokeWidth=1;entryX=0;entryY=0;entryDx=0;entryDy=0;fillColor=#dae8fc;strokeColor=#6c8ebf;exitX=1;exitY=0.75;exitDx=0;exitDy=0;" parent="1" source="5EttTMxwSdxb7IPhr4SC-123" target="5EttTMxwSdxb7IPhr4SC-122" edge="1">
          <mxGeometry width="50" height="50" relative="1" as="geometry">
            <mxPoint x="460" as="sourcePoint" />
            <mxPoint x="510" y="-50" as="targetPoint" />
            <Array as="points">
              <mxPoint x="540" />
            </Array>
          </mxGeometry>
        </mxCell>
        <mxCell id="5EttTMxwSdxb7IPhr4SC-140" value="&lt;font style=&quot;font-size: 8px&quot;&gt;Batch-Data&lt;/font&gt;" style="text;html=1;strokeColor=none;fillColor=none;align=center;verticalAlign=middle;whiteSpace=wrap;rounded=0;fontSize=10;rotation=45;fontColor=#32639C;" parent="1" vertex="1">
          <mxGeometry x="510" y="9" width="60" height="10" as="geometry" />
        </mxCell>
        <mxCell id="5EttTMxwSdxb7IPhr4SC-142" value="" style="endArrow=classic;startArrow=classic;html=1;fontSize=10;fontColor=#4D4D4D;strokeWidth=1;exitX=0.957;exitY=0.042;exitDx=0;exitDy=0;exitPerimeter=0;entryX=0.396;entryY=1.033;entryDx=0;entryDy=0;entryPerimeter=0;fillColor=#dae8fc;strokeColor=#6c8ebf;" parent="1" source="5EttTMxwSdxb7IPhr4SC-5" target="5EttTMxwSdxb7IPhr4SC-123" edge="1">
          <mxGeometry width="50" height="50" relative="1" as="geometry">
            <mxPoint x="257.6" y="20" as="sourcePoint" />
            <mxPoint x="368" y="-39" as="targetPoint" />
            <Array as="points">
              <mxPoint x="368" />
            </Array>
          </mxGeometry>
        </mxCell>
        <mxCell id="5EttTMxwSdxb7IPhr4SC-158" style="edgeStyle=elbowEdgeStyle;rounded=0;orthogonalLoop=1;jettySize=auto;html=1;exitX=0.5;exitY=1;exitDx=0;exitDy=0;fontSize=10;fontColor=#4D4D4D;endArrow=classic;endFill=1;strokeWidth=1;fillColor=#dae8fc;strokeColor=#6c8ebf;" parent="1" source="5EttTMxwSdxb7IPhr4SC-156" target="5EttTMxwSdxb7IPhr4SC-123" edge="1">
          <mxGeometry relative="1" as="geometry">
            <Array as="points">
              <mxPoint x="340" y="-60" />
              <mxPoint x="330" y="-90" />
              <mxPoint x="297" y="-90" />
            </Array>
          </mxGeometry>
        </mxCell>
        <mxCell id="5EttTMxwSdxb7IPhr4SC-156" value="&lt;font color=&quot;#000000&quot;&gt;Transfer Appliance&lt;br&gt;(&amp;gt; 10TB)&lt;br&gt;&lt;/font&gt;" style="rounded=1;whiteSpace=wrap;html=1;fontSize=10;fillColor=#dae8fc;strokeColor=#6c8ebf;" parent="1" vertex="1">
          <mxGeometry x="237.29999999999998" y="-140" width="120" height="30" as="geometry" />
        </mxCell>
        <mxCell id="5EttTMxwSdxb7IPhr4SC-160" style="edgeStyle=elbowEdgeStyle;rounded=0;orthogonalLoop=1;jettySize=auto;html=1;exitX=0.5;exitY=1;exitDx=0;exitDy=0;entryX=0;entryY=0.75;entryDx=0;entryDy=0;fontSize=10;fontColor=#4D4D4D;endArrow=classic;endFill=1;strokeWidth=1;fillColor=#dae8fc;strokeColor=#6c8ebf;" parent="1" source="5EttTMxwSdxb7IPhr4SC-159" target="5EttTMxwSdxb7IPhr4SC-123" edge="1">
          <mxGeometry relative="1" as="geometry">
            <Array as="points">
              <mxPoint x="270" y="-55" />
              <mxPoint x="362" y="-55" />
              <mxPoint x="270" y="-47" />
            </Array>
          </mxGeometry>
        </mxCell>
        <mxCell id="5EttTMxwSdxb7IPhr4SC-159" value="&lt;font color=&quot;#000000&quot;&gt;Transfer Service&lt;br&gt;(&amp;lt; 10TB, self)&lt;/font&gt;" style="rounded=1;whiteSpace=wrap;html=1;fontSize=10;fillColor=#dae8fc;strokeColor=#6c8ebf;" parent="1" vertex="1">
          <mxGeometry x="187.6" y="-100" width="120" height="30" as="geometry" />
        </mxCell>
        <mxCell id="5EttTMxwSdxb7IPhr4SC-162" style="edgeStyle=elbowEdgeStyle;rounded=0;orthogonalLoop=1;jettySize=auto;html=1;exitX=0.5;exitY=1;exitDx=0;exitDy=0;entryX=0.645;entryY=0;entryDx=0;entryDy=0;entryPerimeter=0;fontSize=10;fontColor=#4D4D4D;endArrow=classic;endFill=1;strokeWidth=1;fillColor=#dae8fc;strokeColor=#6c8ebf;" parent="1" source="5EttTMxwSdxb7IPhr4SC-161" target="5EttTMxwSdxb7IPhr4SC-123" edge="1">
          <mxGeometry relative="1" as="geometry" />
        </mxCell>
        <mxCell id="5EttTMxwSdxb7IPhr4SC-161" value="&lt;font color=&quot;#000000&quot;&gt;gsutil&lt;br&gt;(CLI-Tool)&lt;/font&gt;" style="rounded=1;whiteSpace=wrap;html=1;fontSize=10;fillColor=#dae8fc;strokeColor=#6c8ebf;" parent="1" vertex="1">
          <mxGeometry x="372.3" y="-130" width="70" height="30" as="geometry" />
        </mxCell>
        <mxCell id="5EttTMxwSdxb7IPhr4SC-163" value="" style="curved=1;endArrow=classic;html=1;fontSize=10;fontColor=#4D4D4D;strokeWidth=1;exitX=0.159;exitY=-0.156;exitDx=0;exitDy=0;exitPerimeter=0;fillColor=#f5f5f5;strokeColor=#666666;" parent="1" source="5EttTMxwSdxb7IPhr4SC-155" target="5EttTMxwSdxb7IPhr4SC-4" edge="1">
          <mxGeometry width="50" height="50" relative="1" as="geometry">
            <mxPoint x="632" y="225" as="sourcePoint" />
            <mxPoint x="682" y="175" as="targetPoint" />
            <Array as="points">
              <mxPoint x="716" y="175" />
              <mxPoint x="540" y="220" />
            </Array>
          </mxGeometry>
        </mxCell>
        <mxCell id="5EttTMxwSdxb7IPhr4SC-172" value="&lt;font color=&quot;#383838&quot;&gt;Data Stream&lt;/font&gt;" style="edgeLabel;html=1;align=center;verticalAlign=middle;resizable=0;points=[];fontSize=8;fontColor=#FF6666;" parent="5EttTMxwSdxb7IPhr4SC-163" vertex="1" connectable="0">
          <mxGeometry x="0.0872" y="-5" relative="1" as="geometry">
            <mxPoint as="offset" />
          </mxGeometry>
        </mxCell>
        <mxCell id="5EttTMxwSdxb7IPhr4SC-144" value="&lt;font color=&quot;#000000&quot;&gt;v&lt;/font&gt;" style="ellipse;whiteSpace=wrap;html=1;rounded=1;fontSize=10;fontColor=#333333;fillColor=#f5f5f5;strokeColor=#666666;" parent="1" vertex="1">
          <mxGeometry x="730" y="215" width="30" height="20" as="geometry" />
        </mxCell>
        <mxCell id="5EttTMxwSdxb7IPhr4SC-145" value="&lt;font color=&quot;#000000&quot;&gt;IoT&lt;/font&gt;" style="ellipse;whiteSpace=wrap;html=1;rounded=1;fontSize=10;fontColor=#333333;fillColor=#f5f5f5;strokeColor=#666666;" parent="1" vertex="1">
          <mxGeometry x="732" y="217.5" width="30" height="20" as="geometry" />
        </mxCell>
        <mxCell id="5EttTMxwSdxb7IPhr4SC-147" value="&lt;font color=&quot;#000000&quot;&gt;IoT&lt;/font&gt;" style="ellipse;whiteSpace=wrap;html=1;rounded=1;fontSize=10;fontColor=#333333;fillColor=#f5f5f5;strokeColor=#666666;" parent="1" vertex="1">
          <mxGeometry x="735" y="220.5" width="30" height="20" as="geometry" />
        </mxCell>
        <mxCell id="5EttTMxwSdxb7IPhr4SC-148" value="&lt;font color=&quot;#000000&quot;&gt;IoT&lt;/font&gt;" style="ellipse;whiteSpace=wrap;html=1;rounded=1;fontSize=10;fontColor=#333333;fillColor=#f5f5f5;strokeColor=#666666;" parent="1" vertex="1">
          <mxGeometry x="737" y="223.5" width="30" height="20" as="geometry" />
        </mxCell>
        <mxCell id="5EttTMxwSdxb7IPhr4SC-149" value="&lt;font color=&quot;#000000&quot;&gt;IoT&lt;/font&gt;" style="ellipse;whiteSpace=wrap;html=1;rounded=1;fontSize=10;fontColor=#333333;fillColor=#f5f5f5;strokeColor=#666666;" parent="1" vertex="1">
          <mxGeometry x="770" y="215" width="30" height="20" as="geometry" />
        </mxCell>
        <mxCell id="5EttTMxwSdxb7IPhr4SC-150" value="&lt;font color=&quot;#000000&quot;&gt;IoT&lt;/font&gt;" style="ellipse;whiteSpace=wrap;html=1;rounded=1;fontSize=10;fontColor=#333333;fillColor=#f5f5f5;strokeColor=#666666;" parent="1" vertex="1">
          <mxGeometry x="772" y="217.5" width="30" height="20" as="geometry" />
        </mxCell>
        <mxCell id="5EttTMxwSdxb7IPhr4SC-151" value="&lt;font color=&quot;#000000&quot;&gt;IoT&lt;/font&gt;" style="ellipse;whiteSpace=wrap;html=1;rounded=1;fontSize=10;fontColor=#333333;fillColor=#f5f5f5;strokeColor=#666666;" parent="1" vertex="1">
          <mxGeometry x="775" y="220.5" width="30" height="20" as="geometry" />
        </mxCell>
        <mxCell id="5EttTMxwSdxb7IPhr4SC-152" value="&lt;font color=&quot;#000000&quot;&gt;IoT&lt;/font&gt;" style="ellipse;whiteSpace=wrap;html=1;rounded=1;fontSize=10;fontColor=#333333;fillColor=#f5f5f5;strokeColor=#666666;" parent="1" vertex="1">
          <mxGeometry x="777" y="223.5" width="30" height="20" as="geometry" />
        </mxCell>
        <mxCell id="5EttTMxwSdxb7IPhr4SC-155" value="&lt;font color=&quot;#000000&quot;&gt;&lt;span&gt;Remote Devices&lt;br&gt;&lt;/span&gt;&lt;/font&gt;" style="text;html=1;align=center;verticalAlign=middle;whiteSpace=wrap;rounded=0;fontSize=10;" parent="1" vertex="1">
          <mxGeometry x="726" y="192" width="88" height="15" as="geometry" />
        </mxCell>
        <mxCell id="5EttTMxwSdxb7IPhr4SC-168" value="" style="curved=1;endArrow=classic;html=1;fontSize=9;fontColor=#4D4D4D;strokeWidth=1;fillColor=#f5f5f5;strokeColor=#666666;" parent="1" source="5EttTMxwSdxb7IPhr4SC-170" target="5EttTMxwSdxb7IPhr4SC-4" edge="1">
          <mxGeometry width="50" height="50" relative="1" as="geometry">
            <mxPoint x="545" y="240" as="sourcePoint" />
            <mxPoint x="515" y="192" as="targetPoint" />
            <Array as="points">
              <mxPoint x="515" y="230" />
              <mxPoint x="462" y="192" />
            </Array>
          </mxGeometry>
        </mxCell>
        <mxCell id="5EttTMxwSdxb7IPhr4SC-173" value="&lt;font color=&quot;#424242&quot;&gt;Data Stream (via IoT Core)&lt;/font&gt;" style="edgeLabel;html=1;align=center;verticalAlign=middle;resizable=0;points=[];fontSize=8;fontColor=#FF6666;" parent="5EttTMxwSdxb7IPhr4SC-168" vertex="1" connectable="0">
          <mxGeometry x="-0.0504" y="-6" relative="1" as="geometry">
            <mxPoint x="30" y="1" as="offset" />
          </mxGeometry>
        </mxCell>
        <mxCell id="5EttTMxwSdxb7IPhr4SC-170" value="" style="shape=or;whiteSpace=wrap;html=1;rounded=1;labelBackgroundColor=none;fontSize=8;fontColor=#333333;rotation=-180;fillColor=#f5f5f5;strokeColor=#666666;" parent="1" vertex="1">
          <mxGeometry x="670.75" y="210" width="43.75" height="23.5" as="geometry" />
        </mxCell>
        <mxCell id="5EttTMxwSdxb7IPhr4SC-171" value="&lt;span style=&quot;color: rgb(51 , 51 , 51) ; background-color: rgb(245 , 245 , 245)&quot;&gt;IoT Core&lt;/span&gt;" style="text;html=1;strokeColor=none;fillColor=none;align=center;verticalAlign=middle;whiteSpace=wrap;rounded=0;labelBackgroundColor=none;fontSize=8;fontColor=#FF6666;" parent="1" vertex="1">
          <mxGeometry x="677" y="212" width="35" height="20" as="geometry" />
        </mxCell>
        <mxCell id="5EttTMxwSdxb7IPhr4SC-179" value="&lt;font color=&quot;#000000&quot; size=&quot;1&quot;&gt;&lt;b&gt;Fire Store&lt;/b&gt;&lt;/font&gt;" style="rounded=0;whiteSpace=wrap;html=1;labelBackgroundColor=none;fontSize=8;fontColor=#FF6666;" parent="1" vertex="1">
          <mxGeometry x="182.3" y="235" width="60" height="20" as="geometry" />
        </mxCell>
        <mxCell id="5EttTMxwSdxb7IPhr4SC-180" value="&lt;b&gt;Data Studio&lt;/b&gt;" style="whiteSpace=wrap;html=1;fontSize=10;rounded=1;" parent="1" vertex="1">
          <mxGeometry x="585" y="-10" width="62" height="20" as="geometry" />
        </mxCell>
        <mxCell id="5EttTMxwSdxb7IPhr4SC-187" value="&lt;font color=&quot;#000000&quot;&gt;Analyze Data&lt;/font&gt;" style="text;html=1;strokeColor=none;fillColor=none;align=center;verticalAlign=middle;whiteSpace=wrap;rounded=0;labelBackgroundColor=none;fontSize=8;fontColor=#FF6666;" parent="1" vertex="1">
          <mxGeometry x="655.5" y="-20" width="40" height="20" as="geometry" />
        </mxCell>
        <mxCell id="5EttTMxwSdxb7IPhr4SC-188" style="edgeStyle=elbowEdgeStyle;rounded=0;orthogonalLoop=1;jettySize=auto;html=1;exitX=1;exitY=0.5;exitDx=0;exitDy=0;fontSize=8;fontColor=#FF6666;endArrow=classic;endFill=1;strokeWidth=1;" parent="1" source="5EttTMxwSdxb7IPhr4SC-141" target="5EttTMxwSdxb7IPhr4SC-141" edge="1">
          <mxGeometry relative="1" as="geometry" />
        </mxCell>
        <mxCell id="5EttTMxwSdxb7IPhr4SC-191" value="&lt;font color=&quot;#0099ff&quot; style=&quot;font-size: 33px&quot;&gt;Google Cloud&lt;/font&gt;" style="text;html=1;strokeColor=none;fillColor=none;align=center;verticalAlign=middle;whiteSpace=wrap;rounded=0;labelBackgroundColor=none;fontSize=8;fontColor=#32639C;" parent="1" vertex="1">
          <mxGeometry x="387.87" y="19" width="120" height="70" as="geometry" />
        </mxCell>
        <mxCell id="5EttTMxwSdxb7IPhr4SC-197" value="&lt;b&gt;...&lt;/b&gt;" style="text;html=1;strokeColor=none;fillColor=none;align=center;verticalAlign=middle;whiteSpace=wrap;rounded=0;labelBackgroundColor=none;fontSize=10;fontColor=#000000;" parent="1" vertex="1">
          <mxGeometry x="657" y="-130" width="40" height="20" as="geometry" />
        </mxCell>
        <mxCell id="5EttTMxwSdxb7IPhr4SC-202" value="" style="shape=flexArrow;endArrow=classic;startArrow=classic;html=1;fontSize=10;fontColor=#000000;strokeWidth=1;exitX=0.036;exitY=0.055;exitDx=0;exitDy=0;exitPerimeter=0;fillColor=#bac8d3;strokeColor=#23445d;" parent="1" source="5EttTMxwSdxb7IPhr4SC-5" edge="1">
          <mxGeometry width="100" height="100" relative="1" as="geometry">
            <mxPoint x="100" y="50" as="sourcePoint" />
            <mxPoint y="-50" as="targetPoint" />
          </mxGeometry>
        </mxCell>
        <mxCell id="5EttTMxwSdxb7IPhr4SC-201" value="Cloud Armor" style="rounded=1;whiteSpace=wrap;html=1;labelBackgroundColor=none;fontSize=10;fontColor=#000000;" parent="1" vertex="1">
          <mxGeometry x="19.999999999999996" y="-20" width="80" height="20" as="geometry" />
        </mxCell>
        <mxCell id="5EttTMxwSdxb7IPhr4SC-203" value="Hacker&lt;br&gt;/ DDoS" style="shape=umlActor;verticalLabelPosition=bottom;verticalAlign=top;html=1;outlineConnect=0;rounded=1;labelBackgroundColor=none;fontSize=10;fillColor=#f8cecc;strokeColor=#b85450;" parent="1" vertex="1">
          <mxGeometry x="0.9499999999999993" y="-145" width="20" height="40" as="geometry" />
        </mxCell>
        <mxCell id="5EttTMxwSdxb7IPhr4SC-205" value="" style="shape=umlActor;verticalLabelPosition=bottom;verticalAlign=top;html=1;outlineConnect=0;rounded=1;labelBackgroundColor=none;fontSize=10;fontColor=#000000;" parent="1" vertex="1">
          <mxGeometry x="-85" y="-60" width="10" height="25" as="geometry" />
        </mxCell>
        <mxCell id="5EttTMxwSdxb7IPhr4SC-206" value="" style="shape=umlActor;verticalLabelPosition=bottom;verticalAlign=top;html=1;outlineConnect=0;rounded=1;labelBackgroundColor=none;fontSize=10;fontColor=#000000;" parent="1" vertex="1">
          <mxGeometry x="-75" y="-50" width="10" height="25" as="geometry" />
        </mxCell>
        <mxCell id="5EttTMxwSdxb7IPhr4SC-207" value="" style="shape=umlActor;verticalLabelPosition=bottom;verticalAlign=top;html=1;outlineConnect=0;rounded=1;labelBackgroundColor=none;fontSize=10;fontColor=#000000;" parent="1" vertex="1">
          <mxGeometry x="-65" y="-40" width="10" height="25" as="geometry" />
        </mxCell>
        <mxCell id="5EttTMxwSdxb7IPhr4SC-208" value="" style="shape=umlActor;verticalLabelPosition=bottom;verticalAlign=top;html=1;outlineConnect=0;rounded=1;labelBackgroundColor=none;fontSize=10;fontColor=#000000;" parent="1" vertex="1">
          <mxGeometry x="-55" y="-30" width="10" height="25" as="geometry" />
        </mxCell>
        <mxCell id="5EttTMxwSdxb7IPhr4SC-209" value="" style="shape=umlActor;verticalLabelPosition=bottom;verticalAlign=top;html=1;outlineConnect=0;rounded=1;labelBackgroundColor=none;fontSize=10;fontColor=#000000;" parent="1" vertex="1">
          <mxGeometry x="-55" y="-60" width="10" height="25" as="geometry" />
        </mxCell>
        <mxCell id="5EttTMxwSdxb7IPhr4SC-210" value="" style="shape=umlActor;verticalLabelPosition=bottom;verticalAlign=top;html=1;outlineConnect=0;rounded=1;labelBackgroundColor=none;fontSize=10;fontColor=#000000;" parent="1" vertex="1">
          <mxGeometry x="-85" y="-35" width="10" height="25" as="geometry" />
        </mxCell>
        <mxCell id="5EttTMxwSdxb7IPhr4SC-212" value="User" style="text;html=1;strokeColor=none;fillColor=none;align=center;verticalAlign=middle;whiteSpace=wrap;rounded=0;labelBackgroundColor=none;fontSize=10;fontColor=#000000;fontStyle=1" parent="1" vertex="1">
          <mxGeometry x="-85" y="-90" width="40" height="20" as="geometry" />
        </mxCell>
        <mxCell id="HkbM3BWrgPiWBRJZKnyU-1" value="DLP" style="rounded=0;whiteSpace=wrap;html=1;" vertex="1" parent="1">
          <mxGeometry x="278" y="52.5" width="36" height="20" as="geometry" />
        </mxCell>
        <mxCell id="5EttTMxwSdxb7IPhr4SC-200" style="edgeStyle=elbowEdgeStyle;rounded=0;orthogonalLoop=1;jettySize=auto;html=1;fontSize=10;fontColor=#000000;endArrow=classic;endFill=1;strokeWidth=1;fillColor=#fff2cc;strokeColor=#d6b656;exitX=0;exitY=0.75;exitDx=0;exitDy=0;" parent="1" source="5EttTMxwSdxb7IPhr4SC-198" target="5EttTMxwSdxb7IPhr4SC-6" edge="1">
          <mxGeometry relative="1" as="geometry">
            <Array as="points">
              <mxPoint x="160" y="-70" />
              <mxPoint x="141" y="-50" />
              <mxPoint x="170" y="-190" />
              <mxPoint x="150" y="-120" />
              <mxPoint x="220" y="-150" />
              <mxPoint x="170" y="-50" />
            </Array>
            <mxPoint x="498" y="-161" as="sourcePoint" />
          </mxGeometry>
        </mxCell>
        <mxCell id="5EttTMxwSdxb7IPhr4SC-196" value="" style="rounded=1;whiteSpace=wrap;html=1;labelBackgroundColor=none;fontSize=10;fillColor=#fff2cc;strokeColor=#d6b656;" parent="1" vertex="1">
          <mxGeometry x="499.87" y="-190" width="212.13" height="100" as="geometry" />
        </mxCell>
        <mxCell id="5EttTMxwSdxb7IPhr4SC-193" value="&lt;b style=&quot;font-size: 10px&quot;&gt;AI-Platform&lt;/b&gt;" style="rounded=1;whiteSpace=wrap;html=1;labelBackgroundColor=none;fontSize=8;fontColor=#000000;" parent="1" vertex="1">
          <mxGeometry x="520" y="-160" width="80" height="20" as="geometry" />
        </mxCell>
        <mxCell id="5EttTMxwSdxb7IPhr4SC-194" value="&lt;font style=&quot;font-size: 10px;&quot;&gt;&lt;span style=&quot;font-size: 10px;&quot;&gt;Natural Language&lt;/span&gt;&lt;/font&gt;" style="rounded=1;whiteSpace=wrap;html=1;labelBackgroundColor=none;fontSize=10;fontColor=#000000;fontStyle=1" parent="1" vertex="1">
          <mxGeometry x="606" y="-160" width="100" height="20" as="geometry" />
        </mxCell>
        <mxCell id="5EttTMxwSdxb7IPhr4SC-195" value="Recommendations AI" style="rounded=1;whiteSpace=wrap;html=1;labelBackgroundColor=none;fontSize=10;fontColor=#000000;fontStyle=1" parent="1" vertex="1">
          <mxGeometry x="530" y="-130" width="120" height="20" as="geometry" />
        </mxCell>
        <mxCell id="5EttTMxwSdxb7IPhr4SC-198" value="&lt;b&gt;AI APIs&lt;br&gt;&lt;/b&gt;" style="text;html=1;strokeColor=none;fillColor=none;align=center;verticalAlign=middle;whiteSpace=wrap;rounded=0;labelBackgroundColor=none;fontSize=10;fontColor=#000000;" parent="1" vertex="1">
          <mxGeometry x="510" y="-190" width="40" height="20" as="geometry" />
        </mxCell>
        <mxCell id="HkbM3BWrgPiWBRJZKnyU-4" value="&lt;span style=&quot;font-size: 8px; background-color: rgb(255, 255, 255);&quot;&gt;Upload /&lt;/span&gt;&lt;br style=&quot;font-size: 8px;&quot;&gt;&lt;span style=&quot;font-size: 8px; background-color: rgb(255, 255, 255);&quot;&gt;Download&lt;/span&gt;" style="text;html=1;align=center;verticalAlign=middle;resizable=0;points=[];autosize=1;strokeColor=none;fontColor=#32639C;fontSize=8;rotation=-40;" vertex="1" parent="1">
          <mxGeometry x="330" y="-20" width="50" height="20" as="geometry" />
        </mxCell>
        <mxCell id="5EttTMxwSdxb7IPhr4SC-84" value="&lt;h1&gt;&lt;font color=&quot;#ea6b66&quot;&gt;Google Cloud App&lt;/font&gt;&lt;/h1&gt;&lt;p&gt;It is a serverless platform for hosting web applications. It provides the possibility to directly deploy your code to predefined containers for the runtime of your application. Use cases are in Web, Mobile, and IoT applications.&lt;/p&gt;&lt;p&gt;It relies on GCE to host your app, but you don&#39;t have to care about it. Still it should be kept in mind.&lt;/p&gt;&lt;p&gt;Is available in two different environments. The &lt;b&gt;default&lt;/b&gt;&amp;nbsp;and the &lt;b&gt;flexible&lt;/b&gt; environment.&lt;/p&gt;&lt;p&gt;The &lt;b&gt;default env.&lt;/b&gt; is running in a sandbox and does restrict the used programming languages strictly. But it does allow Google to quickly scale the application up and down the application to react to spikes of incoming requests.&lt;/p&gt;&lt;p&gt;The &lt;b&gt;flexible env.&lt;/b&gt; is able to run also code which is not in the default list of supported programming languages or dependents on native code. With this precondition, the flexible environment is only made for applications with normal fluctuations of traffic and can only scale up stepwise. In flexible env, your are able to request bigger underlying machines.&lt;/p&gt;&lt;p&gt;Background processes are only available in flexible environment, background threads on both, but with restrictions on default env.&lt;/p&gt;&lt;p&gt;&lt;br&gt;&lt;/p&gt;&lt;p&gt;&lt;br&gt;&lt;/p&gt;" style="text;html=1;strokeColor=none;fillColor=none;spacing=5;spacingTop=-20;whiteSpace=wrap;overflow=hidden;rounded=0;" parent="1" vertex="1">
          <mxGeometry x="820" y="320" width="320" height="420" as="geometry" />
        </mxCell>
        <mxCell id="HkbM3BWrgPiWBRJZKnyU-8" style="edgeStyle=orthogonalEdgeStyle;rounded=0;orthogonalLoop=1;jettySize=auto;html=1;exitX=0.5;exitY=1;exitDx=0;exitDy=0;fontSize=8;fontColor=#32639C;" edge="1" parent="1" source="5EttTMxwSdxb7IPhr4SC-84" target="5EttTMxwSdxb7IPhr4SC-84">
          <mxGeometry relative="1" as="geometry" />
        </mxCell>
        <mxCell id="HkbM3BWrgPiWBRJZKnyU-9" value="" style="rounded=0;whiteSpace=wrap;html=1;fontSize=12;fontColor=#32639C;" vertex="1" parent="1">
          <mxGeometry x="-660" y="320" width="340" height="150" as="geometry" />
        </mxCell>
        <mxCell id="HkbM3BWrgPiWBRJZKnyU-11" value="&lt;h1&gt;&lt;font color=&quot;#cc6600&quot;&gt;Google Cloud Functions&lt;/font&gt;&lt;/h1&gt;&lt;p&gt;Serverless Plattform for directly deploying your code as functions that can be executed by HTTP-Requests or Events.&lt;/p&gt;&lt;p&gt;Databases can be accessed via the Cloud SQL Auth Proxy, because the functions aren&#39;t running within the VPC network of your Cloud SQL databases or other databases.&lt;/p&gt;" style="text;html=1;strokeColor=none;fillColor=none;spacing=5;spacingTop=-20;whiteSpace=wrap;overflow=hidden;rounded=0;fontSize=12;" vertex="1" parent="1">
          <mxGeometry x="-660" y="320" width="340" height="140" as="geometry" />
        </mxCell>
        <mxCell id="HkbM3BWrgPiWBRJZKnyU-15" value="&lt;span style=&quot;color: rgb(0 , 0 , 0) ; font-family: &amp;#34;helvetica&amp;#34; ; text-align: left&quot;&gt;Connectable with databases like Cloud SQL. You only have to change IAM permissions of the Service-Account.&lt;/span&gt;" style="rounded=1;whiteSpace=wrap;html=1;fontSize=12;fontColor=#0099FF;" vertex="1" parent="1">
          <mxGeometry x="655.5" y="850" width="315" height="40" as="geometry" />
        </mxCell>
        <mxCell id="HkbM3BWrgPiWBRJZKnyU-23" value="" style="rounded=0;whiteSpace=wrap;html=1;fontSize=12;fontColor=#000000;" vertex="1" parent="1">
          <mxGeometry x="-730" y="-445" width="320" height="670" as="geometry" />
        </mxCell>
        <mxCell id="HkbM3BWrgPiWBRJZKnyU-25" style="edgeStyle=orthogonalEdgeStyle;rounded=0;orthogonalLoop=1;jettySize=auto;html=1;exitX=1;exitY=0.25;exitDx=0;exitDy=0;entryX=0;entryY=0.5;entryDx=0;entryDy=0;fontSize=12;fontColor=#000000;" edge="1" parent="1" source="HkbM3BWrgPiWBRJZKnyU-22" target="HkbM3BWrgPiWBRJZKnyU-24">
          <mxGeometry relative="1" as="geometry" />
        </mxCell>
        <mxCell id="HkbM3BWrgPiWBRJZKnyU-22" value="&lt;h1&gt;&lt;font&gt;Load-Balancing&lt;/font&gt;&lt;/h1&gt;&lt;p&gt;Splits user traffic to multiple instances serving the application. By splitting the traffic you can mitigate the risk of performance issues or failing requests.&lt;/p&gt;&lt;p style=&quot;box-sizing: inherit ; margin: 16px 0px ; padding: 0px ; line-height: inherit ; font-size: 12px&quot;&gt;&lt;font style=&quot;font-size: 12px&quot;&gt;&lt;b&gt;Features:&lt;/b&gt;&lt;/font&gt;&lt;/p&gt;&lt;ul style=&quot;box-sizing: inherit ; margin: 0px ; padding-left: 40px ; list-style-position: outside ; font-size: 12px&quot;&gt;&lt;li style=&quot;box-sizing: inherit ; margin: 12px 0px ; padding: 0px ; font-size: 12px&quot;&gt;&lt;font style=&quot;font-size: 12px&quot;&gt;Single IP address to serve as the frontend&lt;/font&gt;&lt;/li&gt;&lt;li style=&quot;box-sizing: inherit ; margin: 12px 0px ; padding: 0px ; font-size: 12px&quot;&gt;&lt;font style=&quot;font-size: 12px&quot;&gt;Automatic intelligent autoscaling of your backends&lt;/font&gt;&lt;/li&gt;&lt;li style=&quot;box-sizing: inherit ; margin: 12px 0px ; padding: 0px ; font-size: 12px&quot;&gt;&lt;font style=&quot;font-size: 12px&quot;&gt;External load balancing for when your users reach your applications from the internet&lt;/font&gt;&lt;/li&gt;&lt;li style=&quot;box-sizing: inherit ; margin: 12px 0px ; padding: 0px ; font-size: 12px&quot;&gt;&lt;font style=&quot;font-size: 12px&quot;&gt;Internal load balancing for when your clients are inside of Google Cloud&lt;/font&gt;&lt;/li&gt;&lt;li style=&quot;box-sizing: inherit ; margin: 12px 0px ; padding: 0px ; font-size: 12px&quot;&gt;&lt;font style=&quot;font-size: 12px&quot;&gt;Regional load balancing for when your applications are available in a single region&lt;/font&gt;&lt;/li&gt;&lt;li style=&quot;box-sizing: inherit ; margin: 12px 0px ; padding: 0px ; font-size: 12px&quot;&gt;&lt;font style=&quot;font-size: 12px&quot;&gt;Global load balancing for when your applications are available across the world&lt;/font&gt;&lt;/li&gt;&lt;li style=&quot;box-sizing: inherit ; margin: 12px 0px ; padding: 0px ; font-size: 12px&quot;&gt;&lt;font style=&quot;font-size: 12px&quot;&gt;Pass-through load balancing (see also&amp;nbsp;&lt;span style=&quot;box-sizing: inherit ; font-style: italic ; font-size: 12px&quot;&gt;direct server return (DSR)&lt;/span&gt;or&amp;nbsp;&lt;span style=&quot;box-sizing: inherit ; font-style: italic ; font-size: 12px&quot;&gt;direct routing&lt;/span&gt;)&lt;/font&gt;&lt;/li&gt;&lt;li style=&quot;box-sizing: inherit ; margin: 12px 0px ; padding: 0px ; font-size: 12px&quot;&gt;&lt;font style=&quot;font-size: 12px&quot;&gt;Proxy-based load balancing (as an alternative to pass-through)&lt;/font&gt;&lt;/li&gt;&lt;li style=&quot;box-sizing: inherit ; margin: 12px 0px ; padding: 0px ; font-size: 12px&quot;&gt;&lt;font style=&quot;font-size: 12px&quot;&gt;Layer 4-based load balancing to direct traffic based on data from network and transport layer protocols, such as IP address and TCP or UDP port&lt;/font&gt;&lt;/li&gt;&lt;li style=&quot;box-sizing: inherit ; margin: 12px 0px ; padding: 0px ; font-size: 12px&quot;&gt;&lt;font style=&quot;font-size: 12px&quot;&gt;Layer 7-based load balancing to add content-based routing decisions based on attributes, such as the HTTP header and the uniform resource identifier&lt;/font&gt;&lt;/li&gt;&lt;li style=&quot;box-sizing: inherit ; margin: 12px 0px ; padding: 0px ; font-size: 12px&quot;&gt;&lt;font style=&quot;font-size: 12px&quot;&gt;Integration with Cloud CDN&amp;nbsp;for cached content delivery&lt;/font&gt;&lt;/li&gt;&lt;/ul&gt;&lt;div&gt;Cloud Load Balancing is completely managed and software-based. It can serve up to 1 mio. requests per second.&lt;/div&gt;" style="text;html=1;strokeColor=none;fillColor=none;spacing=5;spacingTop=-20;whiteSpace=wrap;overflow=hidden;rounded=0;fontSize=12;" vertex="1" parent="1">
          <mxGeometry x="-730" y="-445" width="320" height="660" as="geometry" />
        </mxCell>
        <UserObject label="" link="https://cloud.google.com/load-balancing/docs/load-balancing-overview#types-of-cloud-load-balancing" id="HkbM3BWrgPiWBRJZKnyU-24">
          <mxCell style="shape=image;verticalLabelPosition=bottom;labelBackgroundColor=#ffffff;verticalAlign=top;aspect=fixed;imageAspect=0;image=data:image/png,iVBORw0KGgoAAAANSUhEUgAAAi4AAAGiCAYAAADA0E3hAAAK0GlDQ1BJQ0MgUHJvZmlsZQAASImVlwdUU+kSgP9700NCS0A6oTdBOgGkhB56b6ISkkBCCSEFETuyuIJrQUUElQVcBVFwdQVkLYgFC4tiwe4GWRTUp1iwofIu8Ai7+85777w5Z+58dzL//DM39z9nLgBkP5ZQmA0rA5AjkIiiA31oiUnJNNwQwAACUAHOQJvFFgsZkZGhAJEZ+1d53w+gSXvDejLXv//+X0WVwxWzAYBSEE7jiNk5CHciOswWiiQAoBoQv9ESiXCSexCmipACEZZNcsY0v5vktClG46diYqN9EdYBAE9isUQZAJDMET8tn52B5CEFIWwr4PAFCBcg7MnmsTgItyM8Nycnd5L/QNgciRcCQCYhTE/7U86Mv+RPk+dnsTLkPN3XlOD9+GJhNmvp//lo/rfkZEtn9jBFlMQTBUUjFvk3oTtZuSFyFqSFR8wwnzMVP8U8aVDcDLPFvskzzGH5hcjXZoeHznA6P4ApzyNhxs4wV+wfM8Oi3Gj5XukiX8YMs0Sz+0qz4uR+Hpcpz1/Ii02Y4Xx+fPgMi7NiQmZjfOV+kTRaXj9XEOgzu2+AvPcc8Z/65TPlayW82CB576zZ+rkCxmxOcaK8Ng7Xz382Jk4eL5T4yPcSZkfK47nZgXK/OD9GvlaCvJyzayPlzzCTFRw5w8Af+AEHYI9oFIgD0RJugWSyCd9c4VIRP4MnoTGQk8alMQVsm7k0e1t7OwAmz+30q/D26tR5hDTSZn1FrwDwsEWcg7O+GF0AWp4jR3DPrI92GbkfAuDUQbZUlD/tQ09eMIAIlAAVaAI9YATMgTVSnTNwB95IrcEgAsSCJLAIsAEP5AARWAKWgzWgBJSBzWA7qAI1oB40gEPgCGgDJ8AZcAFcAdfALXAfyMAQeA5GwXswDkEQDiJDFEgT0odMICvIHqJDnpA/FApFQ0lQKpQBCSAptBxaC5VB5VAVVAs1Qj9Dx6Ez0CWoD7oLDUAj0BvoM4yCSTAV1oVN4XkwHWbAIXAsvBDOgPPgQrgY3ghXwnXwQbgVPgNfgW/BMvg5PIYCKAWUOsoAZY2io3xREahkVDpKhFqJKkVVoOpQzagOVDfqBkqGeoH6hMaiKWga2hrtjg5Cx6HZ6Dz0SvQGdBW6Ad2KPoe+gR5Aj6K/YcgYHYwVxg3DxCRiMjBLMCWYCsw+zDHMecwtzBDmPRaLVceaYV2wQdgkbCZ2GXYDdje2BduJ7cMOYsdwOJwmzgrngYvAsXASXAluJ+4g7jTuOm4I9xGvgNfH2+MD8Ml4Ab4IX4E/gD+Fv45/ih8nKBNMCG6ECAKHsJSwibCX0EG4ShgijBNViGZED2IsMZO4hlhJbCaeJz4gvlVQUDBUcFWIUuArrFaoVDiscFFhQOETSZVkSfIlpZCkpI2k/aRO0l3SWzKZbEr2JieTJeSN5EbyWfIj8kdFiqKNIlORo7hKsVqxVfG64kslgpKJEkNpkVKhUoXSUaWrSi+UCcqmyr7KLOWVytXKx5VvK4+pUFTsVCJUclQ2qBxQuaQyrIpTNVX1V+WoFqvWq55VHaSgKEYUXwqbspayl3KeMkTFUs2oTGomtYx6iNpLHVVTVXNUi1crUKtWO6kmU0epm6oz1bPVN6kfUe9X/zxHdw5jDnfO+jnNc67P+aChreGtwdUo1WjRuKXxWZOm6a+ZpblFs03zoRZay1IrSmuJ1h6t81ovtKna7tps7VLtI9r3dGAdS51onWU69To9OmO6erqBukLdnbpndV/oqet562XqbdM7pTeiT9H31Ofrb9M/rf+MpkZj0LJplbRztFEDHYMgA6lBrUGvwbihmWGcYZFhi+FDI6IR3SjdaJtRl9Gosb5xmPFy4ybjeyYEE7oJz2SHSbfJB1Mz0wTTdaZtpsNmGmZMs0KzJrMH5mRzL/M88zrzmxZYC7pFlsVui2uWsKWTJc+y2vKqFWzlbMW32m3VNxcz13WuYG7d3NvWJGuGdb51k/WAjbpNqE2RTZvNy3nG85LnbZnXPe+brZNttu1e2/t2qnbBdkV2HXZv7C3t2fbV9jcdyA4BDqsc2h1eO1o5ch33ON5xojiFOa1z6nL66uziLHJudh5xMXZJddnlcptOpUfSN9AvumJcfVxXuZ5w/eTm7CZxO+L2yt3aPcv9gPvwfLP53Pl75w96GHqwPGo9ZJ40z1TPHz1lXgZeLK86r8feRt4c733eTxkWjEzGQcZLH1sfkc8xnw++br4rfDv9UH6BfqV+vf6q/nH+Vf6PAgwDMgKaAkYDnQKXBXYGYYJCgrYE3WbqMtnMRuZosEvwiuBzIaSQmJCqkMehlqGi0I4wOCw4bGvYg3CTcEF4WwSIYEZsjXgYaRaZF/lrFDYqMqo66km0XfTy6O4YSszimAMx72N9YjfF3o8zj5PGdcUrxafEN8Z/SPBLKE+QJc5LXJF4JUkriZ/UnoxLjk/elzy2wH/B9gVDKU4pJSn9C80WFiy8tEhrUfaik4uVFrMWH03FpCakHkj9wopg1bHG0phpu9JG2b7sHeznHG/ONs4I14Nbzn2a7pFenj6c4ZGxNWOE58Wr4L3g+/Kr+K8zgzJrMj9kRWTtz5rITshuycHnpOYcF6gKsgTncvVyC3L7hFbCEqEszy1ve96oKES0TwyJF4rbJVRkQOqRmku/kw7ke+ZX539cEr/kaIFKgaCgZ6nl0vVLnxYGFP60DL2MvaxrucHyNcsHVjBW1K6EVqat7FpltKp41dDqwNUNa4hrstb8VmRbVF70bm3C2o5i3eLVxYPfBX7XVKJYIiq5vc59Xc336O/53/eud1i/c/23Uk7p5TLbsoqyLxvYGy7/YPdD5Q8TG9M39m5y3rRnM3azYHP/Fq8tDeUq5YXlg1vDtrZuo20r3fZu++LtlyocK2p2EHdId8gqQyvbdxrv3LzzSxWv6la1T3XLLp1d63d92M3ZfX2P957mGt2asprPP/J/vFMbWNtaZ1pXUY+tz69/sjd+b/dP9J8a92ntK9v3db9gv6whuuFco0tj4wGdA5ua4CZp08jBlIPXDvkdam+2bq5tUW8pOwwOSw8/+zn15/4jIUe6jtKPNv9i8suuY5Rjpa1Q69LW0TZem6w9qb3vePDxrg73jmO/2vy6/4TBieqTaic3nSKeKj41cbrw9FinsPPFmYwzg12Lu+6fTTx781zUud7zIecvXgi4cLab0X36osfFE5fcLh2/TL/cdsX5SmuPU8+x35x+O9br3Nt61eVq+zXXax198/tOXfe6fuaG340LN5k3r9wKv9XXH9d/53bKbdkdzp3hu9l3X9/Lvzd+f/UDzIPSh8oPKx7pPKr73eL3Fpmz7OSA30DP45jH9wfZg8//EP/xZaj4CflJxVP9p43D9sMnRgJGrj1b8GzoufD5+IuSf6j8Y9dL85e/vPJ+1TOaODr0WvR64s2Gt5pv979zfNc1Fjn26H3O+/EPpR81PzZ8on/q/pzw+en4ki+4L5VfLb52fAv59mAiZ2JCyBKxpkYBFKJwejoAb/Yjc3ESAJRrABAXTM/VUwJNfwtMEfhPPD17T4kzAE2rAYhENBDR+k4ADBGrgtjJcQgZj2AHB7n+S8TpDvbTuUhayGjSOTHxZgIAXCoAX3snJsYrJya+Vkx/F5wOn57np+YYZALFrpik/k+V4O8yPev/qce/26lKHMHf7T8BaHEZOqKK7pEAAABWZVhJZk1NACoAAAAIAAGHaQAEAAAAAQAAABoAAAAAAAOShgAHAAAAEgAAAESgAgAEAAAAAQAAAi6gAwAEAAAAAQAAAaIAAAAAQVNDSUkAAABTY3JlZW5zaG90dLXmWwAAAdZpVFh0WE1MOmNvbS5hZG9iZS54bXAAAAAAADx4OnhtcG1ldGEgeG1sbnM6eD0iYWRvYmU6bnM6bWV0YS8iIHg6eG1wdGs9IlhNUCBDb3JlIDYuMC4wIj4KICAgPHJkZjpSREYgeG1sbnM6cmRmPSJodHRwOi8vd3d3LnczLm9yZy8xOTk5LzAyLzIyLXJkZi1zeW50YXgtbnMjIj4KICAgICAgPHJkZjpEZXNjcmlwdGlvbiByZGY6YWJvdXQ9IiIKICAgICAgICAgICAgeG1sbnM6ZXhpZj0iaHR0cDovL25zLmFkb2JlLmNvbS9leGlmLzEuMC8iPgogICAgICAgICA8ZXhpZjpQaXhlbFlEaW1lbnNpb24+NDE4PC9leGlmOlBpeGVsWURpbWVuc2lvbj4KICAgICAgICAgPGV4aWY6UGl4ZWxYRGltZW5zaW9uPjU1ODwvZXhpZjpQaXhlbFhEaW1lbnNpb24+CiAgICAgICAgIDxleGlmOlVzZXJDb21tZW50PlNjcmVlbnNob3Q8L2V4aWY6VXNlckNvbW1lbnQ+CiAgICAgIDwvcmRmOkRlc2NyaXB0aW9uPgogICA8L3JkZjpSREY+CjwveDp4bXBtZXRhPgrEEQLxAABAAElEQVR4AexdBXxUxxMetFhxCEWDF3d3d4pTCNAiRYuU9t+WQvEq7hBcikPx4lrcXYpLC1TQ4pD/fBPe9e44TS7JXTLDj9yTfbv7vrdv3+zM7LfRglhIRRFQBBQBRUARUAQUAR9AILoP1FGrqAgoAoqAIqAIKAKKgCAQ8/yFKwqFIqAIKAKKgCKgCCgCXo9AlswZKGbChG97fUW1goqAIqAIKAKKgCKgCAABdRVpO1AEFAFFQBFQBBQBn0FAFRefeVRaUUVAEVAEFAFFQBFQxUXbgCKgCCgCioAioAj4DAKquPjMo9KKKgKKgCKgCCgCioAqLtoGFAFFQBFQBBQBRcBnEFDFxWcelVZUEVAEFAFFQBFQBFRx0TagCCgCioAioAgoAj6DgCouPvOotKKKgCKgCCgCioAioIqLtgFFQBFQBBQBRUAR8BkEVHHxmUelFVUEFAFFQBFQBBQBVVy0DSgCioAioAgoAoqAzyAQ6RSXFy9e0OQpk2n79u0+8xC0ooqAIqAIKAKKQEgQ2LJ1q3zzXr16FZLLffIalxSXJk0a04cffODSDb58+ZLOnj1Lt2/dcim9pxNBcZkyeQpt37bN01lrfoqAIuBDCFSsWJHKly/3+n95atSoEX3zzTf0559/+dBdaFV9DYEd23dIm1uxYkW4VH3rlq3yzVPFxQrux0+e0uOnT6yO2t59/PgxtWrViqZOn247gR5VBBQBRSAcEHjy5AklT56COnboRB06dKCsWbLQml9+oc6dO9Hjx671Z+FQTS0ikiHw4tVLaV8YRKuEDQIx3c329JkzdI7/V6xUibZt284P6BFVqVKZEidOQrdv36Ytm7dIlpcvXaK1a9dS9erVZf/ff/+lffv305UrVyhXrpxUpHAROQ7rzJnTp6lI0aK0lU1eRYoUoRdstbFXhlHf69ev0/59++ll0EsqW6YspUyZ0jilv4qAIqAICAJ+fn70frP3ZbtZs2Y0fMRwWjB/Ae3bt5dSpUr1Rt+TNWtWevDgAR04eJCuXL5MWbNlpVIlS8n1f/31N+38dQdlzJyJ8ubJK8c2bthAT54+o8yZMtK5c+eoBKdNmTKFnIO7+u69e1S3Th3ZN/8Dy/SJE8fp6NFjlCRpUqpQvjwlSJBAktjqE1EvlciDgL02Ztyhs+8brDrnL5znb2ku45Io9eu24rJjx3aaOmUqzZo1mx4/eUz//PMPjRw5kpYuWUI3b9+iJUsXC4AXL16kZcuWieKCNO3ataM//viDEiVKRHfu3KGAgBbUrVtX2rVzF02cNJGSJUtGf//9N/X+6ivJx14ZftzZQMH5+uuvOa+EFC16DBry4xDq27cv1apVK0o9PL1ZRUARcA+BDBkyyAX3WKG4eOHiG30P+qe23FfB1Y1tpCtTtgz9+MOPlCRJYu7flsoAbQn3dydPnqTeffpQy5Ytyc8vJX373Xds3elIrdu0pmfPnkkflSd3njcUl6CgIOrXvz9tWL+ey0jMZdylwEmTaPz48ZQuXTqbfaIqLu49Z29OjQG+vTYWPXp0p9+3UaNG0dy5cylu3LiEthQjRgxvvt0wqZtLMS62Sm7RogWtWbOGhg0fRjCJbd+xg/LlzUfTpgW7iGCRmThxolz6ww8/8Mv+Jy1YsIBWr15NtWvXovnz59Hvv/9uyrpsubKi6FStVs10zFYZOHn4yGEqWbIkLV++glYsX05ZsmTlBznPdJ1uKAKKgCIABJ4/fyEDJQyeft25kxYuXCgdvWExQRrzvgcxMHd5YDVjxgzp3+D2xuh2zZpf5LpeX34pysyUKVPEevPOO+/IoKxgwYIy+Nq2bSuyFOsyXFVVq1aRffM/K1etEqWl/Uft6Zdf1lBg4CT6hwdtI4aPME9mUS+LE7rj0wg4amO4MUffN1jqEDtTuHBh/v4tF6+Gn18qn8YjJJV32+JiFFKwUCHZzJ8vv/zCTGpPDh0+RGnTpaEjR47I/3jx4pME8Zpd06RxY0InYC72yvikxydizoW15sy5M4SgpIsXL0ie5tfrtiKgCERtBI4ePWJyVwMJuGO+ZOXDP6M/UbBXm4y+B33S0aNHKXfu3JQjRw4kpyZNmrJ1eZa4ljDgypEzJzVs0EBGvDg/bPhwihMnDjapMrvM4YaCtWbnr79SzJgxqXyFCnLO/M/hQ4dkt0HDBqIM5eM+NGfOXOyeOmDRhxn1Mr9Wt30bAVfamKPv27Fjx+jhw4dUuVJlsQgCjWzZssn3z7eRca/2IVZcjGJg2nIk9+/fp/v37hMFEc0zs4pkypiJXroYvGRdxrSp02T6V758+YI7GDaXqSgCioAiYI0ArLGdOnagaNGiUVKOJfHPmFFM7NbpsP/gwX2O2XtM6dKnN51OmjQJxY4dmx4+eGg6hni8RYsXcz5xKC+7ggypUa26KC7bOLblV1ZcihUvTgkTJjROm35v3rxJb7/9NruekpiOpXonFR3nmJdnz56bjulG5EPAlTbm6Pt2gQfokLTp00Y+cNy4o1ArLs7KwouL//AXz503VzoQXAPNE7656a9dS87yMc7DujJr9iyC79hwRSE25uKli0YS/VUEFAFFQBBInDgRlS5TxiU0MMEgfvz4dJwDZg05e+asxKtkz5FdDiF2ZfSo0ZQ2TVqJxRszdgz17t1bzsEakzZtWpo9Z47EwXTp0sXIxuIXaQ6x1eXSxUuUkYN6IUd5JJ0hQ3pRhiwS606kQsBZG3P2fXvntVvo5MlTpgkuQUFRh7/FaAweV1zw4mMkcYoD1/Yf2C/gNqhfn2bMnEmDBg0Ssy3cSj///DPHw0wz6uHyL6wv/v7+dP3GdfqV42oQELyVg3Uhjx49olixYsm2/lEEFAFFwF0EGjZsKK4hxOVhhuPMmTPEFVSJOWEgU6dOlb5n7LixtHfPXprDSgomBeTPH+wyr1a9mkxeeOutt6hcuXI2i2/ArqaVK1fS4G8GUwDHCu5i68wttsJ06tzZZno96JsIwK0Ti611hsTmb1M1juF01Macfd8Kc5uE5XDB/PlstUtA0fjfli2vfZ5GQVHg1+OKC0yy7/O0w+mslHzx+Re0efNmavdRO3rObqHFbF5FcC5mEH344YcmH527OHfr2o1Gjx5Fn372GU9pfIcKFypMO3ftpEuXL1G2rNnczc4n0z99+pSe8KwuzEoIa1m3bh39wR2rqySEYV0fb8oflkNE9iOeIbILGDrPn/+N2rZpS9bu28hy7x999BE95gHQsuUraCnPIIJL+zueLQSXEywkUFTK89Rl0Dnk4rgUTFD4/ofvac7sOdIGqlWtLopL6dKl7bqkED8zmAdxiI9BsC8GeggCjirv1/Hjx+W7AByqVq0quGLw+fvNPyhNmjRUs0ZN05RyX25XvzBnEP4bkpBnwUJxcdTGkNbR9w1B5d9++y316dNbZrqlTp1a2iK+f1FJot26/XeYBIgYBE/wAxsCM9j9+/eE88U4FppfxM6gMXijDBo0kDZt2vS6atE4gCo7lSpdkirxbCuYmUMrPT/9lI4cPkwbmEcirKfD9fykJyHA2rBshbbukeH6QwcP0arVqziWYadwGWXPnl0U6RzvvuuVtwcF6/z585QkcWJKydwmIZF+/frzLIZfaCfPzonsihrwAveUrRgVR9idPnWKPmzdmpWZH4SbxVFanMNU6IQJE5lc6M7Sh9d58NPAImRPmjVvTh3ad7B32u7xFWxp+mbwYBlwgpEds2M6duwosUXg1cFU4bFjxxJmaUV2cdbGnH3f7t6947FvqS9hnTJFUgqzYaK5wmKAglEafHyeEm9VWnB/TznIDsobXkrMOjjDvnIEXSFAGVPBQ4tDi+YBVJ5N0WGttHjqWUWmfGB16Nq9G6VJjamwbXnK7XMZnXdkdtbZs2dTerPgTm+5b4PRuh67bTHKV3GMAN4rd5WWn36aI1NUEbdSplQwaZ3jUihcLKbO6mDrfBa2XINxGHLpymVaxq59WJoK5C8gx3LkDJmCDsU3efJkHCqwVKx2o0ePERc/wgZApgZLcmRXigVA/uOsjTn7voX2G2LUwxd/w0xx8UUwwqLO8GcjMBkyYYIfzWB+iAP7D/DUyWB+B3DZ7Nq9i169fEUlS5W0sMZcvnyFR7c72OQcj8qWLSesnXmZKwcd49NnT/nFtyQeAtvivn376BkzeRYtXlTM3CgXM7u2sMsuH3c6f/51m06fOk3FecYDptEZgg8bpnD+ziSBcL3lyJnD5VGgIxbIzex/jRUjpnRWe/bupRYtAjgOKbZRrE/+7uX7eMHKCng4jOeYgeOu+nCQJqboJ2b33ZYtm2XqrIHxrl27hE8E8RAGMyqCRrds3SLPqwxvg3wM4uw80mC05irzaubMmenypcu4jH9dY7SWxPwnqjN0Gji48jtz5mzKxO9mD6ZriMnxDL4s/v4ZOJYwg9zC7t27RXEpWLAQNW3axHRb9t5tW6yvsLavZP4RBDsnZqsftiFgMI7JSuL5336jeNzPPXv+TNiMK3BMkaE4grH4VyY+RbgB1p9CqIFK1EZAFZdwfP6GAhObA/cgCC7+/IsvKF68eDLSGDdunJBQFSxUUGYd9OjRQ44jGGvSpECCafB/n/9PFJdFCxeJ+wbcEpCNGzcKU+dbb8Xmj9orGjNmNH3BI+u6devSX3/9KayecFHdZdM0CANRVs+en0pHhI6hU6eOdIv5J9KlSy/nSvOIET54Z+KMBRIMyLc5gBrWp+fcKTVmvh5fV1wwpRYCs3de5uAAxTvwMlxpv3EnDBZVBFsaigvIF0+cOCGBnAZbdBImaERMGMjRAgMDOfBzCmXOnMXEnGrvvLvMq61ateTlObZJnV1ltEZiZegUyFz+s379OpfTRoaEtt7tnay422I1R2zHvAXz6QkPkP7i/gfbkFs3b9FLVmqwH4eZYG9cv0GTAidRnnx5RXGB661bj+4yHR0utREjRtDHH39MzdlVpRJ1EXBMwhJ1cfHYnZ/mdZgQjLZgwUImrfpJ+BswWwH+c9CF58ufj2cYrJKgZczIGjNujJSNaZb4QIGhEwFesFTYE/jJQSGeN29eMVX//PMyyvZudho2bJgoO8Z1adOlpfVMM7527TpxVcEqAMHI3S+lH03iDynM3fBd72QLASw+zsQZCySuf8SdVd++X/M9rpHpps7y9PbzJUuUpKbvNyVYXurXe0+mw4Jc0V3pzNNl8WzRGcPitYmtYuZi77y7zKtt27Zzm9EaFh1l6DR/GrptCwHrd9se6yvcP/Pnzed1mZJQ9uzvyjb2CxUuJDNBsQ3lxlqGDB0q1mgo/mvWrJY18uCOhcVTJeoioIpLGD/77t27CyX4cF4aIXbst3ha+AyZbXDq9CmeFfSE3uFZURs2rJfROiLEz509J7wRMKnmZF6IPHmCCa7A5mlPThw/IS8y3BaYZQQfcnWe3YD8jx07broMLMfwqyL+6F1WbAy2Y/iuR/EsLSxuiU4Bi3dBaTp79ozpWlsb+LiZM42icwLTKAQmYEPSpkktswdQL1gYfF1wDwhYhiJamy1aIBvD6sPg8wAmrkpuXmwUguUrYJbfs3uPxaX2zrvLvGowu1pkzjvmjNaY7WfOaG3N0Il1UQzrkXU+uh91EbB+t8H62ocHZLAqTmELIlxEiAlz570w0ARnDgZ++XiqOeLG0Hf1/OQTnpE1mF1KqrgYOEXFX3UVhfFTnzxlMr0d/236mi0OWGQyYYLgWVA3rl2Xkg/y7BTEnBiSnl01cB3gRU//OubBOGfv93eeqgzJYBYU6pcqeOYI4k9sibkCgc4B5le4ssAKGsSdjSviCgukK/n4WhoodRC4dRDo2oVdQkN5ZIhp48VLlKB3eYaRu5IiRUo6e+6s3cvMz3uCedUZo7UydNp9FHrCAQKOWF8dXGbzFPouKD6pzZaCgdsc/1WiNgKquITx88+QPoMoBJhxAt6Z6TOmE6wwaZg9E1K9WlUL4ikoLBhZCIPnyROm2hkfS9MBs410r/M6xoyfRVnxgBiWlhw5nEf/L1q0SFxX8+bN43iNlLSdKcsReOdMnLFAOrveV89/1asXbeWYEawQDCsZgggb8rozUFwuXrhAhV5P5Xz08F/TLdp6fsYxdM6n2Jdf7PWzMy6yd94TzKuoM/5DWbXFaI1AbUhUZ+g0noX+OkcA7diTrOZQUGAtRGyYIYgf279/P8eK1RTrsnFcf6MWAqq4hNPzxgwSuHsWLVpM7zdtytMK80uQ7WL++MXnhd9AxrScI+1jsbulX79+rNBUpyVLl0iQZ1kms5rFBFf2BFwIoAvH+imYQofg25UrV0ie/v4ZOVblkr1L5XhGDjbFR3Lt2rWUOVMmCQTGCQTSORNHLJDOrvXV8zVr1hLFpW/fvlSndm2Ky8HVixcvkdsBgyqUGZi2weOTK3cuwiyLgwcPmhbjM+57AscUNWncRGJ/EPNUgl1G5mLvfEiYV91ltFaGTvMnoduuIOCM9RXrM7kjsArXqVNHqAbGjxsvbvPxEybw7Lx/eFJBsEvanfw0beRBQGNcwvFZduSZO5hZM4lnkGC6JNwL2TnWZAK/jN26dZOpqs2YdRjSqXMniX1YwUuXjxw1imf7pJHj5i4eOcB/EFsybNhwTpOWhvNMIOQHRQhBn64wnNarV084GgIDJ/NMpF6U87WV5sKli0YRdn/BAtm4USMJMO7FlohnT5+bmEbtXuTjJ8qULSOBz5gp9cOPP9LAgYMIs7l6f/WVieYdMS8xY8Wgzz//nFatWs0BiW+6j1IkTyEsmOvWrZXrqlSpaoGMvfMG8yqm0sNV9SsTwjljXkW7AaP11atXhdEaBYHROiAgQGakde3aVVY8xgcBVhhQ1oOhM3r0aMLQidgnsMWqKAKOEADra8oUKcS6PHvWHKFWQHqwmodEsN4TgnZ/4niyz/73mcTIjeWJC7BKe6scZmJQhAjcuXMnRFWE5RZL5KjYRyDMmHPtF6lnrBFAEC1cRBgVG4L9hw8f8AsaU47PmD6DJk6aSMNHDKdSJUsZyd74xXpNUGSwoq27gpktsPiEhIMC9Q0J06i7dfS29CDMgrXKXgCsLfZLLCyKZzmPFx2FRQy4mz97Z+fNMXCXeTUkjNZRlaHTHGfddg8BW+3evRwsU2MWEWYwGdwulme9a8/8/c2UKbPblVOmcseQhSlzruOi9aw5ArY+evN5ES38r1O3Dt27c4/W8qgcsQ2FmATKkYATJqSCmSMhFYyAfKFTCen92bsOlglH4oz9EhYxc6XFOi9n591dqyokjNZRmaHT+nnovmsIOGv3ruXyXyoMphL6OKnff3ejW6FFwOUYF3usrAbLJ2ajgIALHCVZs2YNbb2i/PVYxwNR9bt27aZH/z4UVwICfG0pOVEeLB8DIFHiRGxpyWCXiM/ZeR+73Qip7sOHD2kTkzLmYwoAUNaDMRiU8kbwOirljC0apv4dHKiOFX5h5TT/GMPlu58ZsK9cuUIlipcg/4z+yFJFETAhgP578ZLF9PTJUwIztvlSIM7anikT3nCUFnF0cZjeIkOGDMJyjfi6UkyGCau7IadOngqmPuCBb6lSJS36HVjJ93GwM9pxLqZnMNzBxvuDGL3z5y9IVtWrVzeyjPBfl1xF1qysr9gtYLCyGmYx0DD//fff4uev+957EX5jWgFFQBGIuggglgcszVh5GW5MuBngbkAsT4sWLZhN2pItGlwj5mzR+OAMGzqMPzbpeC2dx9K3ffmaiRp5t2vXTsD14wUrwYdUigPoh3HMmq0YtKj7FKLmnRvfRAQjQ4GAAgxr9uTJk2VQ76ztmbuKnKUFEea9u/dkQoZRFpT1QGYfhiBWZiLHPCbgCSBPWIGKE+ctmsyxjFg2BrQbaMeg6UBcG+oZENCC4y27Siwc3h/ju16sWDEaPXq0VzxQuIqcBue6yspatlxZWrZsGVW1wX7oFXerlVAEFIEoh0AuJnFEsOOSxYtk7S7MtoM4Y4sGRQBcs2C8Rr8GVupdHAQNWcfU/vfu3ZOlMRC0/FG7j+iP3/8g8OuoKAIGAh991F5magZODhQyUFhHIM7annG9q2kxixTEpmDhxizHY8eOiqJ948YNmjxpElsLS/LkiZU8e3GVTNaYv3CBFPEDr2B++/af3MYXCHM7lo/BAsAI+jcEVsaZM2fR4MGDjUNe8etUcXGVlbUJa2fvMFGQujK84rlqJRQBRYARwNIXiBNKxQzV5SuWl2UsbvOaXOXLO2aLzs1uJbjHsaQFeEPGjh1L33NHD8mRI5jx+McffiTM+mvMbl0EWqP/a8/LZYBjBP+/4llmKlEXgSJFguMR8+XlhXEzZqI9e/YIGM7anjlirqRNycu1YB06WPvy5ssnkwXOnz8vS82ADR2M6rD4wKoyYcJ4UW5QhiPmbKMOFSpUEJZ1b4tf/M8RZtTU6jckrKxWWeiuIqAIKAIRjoAfsxNDrly7Sn+zmdwRW3SvXl/JgqPr12+QNZvQ6ffv318oCgyX0mK2yvwwZAhh5Nq4SRMhlnzvvbr04H4wW3XK1+zVEX7jWoEIRyA1L3tiLNXhDlO5O2lxk9GiB9siMNMR7NiQVKlSyS/+gO0b4ow5WxJ58R+nioszVtbbt2578e1p1RQBRUARCEYADKygCciTOw/9yPw7CEy0xRaNNXKw/lSZMqXpww8/FCvNxx93Fo4krCt18MBBHt0SjRw5Uj4AP7Lygnxq1oSlJXi1dsVcEXjx4r91y05y2ytYqKCA4g5TuTtprRFPnSaY+wvtvkCBAnIa7irEe8Gl5Ig5G3Fc3ixOFRdnrKzbaLs335/WTRFQBKIwAqtWrKQc7+aga2xl2czLWKADhzvbEVs0lBuQPsZiDiUsnBkjZnQLrp6du3byKuo/EZZ+wKyLlxxjAFE3eRRuaDZuHQSgAc2b07bt2yXwtQSvYwZx1Pass3EnrfW1RXmGL1ykYFRPkiQpL977VIgzazMbMRSXBvXrS/DuoEGDCDOGEGT+888/80ry06yz8rp9p4oLIpXByjpgwAAZccTiufR4+bEP37GK+wggmAprFmXPlp3Kli3rNAMwMR44eIAaNWwksyScXmCWwN2yzC7VzUiAwJEjR2j/gf3UsEHDEC1OB4K9J08e++y6MBl5CYv5C+aLlQRTReEegoAtGiNRsEVDalSvJqsYG2zRI0eOoAH9+1OXj7sIK3LBQoUJdAQQsCLfvXuXySBHEPB59913ZTal+XRXSah/ojQCmTNnltm3mNWGWWc1qtcQPJy1PXPQ3Elrfh22oYAPHTqEmb0H0qBBA2UadMWKFemTHj0kKZizn/O3aDErNlgdHjOIYGGEWxTB594sLk2HNm4gNKysRh76y2sAMVNuuXLlROvt8/XXTiExptchANBdJkZ3y3JaGU0QagQQ9AllIEuWsOc7mjFjhiwB8dNPc5yWhw4WQX1JEiemlDzNF9Lz00/pCCvOGzZs8GqadeuHYkyHbtO2DXXggFlwathaKwccGY7YonE+ZswYFtwXRlkyzZqZqm3la6Tx5V98vDBTKh2vUh8aYktfxiC0dQffz9Onz2Q6snVeztqeeXp30ppfZ2yj/WMqdKxYbzKqY3HM+/fvka8QTbo0Hdq4cfyi8UKLU1EEFIGQI4Bgzk6dOoc8gzC6Ep0j1jyaOn26qYQWzQOoB4/QvHltGFNlHWzYUy4w28LREhc4b6uzR1HAxF6+DqriM6e2smsN7eHkyZM+U2dvqyjaDjhUbImztmd+jTtpza8zttFO7bVjeE58RWkx7sepq8hIqL/uI3D58hXauXMHT0WLxy6hcrTz1x3MB5GP3kn9zhuZYfSG+f1Hjx6jJLyce4Xy5d9o8J5iYnyjcD3gFgKnz5yhc/y/YqVKtG3bdma2fERVqlS2ePntMVLCJHv7z9vsb35Gy5kfxJ+nSV7mxSzLsgUOZGl4xps5gK58hfLinsGoFx8QtBuQRkHssVjbYru0vrGLXNZxbmOZ2IydJ08e0+nbt2/Tls1bZB8ss1gpHH7vp+wXjx49hikdRmcnTp4guC9T8iwdmJ6NZQ8QQ4K4kOTJk9GevXuZ6C1AOktHDLSmjD28AZc22ImTJE7i4ZyjRnZ4vofZzQjZyfw1b/FoHRMx0G4RhAzBulfrZSmSdLJYrDOmYkdtRzLUP4qAiwio4uIiUO4mO3TokIxU4QNPyorIpEmB7Be/Q//7/H9UO3Vti+wwda0f+9M3rF//+mN1lwKZOGj8+PFipjUSf/rpZyYmRrAw2mNiHDdunAULqHG9/noGgR07ttPUKVNp1qzZ9JhdPmCgxAyTpUuWkB9PPXTESAlG1ltsfscHYB7HXnz4QWv69rvvhIMBjNNQhLD/4tVLiUvZywoA9kFiBbFmsR4zZrSJxRrlIq0522XBgsEzGXDt9RvXqTNberA20tSpU3DIJH/c/IOWLF0s+xcvXhTSNSguixYuEr4HkFNBvvlmsKx2bZQxa+YsmsYWGqyBBExu374lHzSYyMG8uXzFCgsGWgQCGgy0kmEY/QGnCsjjVEKGwL79+5i/Zp9cvGXLVkrMSjWIyaBs58qVmynm09PuPbulvX35xZeUIiWvdM5tzx5TMTJy1HZCVku9KqoioNG1YfTkx/DS61BIpkyZIoyGGH3ak5WrVonS0v6j9px2jdA1/8PLJ4wYPsLiko/4PEbCoWFitMhQd0KFAKjj16xZQ8OGDxPK7e07dkh+jhgpEa+UJ09esabNnzefqlWrKpaaI0ePyrW/slIE2bE9OK9jfByKRm7+WLjKYm2L7fIOB5N279Zd8h41epSFdQgHQZI1jesGgSVp4sSJsm3+Zz0r1qtWrRZKcLlvpriHBWfp0iWmZJhq2bfv1xzst0bqjemc9hhoTRfphtchgLgg9EeQPn16s4L9AVV/zYq+ffs2Of4rt/eY7C6rWKmi7OOPPaZiV9qOKRPdUAScIKCKixOAQnIaM3nOnjlLOZlu3DDH586d225WBjFRg4YNxG+OtSZy5swlM4ngQjKkSJHQMzEaeelv6BEoWCj4eeTn5wXBdEKIK4yUkpD/gO2yaNEihNk/WEsHLpbqPPvgAHOFwBR/9NgxKsTlIJ7CVRZrW2yXgwd9Iy6m77//Xlg2jfLd+cV9ob4xY8YWUjasTYb4ELjODEnLRFtVq1YVdxHSOmKgNa7RX99AALNJU6ZMyVbBbQS3z86du6gor2GDWSiG2GMqdqXtGHnoryLgDAF1FTlDKATnEeQIhSM9R+O7IojcR/AUzKyGpHonFR3nmJdnz54bhyx+Q8rEaJGJ7ngEAXNagJAwUhYrVpwwIv2F19QBaVWPHt1p69YttGXLZrpw4QK9Vy940dLQsFj/9fdfcq+bN2+i/PmDFS13b/761euiuCxjrgdD0qdNR3GZF8WeOGKgtXeNHvdOBKCIVqlSlebO/Um4SeD6rsJ08vbEnKk4JG3HXr56XBFQxSUM2gCUEJj3j3MQoyFwG9kTmNIRE3Pp4iVTACZG2vAjI3bAEE8wMRp56W/YIAA2SkeMlLZKxcqrkMDAQCpcuJAosDgGNyMU4OKs2ECcsVhLIjt/+vXtS/v37aOFHLNSqlRpMsq0k9zm4TTp0gonTP8B/Sl79uySBvWzN+MIcTyOGGhtFqIHvRqB6sx3g6n1IFfDDFPQOtgTc6Zid9uOvTz1uCIABNRVFEbtoHq16qKIIGANvuCJE4OXGbdVXIMGDWQkO5gDHzEzYzAHMCKAs0ZNS/pwdBbICwu/YaaGLSbGnUxVjkBgyBO2/KiEPwJgpLx27RqTPg2ifawszJkzh5rwWjYGqVP6dOll9hDotxG3kiJFclm5GIv/GYSE+CBgdVeQpkGxhZizWC9cuJBHvnN51dcVvOhfDvL3D55xZO9uM/GMpE969pSFAAcOHGCqi3l6KNuw+p3i6a8grbOWehw8DCUF7W8j87qg/s0DmtN2Zga1JfiwgYH28/99QYcOHuIy71gw0Nq6Ro95DwLpuJ1Ctm3dKn0ZtrNly0b+Gf2lf8Kqw2gz5gKmYrQHKDfoy+BeAqOwu23HPE/dVgSsEYjUigtiTSZPmWy3Y7UGw5P7nTp3kgXZsHosOu906YLXjYC51Vrw4YGygqj9Xl9+Sb/y9EPwJyAgzlwMJkYsUW7NxIhVRMEC+sWXvShnjnflMoMF1DwP3Q57BMBIGRAQIDOAunbtKgpG06ZNTbEANWrWID+/VLJ68OnTwfEhxYoXE+W1dOkyUsHSzLQJJQExBIYYLNbp2PIxfPhwIZZD24FCa+6uMtJb/4KHqV+/fjzr6Q59++231qel/PebNSOQt33x+RdvnEdZ3/B1CPTt3aePMHJmzZqNijC1uD0BA22Ct+MLA2337t152mwODt7tay95mB6H8oT+wFAgw7QwFzL3tvpYVzlf/nyEWWmgjJ/L5JeGVK9aXTarcCyTtRhMxaNHj5H2bjAVh6TtWOet+4qAgYBbzLnGRa7+RjTzYkSyxsKE/vDhA/74xJRRyYzpM2jipIlMEz6cSpUsZRdCjMATJkwkHxFbiTzFxGgrbz3mWQQcMVLCdYhnHVLip7BksUZQMMTcTWmNDOqeIMHbdt1E1ukR92WPgdY6raf2rRmKMRsPU7bhLoMbNqLF2+pjD4/79+5T/ATxTc8aSglmkq3jmCyDw8dVpmKU4W7bsVcvbz2Ovt+agdpb6+qL9XKbOdfdm4zKzIvz589nAq6WMlIZOmQozWHTKUz+hQoGz0Sxh2WiRIntKi24xlNMjPbK1+OeQ8ARIyUsbyFVWlDDsGSxhsLiSGlB+Win9mJbcN5aHDHQWqf11L63MhR76v7CKx9Mr8ezhkV4AnNLLVi4gJqy69NQWmzVwxGjsLttx1b+3nzMFgO1N9fXF+vmcnAuGu2u3bvo1ctXVLJUSZlS+ddffwsbbMbMmSgvc1NA4Pt+wmszpGHfvDXzopHGVl649uzZs3Tm9GkqUrQoz6rYKiZoaPJxuCPNkCGDcFvA51+qVCkhYsM1EIys9u/bTy+DXlLZMmVlyl7wmYj726RJY4lj2LVrNz3696EEsWGRNl1BNuKeiZYcdRCwZiguXSbYBQcEsE7UCna3wnpZpVIVwocZYo/51x5TMSwRmPmVg2kPEPsB2bVrl8Sf1aoVHJ8GyxhIA7EoY+nSpej3G7/LwASuXkPs1cc47y2/ly9fpp+ZgK4qzySCO9RclKk4GA1bDNT4dp3jb1sJtrSnZKI+COKA7jIrdl1eqRnt7q23YgsTNb6xSZMmoyqVK1t8K+x9M4NLjXp/XXIVISD08y++kFEemGAxkgQ5GnygrVu3ZrbM27SEWUOxpgV8+i1btqRYsWMR4jug3GBp7foN6kvMhr28ChYqSNOZAAvuFIOVs/dXX9FP7Fu9d/eeEHzBx4+gVPCcBAYGB7tCwfmaFypMxJ1PNKYmR4AjfOjoOCLSVRT1mpLesSLgPQi0btOaA0ovygJ3GZj6v3+/AbR9xzZxFYGL5BUzE//99z88AIrFbo+l8kEJCGhhwfyL4OM9e/ZI/4IPy0setL1iN8AXHIdWt25d+u2339iq2oI6de5sikdDHA9m0+BajLzbtG4jJH2wMjx9+kQsF9nfzc6WiwlCJAnXlb36eA+aWhNXETh67Ch9M3gwXblyVWYXIi6xbdu2sip5xw4dCe0Ss+0wjTxP7jw0dtxYjodrQbdu3eRv3HP+bsYmKMRQhme8XjPM0TfT1XpFpnQuuYqw5goC8aCkrFy5Spa/RiT5mHFj5CVEMCliWTB1E/EboNpu166drMhqzbzoKC9zYMuWKyuU41VfMzUiyHbGzBnCQFundm06xo0D5FeQw0cOSxDs8uUrRFHCirtz584zz063FQFFIIohgEGQOUPxu6wsGNKOPyRg9h06ZIhYXX79NZilGOfNmX/xIcFSHHnz5qXlPAj7+edlBIK1YcOGyfIdRn72fhEHAmbhtu3aCiP2zBkzubw3eZkc1cde3nrcOxGwxUCNAGcMxrdt2yqV3rd/vwyqq1a15MBZMH8BrWZm6oYNGtLpU6fo4sUL5Oo30zvRCLtaOXUVnTp9SkB+h60mGzasl5rAXXOaXToIPoRm2JCn82JqJmQYz3aw5w5xlpdkwH+a8BonUIAMSZnSz8T2mTcfK1BMkY/gJzSGT3p8EuySYRbHM+fOSJ3wwBEgpaIIKAKKgDUC+QsEr99U4PU6TraYf3ENqAXAZlyZR8ewmEAwowYDtGPHjlv0UXLS6g+YjiH4ECFGBNOIracP47yj+uC8im8jgGdfmRdhhWICjwDaFbwH5StUMN1YsmRJZZ0zHGjYqAGvG7aErX17KWu2rA6/v67MJjQVEok2nCouN65dl9s9ePAQa4GnTbcOLgr4b7FkN2JSMGUOAX152fxlT5zlZe868+PR2E0FMQjdpk2dJlMc87FCgyl3fMI8uW4rAoqAImATAVOnb6fPcMZUbD64slXAg4cPRVHBAMsVcVYfV/LQNN6JQA3m9YLiso1jW0DKWKx4cXEl2aptCl51HXL12lWKFzeubDv6/kqCKPbHqeKS5jX5VXVeDA6+XEMMxkz460aPGi0WkZu8MiwWF+zdu7eRzOLXWV4WiV3YgcVn1uxZ4is0FoWDCwnmWRVFQBFQBEKDgDOm4jhxgj8qjx7+ayrGGFDhABSb/ewWQH+UKWMmSWNHRzJdrxuREwF4JjCrdDaTUSImtEuXLnZvFDFSkMI8AzVR4teWPjvfX7uZRPITThWXAryuSUZm3VzMwbfx2boCqwaWqo/Fpi6QWU2dOpWu37guQUZ72bQFllAExmI9FHPmxeTJkpOzvNzFGiMUf39/KR8BTFCcEKwLgTUIke4qioAiEDURgFUYigMCZbGUgrtizlSMmUeItTNnKkb/kz59esk/V+5cMrvx4MGDJld5DV4scwX3lQMHDhJCyeO8jAfW9yHK6G5VNL0PIWDNQF2kcDBBYzVeLgHB2JhGbr1UAoJ5Z86aye0pA02ZPEVciyCfhMXF0ffXh2DxaFWdMudi9dehvHy9RMJPmMBL2nejy5cuUTNm2MTaOlBUyjNrKx5OmzZteCpXUvr+h+/lJbdmXnSUV0jvqlvXbjyNLAV9+tlnNHvWHCpcqLBkdenypZBmqdcpAopAJEDAFkOxO7flClNxB6Y4iBkrBn3++ee0igMrjTWcUA5mSnbu0pkucDzeoIED6RnTRIB/xxZ7tjv10rTejQCery0G6mqvGYfBig1eI3NBjMv16zdoQP9+vFzIVerevYe4ksLim2lerq9uuzQd2rg5TC+Gi8hWgJmRxtavNfMi0oQ0L1v54xjKMPgY7KXR44qAIhC1EAgtQ7GBljOmYnv9D+ggEidOJAO5W7du85pVjal27Vo8xTpilj0w7kd/wx4BawZqzBT6kOlDvv/hB6rAg31DMB36xYtntGDBQp5C/4QXr4wlFhfjvPHr6W+mka+v/WI6tFNXkflN2ZstZJ7G1rYthSKkednKH8dslWEvrR5XBBSBqIFAaBmKDZRgKXEktvofuNCbvd+MarLrPGXyFLR+43rhwKpTp66jrPRcJEHAnH0ai05iSj3cPmWYQNWemF9jncbT30zr/H1p36mryJduRuuqCCgCioC3IJA2TVoaMGAA3fzjD1q1ehWlYOVlFC+4ivg/laiFwMyZs4URF0SIcP+YS+rU7zDTfPAK8ObHdds+Am65iuxno2cUAUVAEVAEFAFFQBEIWwRcYs4N2ypo7oqAIqAIKAKKgCKgCLiOgLqKXMdKUyoCioAioAgoAopABCOgiksEPwAtXhFQBBQBRUARUARcR0AVF9ex0pSKgCKgCCgCioAiEMEIqOISwQ9Ai1cEFAFFQBFQBBQB1xFQxcV1rDSlIqAIKAKKgCKgCEQwAqq4RPAD0OIVAUVAEVAEFAFFwHUEVHFxHStNqQgoAoqAIqAIKAIRjIAqLhH8ALR4RUARUAQUAUVAEXAdgZj37z9wPbWmVAQUAUVAEVAEFAFFIIIQAHNuNF49NSiCytdiFQFFQBFQBBQBRUARcAsBdRW5BZcmVgQUAUVAEVAEFIGIREAVl4hEX8tWBBQBRUARUAQUAbcQUMXFLbg0sSKgCCgCioAioAhEJAKquEQk+lq2IqAIKAKKgCKgCLiFgCoubsGliRUBRUARUAQUAUUgIhFQxSUi0deyFQFFQBFQBBQBRcAtBFRxcQsuTawIKAKKgCKgCCgCEYmAKi4Rib6WrQgoAoqAIqAIKAJuIaCKi1twaWJFQBFQBBQBRUARiEgEVHGJSPS1bEVAEVAEFAFFQBFwC4FIp7hs3ryF1qz5xS0QfDHxixcvwqXaV69eo1GjxoRLWVqIewiEVxtwr1Zvpo4q7+Sbdx61jjx+/Dhq3XAkuVtffD9dUlxat2lH3//wo0uP6dGjR3Tq1GmX0oZFoo2bNtNqL1BcRo8eS7ly55X/ufPkp4CAVjR12nS6fftPj9x2seKlaOXKVR7Jy1Em165do5GjRjtKEuXOnfvtN9OzxTPOl78Q1apdl2bMmEUvX74MFzx27d5NefIWoEePvP9jEVHvZO0675k9p3xUvkJl6vVVH/rrr7/C5Rn5ciHr128wwy64HzP6M/yuMOt70NdVq16LcubKS/kLFKahQ4eb3gNveFfC+zncuXNHsDt8+IhLRes30yWYLBLFtNizs/PkyRN69uyZnbOWh48cPSof6YsXzlG0aNEsT0ahvefPn1PatOlo6pRAwjqWRxmXwMAptHDhYlqzegXFiBEjVGhMmjiOsmfPHqo89OKQIRD06pUoDAvmz6XUqVMT3o9NrDAPGz6CHjx4QF27dglZxm5cVbBAAZo2dTLFixfXjauiVlJYAFq1akkBzZvLjR85coQmBU6mD1u3peXLlob6HYzMaJYpU5rWrQ22XN+4cYPebxZAs2fNIH9/f7ntpEmTyu/wESNp+fIVNGzoj9If/frrTvq6b3/Klj0b1a1Tm7zhXQnv54T+HgOKV0GvXCpav5kuwWSRyCXFxfyKS5cu0ZkzZ6lo0SK0du16ihPnLapRo4Z0oPv3H6Atm7dK8vnzF1CxYsUoU6aMso/Gv4ndOFBmqlapQn5+KeX4tm3bKUmSxPTnn38R0gQENKdFixZT9erVaTePKq/zserVqlG6dGklPf5AicKH4sqVq1SiRHHKmzePVypJsWPHYuUljdQb9U+aLKkodRcuXKBs2bKJQgOtfO++fZQ2TRqqWbOGRWcKN82GjRspduzYVLNGdQJW6FBSpEhBOOfnl4refvttyf/ff/+lnTt30XnOO3euXFS2bBk5jj+4LlmyZBTE/3bt3E358+eT52euWP7++++0ffsOesYKV9UqlSlVqlSm63XDNgLAyHi+WbJkpj9u3qRFixeL4mLdrvEBhTh6D5InT84d3iPaf+AApeH2UKN6NekAN23aRI9ZOUIbMD4Yd+/e4/Z/Rdo/3oelS3+mavye4F2CHD9xgv5k617FihVI3tmz5ygfvycbNmyU81X4Gb/zzju0dds2+u3ceWlXOXK8K+ds/XnFytrRo8do37793P6Sc1lVKX78+JLUUZ9gnhc68xUrVlCFChVM77/R7ho1akgxY7rdHZlnb3M7UcJEpmeEZ5UqlR81btKMTp0+TXly53bal9y5c5c2Mv4xeaABLBMlSmQqx9E5UyIf3YgbN64Jt5evgq2Ifn5+pmO4rZs3b9GYMeNoxIhhVLhwYbnTGtxGz537jSZPniKKi3H7jt4VI4357/XrN4L7I27b6MuM7wgsmvg+lC5dmrZs3UpZMmeWd8D8Wm/bdvR+6DczZE/LJVeRedYHDx6mr3r3oVYftKbDPIKZPGUalSlbXkyD6LivXL0qyU+fPkN3796V7Z27dlHlKtVpz+49PNJZQTVq1qILFy7KuZkzZ1OHDp2pb78BdOLESelIYM5t0bIVLV6ylPbs2UsVK1UhaPIQfKAbNmpCEyYG0q3bt6hb9x78/xM55+1/YsYI7pjjxQvu8PsPGETtPupAly9dpm+//Z5atvpQlBncx/nzFwim7unTZ9KRI2zFavEBff5FL/lY4fzAQd8wXiewSehA69StTwMGDqZz/IFCnp988qmcwx9g3PPTz6hXr94E022nzl2od5++pvP4GMHV8SsrPsePH6dKlavRL7+sNZ3XDdcQSJokCVtfnkpi63aNg47eg+kzZlKHjp1pxMhRrEj8Rn34+XTq/DE1fb85d9DbeFS7kgcCJU3PH8ov3hMILAvYhhJgCBSUQP54QPYfOEhfcNtB/ngvZ3B7aNiwCXX5uBuNGzuBjvEzb9S4iVgEjeutf/v260/NmregM2fP0o9DhlKtWnXpjz/+kGSO+gTzfGAdmjhpMmFQY8g83p7z09wwUVqMMsx/kyQJthQ8efzEaV8C5a90mXK0a9duWrtuPcE9e/LkKcnO0Tnz8iLzNvoKDH5KlyppcZtt27amPr2/IkcxWObvisXFvIMBVIUKlWj16jXi9q9Rs7ZsIx2UdLR1vBeLFi2Rga319d627+j90G9mCJ8Wm7WcCpsJgwYMHCTpuLEEvZsjd9DFixdl/99/HwVlfzdXEL/css+dc5B/xixsIXwl+8+fPw/Km69g0Jw5c2Uff9hUG9Tjk09lv3XrdkGNGjUN4kYu+zzilOunTJ0m+/jTsWPnIO7IZZ9dLkE9P/1fEJvnZf/s2bNBmbNkD+JOVPa5UQd17tJVtiPyD/t5g9jvG3Tr1u0gHpkE/bJ2XVCdOvWCmjRtJtXasmVrUJas7wbdvn1b9lnJC8qaLUfQxo2bZJ9NsJIW+EGOHz8huOzfv1/2Oa4iiIOQZRtYNmr8fhC/1LKPZ5MxU9Yg/njJPjBu3OR9E8YrVqwMKlS4WBCPXuT8jBkzgyZPmSrb+IOykR+EFUYpV3b0jyBw5swZwYQtfrIP3NnCElSiZJmgz/73uRyzbtfO3oMPPmwTxAqnCeEFCxdJGfg1BO1n3PgJsmv+XNB28M6x4m8kDWK3VRB37rKPPDjOKujvv/+WfaTPwu8MyjRkwoRJQay8GrsWv2hHmTJnC2Irnxx/+vRpUP0GjUzvsLM+wfydHDlydFDVqjVM+eMdmTRpsmnfkxs84AnCfRmC54a+pHCR4kE8AApy1pd07/6J9DXG9UOGDDPh7+ickT6y/F6+ckXaF1tSLG6JY1uCKlWuanHMeseVd8X8GrxLuXLnCwoM/K9NoM0XKFg46OHDh0HG94GVcvPLvGob7xnexwMHD0q9nL0f+s10//GFyDabOHFiypgx2AWEUVSGDBlkJAe3jbXArQS//8uXL2jx4qVyOlHChHTq9cgFB/Lly2vhIsEx+PANyZkzp7g7sJ83b17xp8JiA2vMP//8I9aeS2y18Db3xrlz52TEhnpj9AHz/OhRI7Ar7qGMGf35vnZgVwTuAVidKlWqSFu2bGNzfBXTSDRr1ixGsjd+9+7dRx+wKyJWrFhyDs8mT548wSP8ypXkWF7eN+JqgCe/XBIoDNP5Bx+0Iv6wihsA1h1ge+HC+TfK0QOWCFSuUk1GnHCj5MiRg95v2oRat/7AlMi8XbvyHmR8HT+ADPLzOwEpV7as/OJPzpw5xE1rOuDGRkJ+5ww3E9wdGfwzvJH30GHDbeaI9pWL24zhroXrEu5bHlyY0rvaJ9SrV1eCvWFRRD54R+rUqWXKx9Mbw/ieYMXirpGScVxGxUoVaMb0qezajue0L8mfP79ci+D0WjVr0mef9TRVz9459HWwbBkCywOeW2QUuJBiRHctVs/Zu2LgA4sWrOoIFTCkbp06xEojf2NOUy52g0MKFypknPaJX1ffD9yMK32Fed9iABAZvpnGvTj7DZHiYp2peayE9Tn44aNHj84f6v0WpwoWKmix72wH8RkQ+FXfZzNh6jSp2a9aSOI9nF0bUedz5cpJK1csk+L7sSvs4KFDJuUC8Tnw+cNPawg6ONwXBB16p47tjVN2f+HzvXXrFiHGwlzwkbnLLiRXZNWq1eyq60/lypWjnBznkOB17IIr10blNPPn/SSxKIjzMo99sIWJ2+8Bm+Ahjt4tW+W4esydfG+wCyqLleKM9nXv3j2Ta9O6XHv5Y5BToEB+oSyInyA+FeIPEGJtwko6dGhPLVu2EBxTpkxhUYyzvuTDD1vxAM2flq9YSWxhovTp09HIkcMpW9asZO9cJh40tP+onakcBG9HVsFACzF19+/fJyjGhrBFjhCj4s/KsSGuviuIAUN8TZrX/SCuRzwklFzEdUUWsfd+4P7c7ivsgOKL30w7t/LGYY8oLm/kanYALzs+rh35I4xguNAKArNixIwhEe6wIGC025ej2L1dMNOkXPlKtGzZcmrQoL6MXk+ePMkxBqNtVh0d3qFDhznw+b+Rh62EwCAtBx1iVAxLDQSjS1ijOnT4yNYlbxwbM3Y8NW/WzDSihCKzfsOGN9LpAUsEEExrBJlbnnlzz9PvgXkJb731lgSPYqQaFuLPygY+3uaym+PVoGg76oDN05tv169fj9h1TIkTJ6K6dWubn/L4doIECew+I2d9CYLdc+fOxQp9WZk51rVbDxrIcWRzZs+UQHh758qXL+fx+/DGDDHqR1+DtoBgbUOmTZ8hMVm/rPmvzbj6rkCxRczWsWPHZRIB8kQ/iNiWyGq5MnAzfj3dVzhr50a5vvTrdnCus5tLxTNdIFevXZNfuCVgecDcfrgg4JKYOXOWhZlZErr4J2NGf5mBBNcQ3EQISIWgsXuz4MVt164NDR02QjrBhg0b0O83fqexrDTAvIy5/xy7Iy433Ee99+oSFAhYZHBviN63Jy1aBPCHZQWBSIj9wDRq9Bh50TE7yBXJlNGfTp9BMPU9Cd4dN36iBJmiU1LxDAKefg/MaxUnThyZwbeMp6ViajYCsH/+eZlda4j5ta5sN23amN+5P6WtQjlC4C/HbIkC7sr11mlq16pFHIdFmFFXi2fSRZRkzOi4LxkxYpQEScOigHcBM4sMd56jcxF1P+FdLixPdWrXYnfaaFPfjkkUHDNHnTt3DJFSi28FLHJwz12+fFnyHTN2HBUvXkyoB8L7HsOjPP1muo+yxxUXTFvDiKNSpao0e85PElcxYfw4gvmwarUaTFBUiInTVoe4w4IFApaF9+rVlyh/8AQk4dkcF7gj9HaBCRk4YESCl37cuDH0E8+o4GBBKluuokxtzpYtq9xG+/btCO60du06CMHZTXYH2ZM2rT8kjGIxS6RgoaK0bt0GmjRxvMQe2bvG/Hj37l3p/r37VKhwUXHDlShRTJQlY9aIeVrdDhkCsIx58j2wrkWnTh2EKwhkh614dhral6cEo+CJ3J5+mjtPCMYwI60F0xa0ZIU5JIIp27BilCxZwhR3E5J8QnuNs74E03xvs8JWpGgJ6Wsw6u/SpZMU6+hcaOvlS9f/+OP37LIvSHXfq8cWkTzUvkMneq9u3RD377DgwQoNrKtUrSH5vsVuIvRnkVX0m+n+k43GI4kwGVZjim7ChG+bAkJRNXBUsNfeI6RZGFmikcNM7usCyxGCtxALZAgeC9xgsLaA3wIcGiCB2rF9qwWXgpEev3DJweLiLN7C/BrzbcQswFcdEvO/eT667RgBT74H1iXhvTO4XKzPeWIflkEMFEIroDQIaN4sxFab0JZvfr2zvgSxaDFiRLfZ1zg6Z15GZN9GX4WAf1iWPdV/4D2Bwh8Z+nhXnr9+M11BKThNmCkurldBU9pCYPHipbRq9Wrq0rkTPWBlZCybS6HAgK3VUx2DrXL1mCIQlgiAawYuLXC5rFu7RgIxw7I8zVsRUAQiHwKquHjpM4X1ZOKkQGEIhiUELMT/4+mYnhjteukta7WiAAKg28fI8uuvv/K5Ka1R4PHoLSoCPoGAKi4+8Zi0koqAiGz+wwAAQABJREFUIqAIKAKKgCIABP4LqlA8FAFFQBFQBBQBRUAR8HIEVHHx8gek1VMEFAFFQBFQBBSB/xBQxeU/LHRLEVAEFAFFQBFQBLwcAVVcvPwBafUUAUVAEVAEFAFF4D8EVHH5DwvdUgQUAUVAEVAEFAEvR0AVFy9/QFo9RUAR8AwCWG9p+/YdnsnMA7l4W308cEuaRQgQAEsw6C9UXEcgzBdZdL0qmlIRUAQUAc8hcPPmTXrx4qWJaXr5shUEevWyZct4rpBQ5ORt9bG+lU6dushq9V/36W1xql79hrKoYqeOHWT9qgkTJ8r5hG8n5OURilC1qlWoVq2apmuwdlZ9vsaQmDFjyTNp3KgRr9wdYMGubqTx5d9cufNx9W0T0pcvX960sO62bdtp8uSpdODgQVkLq3SpkryIZ39ZcR73X7vOe3Tp0qXXUESjFClSUIkSxenTnj2Eofj1CfkBc3GlytUocNIEOnnqFA0ZMox2/rrNPAkv2xEoa4wtX7ZE1jMzngmeBxZALs5LvbRp3dqC2d6dOlgUFsY7qriEMcCavSKgCEQMAmPHjad//v6Hxo8fGzEV8PFSnz59Rs/4v7U8efKUnj97LoefPX/GSkg6mjolkB49fkRHjhylfv0HCv1/q1YtJQ3Wk8PSCGD9xqr3WGJh06bNNGz4CFlgtmvXLtZF+PQ+GKENadv2IypVuqQoBDgWN24cOQWcsNr4559/xu1zDC86eomGjxhJgwZ/SxMnBC+oi+VegGFA8+avrzlCkwInE0gcly9baqHwYXHLt3kl9KxZs8jyMI/5WVgLFjh+8noxYvNn4pfKjy7zosXjJ0ykvXv3ybOMzetDQdypg3V5YbmviktYoqt5KwKKQIQgsGTJUjp//gJhNWssL9Co0X8j/uMnTtCunbspf/58VJQtBFhCA6b6RYsWU+nSpWVF9iyZM8voFiNZrBO2b99+HvEmF0tD/Pjx5Z6w2v3p06epNq+QbMiaNb/wxyOrfEBw7OrVa7Rh40bCh6AmLxCLUXaZMqVl9GxcY6s+xjlf+I0dO9iCgrpicU+/lCmpdZt2sqJztmzZTLeQKlUqk/UrS5bM9AdbxBYtXkyRTXFJmzaN6Z5jMTaJEiYy3bdxYjArKFjxGouVQtAWYdmqUbO2rIrt7+8vx82vRb6pWMlo3KQZneJ2ByuJIQsWLuLjjYxdl3/xTNKnT0cZ0qenUmzxwYK/UGB6dO9mysPVOpguCIcNjXEJB5C1CEVAEQhfBM6e+43u/HOHHtx/wMrFGVmwFDXYyCP9Xr16i6m8U+cuhJWuIYgz6PVVH2r6fnNWYJbQ9Rs35Hjffv2pWfMWdObsWfpxyFB2gdQlY9V0jE6HDh0u6Yw/sCLs3rNHdqE4wdQ+ffpMsUQEtPiAPv+iF125csVIbrc+pgQ+uAF3Rty4cWkvK3uOJCkv1gnrTVQTKMlw55QuXcri1mEtWbRwPmMXz+K4+U6SJEll98njJ6bDWEJjx45feVXuOqZjIdnAWnjledX2PXv2OrzcVh0cXhAGJ1VxCQNQNUtFQBGIWAS+6vUFx1sUppw5c9CAAf3E4oEapUyZQszsw4b+SAP696P16zeYlBqc//DDVrRi+VJqzBaajRs30bx5C2jD+rU0YvhQ2r5tCyVNlpQVmGFI6lRWrlpFOXK8S1u3bCSUN3TID28EYTqrj9NCvDABrEsYvR8+fMRm7eCyQJD0/AULqVw574g3slnRMDp4+fIVcZcVY2uftRQokJ/8/FJaH5b9s6w8Dx06TOJbcuXKaUqznBctrVC+HCVMmNB0LKQb5SuUp2PHjkvMja087NXBVtqwPKauorBEV/NWBBQBr0Igb548ptiAnDlzSizG7dt/UqJEwZ1+4UKFTPWFRSUXp0mXLq0cwwe5erVqNGXqNFMaRxtbtmxj11IVWdUd6TCithZ79YFLwJclHltcrKVylWriloP7LUeOHPR+0ybUuvUH1ski/T7uHxIjhvPP77Bhw2nEyFGiSCRLmpQqVqpAM6ZP5QDa/6wycBP16dPLI7jF53yDgiwDi12pg0cKdyMT58i5kZkmVQQUAUUgsiBw4/ffKYuVsgElBqu1W3futu753Llz1Klje1unfOIYh/7Qq6Dgj6x5hRHYibggR3Ll6lWq915diyTz5/0kM2bixHmLFcVEFuei0k6aNKnldg8eOkSI9TEX4JaYsTHw6dChPc+8aiF4wzpnLYiPevjwAZUsUcJ0Sp7bK0vlAydFYXLhueXJk9vi+Tqrg6ngcNxQV1E4gq1FKQKKgO8g4J8hg8yyMK/x7t17xP2ED3eCtxPQQw7+NRfzDzpm0Bw6dNj8tE9to/6wOpnL33//TRcuXuTZQe+YH7bYPnHipLgbChcubHE8efLk4gYxPsoWJ6PQDqwlsL7t2rnL4q4vX75MlSpVpVu3b5uOJ+CZQnAd2VJakGjhgkXUqGFDC0UjTZo0olxDcTYXBJin4WdqTxB7s4Ddd0WsnpuzOtjLLyyPq+ISluhq3oqAIhBhCPil9JOZK+iQQyJNmzamP//8U7hKMDtpw4aNwoPRoEF9ya4MB1feuXNHpvYiuPfnn5cx78ZlU1GwOKxatVpmKWFa6ZgxwdNcTQm8fAOzpTBNd9KkyeJSw/Z33//IsRRvUwWOhTAE+N69e4+uXbtOy5YtpzY8Bfh/n31K5nEYRlr9DUbg056f0Hq0p1/WMtfQCwkW//a7H6hy5UoyM8sVnJ4+fUqrVq/mGXMNLJLny5dX3JuIxTp16jTdv39fFJI9e/dSgwb1LNLi3F9//SUBuS1bfUhJOGD64487W6Txxh11FXnjU9E6KQKKQKgRqMHTjxEA+u67ubhj3ul2fhnY4jJx4njq3ftrGjV6jHTqmL7askWA5IVOvlvXj2Wm0H12HxUtWtRi2mv79u3oLI9627XrIHE1dUM568PtGwjlBcWKFaXhw4bQDz8MkRlVceLEoQb169HiRQspKcdbGIJZWwUKFqbEiRNRkSJF6AvmJmnY0PJjaqTV32AEqlWryrh+x4Rzg6kb87m84riSkiVL0LffDHYZol/WrqPcPCUaFhZzwYyuqVMm84y5r2VWW4zo0ZlcrriQ01WqVNE8KdWpW09isPLlzSvTszuyaxPXe7tEY1/tm84wb6+11k8RUAQUARcQgF8fMSlQMkIjsKzYywMjZpCqwaRuLuhaUT6sLZhqCj6Y95sF0I7tWy0UHPNrvHUb9//WW29ZBIV6a119rV7AFtxABumbq/X/kqf1YzYRlCB7gnYJa2GyZMnsJfHJ46q4+ORj00orAoqAtyOwePFSMeV36dyJHjx8yC6ncaLAgEHWPBbG2+9D66cIeBsCqrh42xPR+igCikCkQACxHxMnBUoMDKw+xYoV49iPnnYtN5HipvUmFIFwQEAVl3AAWYtQBBQBRUARUAQUAc8goLOKPIOj5qIIKAKKgCKgCCgC4YCAKi7hALIWoQgoAoqAIqAIKAKeQUAVF8/gqLkoAoqAIqAIKAKKQDggoIpLOICsRSgCioAioAgoAoqAZxBQxcUzOGouioAioAgoAoqAIhAOCKjiEg4gaxGKgCKgCCgCioAi4BkEVHHxDI6aiyKgCCgCioAioAiEAwKquIQDyFqEIqAIKAKKgCKgCHgGAVVcPIOj5qIIKAKKgCKgCCgC4YCArg4dApDPX7gSgqv0EkVAEVAEFAFFQBEIDQJZMmcgpfwPDYJ6rSKgCCgCioAioAiEKwLqKgpXuLUwRUARUAQUAUVAEQgNAqq4hAY9vVYRUAQUAUVAEVAEwhUBVVzCFW4tTBFQBBQBRUARUARCg4AqLqFBT69VBBQBRUARUAQUgXBFQBWXcIVbC1MEFAFFQBFQBBSB0CCgikto0NNrFQFFQBFQBBQBRSBcEVDFJVzh1sIUAUVAEVAEFAFFIDQIqOISGvT0WkVAEVAEFAFFQBEIVwRUcQlXuLUwRUARUAQUAUVAEQgNAqq4hAY9vVYRUAQUAUVAEVAEwhUBVVzCFW7PFfbixQvPZeYgp6tXr9GoUWMcpNBTEYVAeLWB0N7f5s1baM2aX0KbjV6vCCgCYYCAL76fqriEQUNAlqNHj6VcufPK/9x58lNAQCuaOm063b79p0dKLFa8FK1cucojeTnK5Nq1azRy1GhHSaLcuXO//WZ6tnjG+fIXolq169KMGbPo5cuX4YLHrt27KU/eAvTo0eNwKS80hWzctJlWR4DiUrvOe2bPKR+Vr1CZen3Vh/7666/Q3E6UuXbs2PHUuEmzN+733Llzguu1a9dp/foNZhgH93dGv4ffFdxH5cqdz26aLh93k/wj07O6c+eO3O/hw0fewM7WgUePHtGpU6dtnQqXYxH1fobm5nR16NCg5+Da58+fU9q06WjqlEAKCgqio0ePUmDgFFq4cDGtWb2CYsSI4eBq56cmTRxH2bNnd55QU3gcgaBXr0RhWDB/LqVOnZqePHlCm/jjPGz4CHrw4AF17drF42VaZ1iwQAGaNnUyxYsX1/qU7r9G4PHjx9SqVUsKaN5cjhw5coQmBU6mD1u3peXLlob6HYzsQD97/ozb9puK8avX7f9V0CsqU6Y0rVsbbE27ceMGvd8sgGbPmkH+/v4CT9KkSang2gImqNq2/YhKlS5JbVq3lmNx48aR38j0rNDfY0ABfFyRI/xtwMD24oVzFC1aNFcuifJpVHEJwyYQO3YsVl7SSAnp0qWlpMmSSgO9cOECZcuWTRQaaOV79+2jtGnSUM2aNSw6U7hpNmzcSLFjx6aaNarTtm3bpaNIkSIF4ZyfXyp6++23Jf9///2Xdu7cRec579y5clHZsmVMd4brkiVLRkH8b9fO3ZQ/fz4qWrSIxUvy+++/0/btO+gZK1xVq1SmVKlSma7XDdsIACPj+WbJkpn+uHmTFi1eLIoLME+SJDH9+edfhA4dH1AItjex6wQdVNUqVfgZppTjSJ88eXLu8B7R/gMHKA23hxrVq0kHuGnTJnrMyhHaAD4EkLt379GVK1eoRIni9OzZM1q69GeqVq2alInzx0+coD/ZulexYgW6dOkSnTl7jvLlzUMbNmzEaarCz/idd96hrdu20W/nzku7ypHjXTln6w8+VkePHqN9+/ZTihTJuayqFD9+fEkq+Z85K21q7dr1FCfOW1SjRo03lCp05itWrKAKFSqY7ttod40aNaSYMT3fHSVKmMj0jPCsUqXyEyvCqdOnKQHX/+TJUzIA2MgYN+Y64BnYe5eOHz9Ov/12nho0qC/3DVfdkiVLqUDBAnT1ylVKnDgRFS5c2ATfosVLqHChgpQxY0bTsci2ETduXBO+L18FWxv9/PxMx3C/8eIF94HYjsV9ovkzwTFDzI9bP6s8uXMbyUy/9p4TEth7/0wXh+OGo/dj//4DtGXzVqnN/PkLqFixYpQpU3B7cdRXmPctAQHNadGixVS9enXazZbY69zHVOe+AN8cQ9BHYHB1hdsp+oy83Bf4spLk+Z7CQEp/30AgZoxguOPFC+7w+w8YJO6eKpUr0ayZs2keN9yf5sySBnX+/AVq0LAxJUyYkBtzUfrpp3l0/vx5mj9vDn84UtDAQd/Qd98OlsZ5585datioCT19+pSKFC5EI0eOplqsBI0YMUzqMJPzvn7juihAsNJMCgyURv7tN4PkPD5GHTp2olKlShFGQD/8MISGDvmBPz7V37gHPWAfgaRJkvAI9akkAOan+eMYnS1rpUqWkGM7d+2idu06UIXy5cRlOGLESFq0cAFlzpyJps+Yyc/3AqVPn478UqakCRMm8Ud+JV2/foOyZs1Ct27dpgH9B9LGjesoQ4YMBOUXbo/3329KGK1iO0+ePCbFBQoKnisUl/0HDtLgwd/ydekpV86crCjvp4kTA+WDe5vzTfVOKho1ejR179aN2rdvZ/MG+/brT4sXL5U2MX3GDHGFzuO2COXn4MHD9M2334r1KUeOHHTixEn69rsfaN/eXRaKOKxDEydNlnvp3r2rlIM2v2XLVrkPmwV7+GCSJMGK35PHT+jsmXPUf8BAejtBAv5YZBJFMQa/o/beJbx3AS0+kGda7726NGXKNJoxcyatX/cLW3BW8LPZROvWrZEanz17lj7//EvauiVYUfTwbUSJ7MyflfUNu9LnWb9/1nmE176j9wODnStXr0pVTp8+Y7KiO+orrPsWKCV4/+f8NJcHBH6S148/DqXp06ZQ6dKlRBGHJSxatOhUqFAB6ta9BysueWnM6JHhBYHHy1HFxeOQ/pfh8+cv5AMF0+FhNlOPHzdBRqUYTWzduo3mzp3HFpDtoojcu3ePihQtQQiUqlSpIq1ctYowAoYig5EoPgZ16tb7L3OzrYGDBotFZe5PsyhWrFiEj0KlytWoVq2aVJmVIkjixIlp3tw58iFBbMyAgYNp8KABFD16dPnAdunSmdq1bSNp4f6YNn2mKi6ChvM/z9lKtXv3Hpq/YCGVK/efpStt2rQ0f/5PgjlG5507d6U+vb9iq1tw3EDrNu1o7LjxNGL4UCkEz3ty4ETZXsgjqC++6MVK5HfUpHEjOVa3bn2JFencqaPzSlmlQBucOWOaWGzQ1goXLibWncWLF0hKKDIrVq60qbjggzxv3gL+CG8SRRkdJTrCH4cMM9UdCtvYMaPEugDLSsFCRURxwujOXOrXe08CdQ3FZcOGTdSgvu12bX6dJ7ahTECph1UlV66cMvpETNLcubNNVpFPen7m8F3q3bsXfffd95QzZw4aM3YsjR41UgYX9fi+xk+YKMonrG/r12+UjwOUTF8WWHY7d/7Y4hbuszs0rMX6WVmX50qfZ/7+WV8f3vv23o+6dWpze0wmltABA/rJoNWVvsL83jBwgdTn96htm2AXXKdOXViJXi+Ki2Hhx0D1rbfeomY82KlZqy7dZKUJVmNfFFVcwvCpIYitdJlyUgIaI8zzo0eNkH24hzJm9GeT5g7Zxx+4B6CgQHHZsmUbm+OrmMznGHXbk71799EH7IqA0gKBaRqjb2jthuKSl/eNuJqcPOr++++/RamC6fyDD1oRPr4YoR85cpRH8xf5/3l7xenx1whUrlJNOhq4UWBpeL9pE2rd+gMTPvny5TVhfoZdKYh/efnyhVgukCgRW9NOsavCkIz+/sYm5edrIeXKljUdw8cS+YREYLkz3EyJEiWiDP4Z3sh76LDhNrNG+4KlxjA9w3UJU/SUqdNM6aEYGy4RWFbwwcYI0lpxqVevrgR7w7qEfPCO1KlTy5SPpzeG8T2NGDlK3LLJ2M1WsVIFmjF9Krsv4klR5vXGAWfvUtMmjWn16jXUsGETqlq1qryruA7vJ5QhzJ7q1u1j+RC9x/fq65KArVFlOI7FXGAlgFva0+LsWZmX5+w5Ia35+2d+bURsm7czR+8H6uZKX2Hr3hD3Zgj6eLjLILCuDBv6o/Tre/bspX/++UcmEVy6dFkVFwMw/f0PAXRkK1cskwP9+g2gg4cOmZQL+BoxMt2ydavpAnyYUqdJLfvo0Dt1bG86Z28DI8Zbt24RRnnmgo/MXXYhuSKrVq0muALKlStHOXnUD9+/inME5s/7SZRNxHRAGXAkiEeBdQtuGnMpyDEQNuV1kF5Y+aHdyfcGxz9lsVKc0b5guYElx5bYyx8KTYEC+eUDHz9BfDZdFxJ3k608PHGsQ4f21LJlC1EwU6ZM4TBLV9+lSux+27HjV8KvuWDEu3DBImrcuCEhhmby5Enmp31yO2nSJNSs2fsWdT9z5gyNGTPO4pgndlx9Vq4+J0/UKazysPd+oDy3+wo7lURMI+TmzVvsim0u35bCHEoAl6evi1pcwukJYqZJufKVaNmy5RLch47/5MmTNG6s7anGcNccOnTYqbsGVhS4njACgaUGgo8JNOsOHT5y6e7G8LTH5s2a0Wef9ZT0UGTWb9jg0rVRORFcDkZwrTMcELuCDrcjK6O2Ag2dXe/oPMy/MbkdIFgxLMSflY3lHG9jLnCNQdF21AGbpzffxgd+zpy5Esxat25t81Me34bFwNVn5Mq7BPP6sOEjxSw/+JtvJQge1iwIzP7fcWwP4pOKFCnscrkev2kfzdDVZ+XKc/JRCKTanu4rELgbI2YMme0F7GAh7tu3vy9DRNF9uvY+VHl85Nq1a0NDh42Q6bMNGzag32/8TuBKgAsBc/97fvo/Ma/jthD8BwUCFhn4MB2NcFq0COAPywqJj3n48CEHWo6RmSaYHeSKZMroT6d5FIWZKuAoGTd+ogSZ2htNu5KnprFEAKZbWOCGDh0uJlu45mbOnGXhbrG8wvW9OHHiyGyEZctXSNvCM/z552V2rSGu5xycsmnTxjw76k9pq1COEPj7y9p1ptk17uZXu1YtunjxImFGHYLIvUmcvUtf9uotwdbDhw0RdxhixQzBSLYkB2IjSBJKjErYIeDsOYVdyZ7PORXPDoVcvXZNfj3dV2TM6C+zG+EagpvIaLNGbIwU6mN/VHEJxwfW/qN2MvNn2vQZlC1rVho3bgzPFppLhYsUp7LlKsrU5mzZskqNMLsDbgTMQgHB2U12B9mTNq0/lBEgyJwKFirKQVkbaNLE8dKx2rvG/DgCJe/fu0+FChcVk2KJEsVEWfrjjz/Mk+l2KBDASGfC+HHy/KtWq0H5CxTiGWWrPfbh7tSpg3AFgeywVasPpX2ForoWl8K9M5Hb008cTJ6/QGHq3acvteApmC1ZYQ6JYCpnuXJl5SNvxN2EJJ+wuMbRu4SAaUxf7dfvayn6m8HBswIRUG8Igo/xrGvU8C6FzKhfZPl19Jx87R4x/bk8zzSsVKkqzZ4THMzvyb4Cs0NhjX+vXn0CcSl4qJLwDMgLPHjwVYnGo2rbTmpfvSMfrDe0YARvIQbCEDwWmPSgFWNWETg0MJNjx/atFhwJRnr8whUBi4uzeAvza8y3EbMAs3dIzP/m+ei2YwTA1UIU7Q2eE8dXuXYW00ShGISVwDKITi+0ginHAc2bhdhqE9rynV0f0ncJ7Ni7OHB1KpMDqoQ9AiF9TmFfM/dLwLubMOHbpoB+5ODJvgJEmejb4Vr2dVHFxUuf4OLFS2nV6tXUpXMnesDKyNix40SBAVurKhZe+tC0Wk4RAOEcXFog21q3dg3zBsV1eo0vJMCAAa6v7j0+EcsauJdUFAFFIGwQ0ODcsME11LnWr/8e3bp9i777/geZvQFGxf9x8KwqLaGGVjOIQAS+6v01x3PdpeHMXRNZlBbAibWYRo4YRR07dBDCyAiEWItWBCI9AmpxifSPWG9QEVAEFAFFQBGIPAj8F1QRee5J70QRUAQUAUVAEVAEIikCqrhE0gert6UIKAKKgCKgCERGBFRxiYxPVe9JEVAEFAFFQBGIpAio4hJJH6zeliKgCCgCioAiEBkRUMUlMj5VvSdFQBFQBBQBRcAKAXC5OJOnT596jHXbWVkhPa+KS0iR0+sUAUVAEVAEIgQBfFxV3EMAa9999r8v3rjIGkuwQ4O2AASo3io6Hdpbn4zWSxFQBBSBCEQA66ht276DFi2cZ1ELrFxfv0EjWvvLGl5b7TR90vNTi/PmO9999y314vWdeOlX88Om7fLly8tCs7XrvEeXLl16fTyarGBcokRx+rRnD8I6bxAscDl9xkxav34jXeN1fbLysindun1MNapXe32dd/xgrbD69RsyweIvb7Cc4z7f43XoPmrXlnLlzscVto8LGG7XrVtn96YOHzpAgYFTaMLEiaY08eMnoOzZs1F3xqVw4cKm4xcvXqJWH7SmBfODV7R3hmWPHj0F9z59vjLl4U0bSkDnTU9D66IIKAKKgJcg8Oz5M1608/EbtcFI/NGjx/Qq6BWVKVNaPtBIdOPGDVmWZPasGeTv7y/XYS2qgmsLyDb+tG37EZUqXZLatG4tx+LGjSO/WNqkVauWvAxEc9k/cuQITQqcTB+2bkvLly0VGvyP2nfkZTLi0ejRI+idVKlkTbauXbvTlMmTZK0fudAL/mAtIMHHhsUCx1+8eCG1BHO0IbZwAdloz096SJLZc+aIwgZsDYkVKxbhGaVNm46mTgmUwzdv3WRW6oXUPKCV4JYjx7tyfNz4CfTBBy0pTZo0su8MywED+lHpMuV5rby2lCqVn1Gk1/yq4uI1j0IroggoAoqAbyEA9uO0aYM/hi9fvZTK+/n5mY7hQLx4weexHSt2LEqUMJHFeRyHmB9HnvhgNm7SjE6xVSdD+vR04sRJCpw0gfLkzi3pAwKa0dZt22jL1m1epbhI5Vz4Y+CGpPZwYb1PBGvZxYoV0yZusRlTIy/8Fsifn3b+upOWr1hBUFyuX79BK3iZjc//t13yun//vlMssd4dFn6cMmUqeaPVRWNcgtuF/lUEFAFFQBHwIgSSJAn+aj95/EQWf8X6T1ihGx9eQyYHTqQB/fsau/rLCGB18oSseDx5EhwHtGXrVkrCGpCfX0rBBwvpuoJllSqVaf2GDV6JqVpcvPKxaKUUAUVAEYh4BK5evUadO39sUZH7Dx5Y7IfFztmzZ2nkyNESZ5ErV04poteXX1AnrkuJkqWpQf361JxXFzdcIWFRh9Dm2bdff4pntYjorVu3Qputw+v/+ecfWrZsBSEO6csv/ydpr165ylaqXBbXuYJlWnYr/f77H4QVuKEMeZOo4uJNT0ProggoAoqAFyGQIEECiWMxr9IfHCS7c+cu80Me2R42bDiNGDlKpuImYwtBxUoVaMb0qRLXggLy5ctLWzZv4FiPDfxxXk5136sv7owxo0dSnDjBsTIeqYiHMilSpDAlTZLEIrf9Bw5a7Hti5+TJU5T93WDFJGbMGFSyZEkaMWIYVeDAZ8jlK1coGwfsmosrWKZO/Y4oLdc5dgmuOm8SVVy86WloXRQBRUAR8CIEkiZNQs2avW9RozNnztCYMeMsjnlip0OH9tSyZQtCUGrKlClsZomZNnXq1Jb/sAbVqVuPMPvps8962kwfkQfr1K5N6dOns6jC5CnTLPY9sZMtWzaaOSM438SJExEwMpfo0aPTi+fBAcHmx51hCUuLSJDtmU/meYX3tsa4hDfiWp4ioAgoAorAGwjAuoM4DFtKy3aell2ufEWCK8QQKAVly5ah4ydOGIei5C+CdoEb/lsrLQAkfbp0dPv2bRM2rmJ59txv4iIyZiKZMvCCDVVcvOAhaBUUAUVAEVAE7CNQqFBBevDgIQ0cOFjiN549e0a7du+mzZu3UMEC/023tp9D1D2TPkN6grvHEFexPHf2HMFdFDOm9zlmVHExnqb+KgKKgCKgCHglAvHjx6dVK5fR3Xv3hPwO5G3ffz+EOrT/iD7+uLNX1tlbKlWpYgWZ/nz79p9SJVexPMsBvtWreRe5n4GpMucaSOivIqAIKAKKgNcjgNiLf//9V6ZIe31lvaSCoPrPxkzD7du3s6iRPSwx5bxS5WqsLC43TaO2uDCCd9TiEsEPQItXBBQBRUARcB0B4SlhLhIV1xH4uEsnmjptGmGaubnYw3LY8JHUoEE9r1RaUH9VXMyfom4rAoqAIqAIKAKRDAEswYClEcaOm+D0znbu2kVYtuDLLz53mjaiEqirKKKQ13IVAUVAEVAEFIFwRABBzbFjx3ZYoitpHGYQDidVcQkHkLUIRUARUAQUAUVAEfAMAuoq8gyOmosioAgoAoqAIqAIhAMCqriEA8hahCKgCCgCioAioAh4BgFVXDyDo+aiCCgCioAioAgoAuGAgCou4QCyFqEIKAKKgCKgCCgCnkFAFRfP4Ki5KAKKgCKgCCgCikA4IKCKSziArEUoAoqAIqAIKAKKgGcQUMXFMzhqLoqAIqAIKAKKgCIQDgio4hIOIGsRioAioAgoAoqAIuAZBGKev3DFMzlpLoqAIqAIKAKKgCKgCIQhAlkyZyBlzg1DgDVrRUARUAQUAUVAEfAsAuoq8iyempsioAgoAoqAIqAIhCECqriEIbiatSKgCCgCioAioAh4FgFVXDyLp+amCCgCioAioAgoAmGIgCouYQiuZq0IKAKKgCKgCCgCnkVAFRfP4qm5KQKKgCKgCCgCikAYIqCKSxiCq1krAoqAIqAIKAKKgGcRUMXFs3hqboqAIqAIKAKKgCIQhgio4hKG4GrWioAioAgoAoqAIuBZBFRx8SyempsioAgoAoqAIqAIhCECqriEIbiatSKgCCgCioAioAh4FoFIrbhcvXqNRo0a41nEvCS3Fy9ehEtNIjOG4QJgGBYSXm0gDG9Bs45ECDx+/DgS3U343cqzZ8/o5cuX4VdgJCjJpbWKatd5jy5duvTG7fb9ug81bdrkjePmB86dO0epUqWihAkTmh8Ol+2dO3dRi5Yf0KWLv4VLeeaFjB49liYFBsqhaNGiU768ealipQpUp3ZtSpkyhXnSEG0XKlyM+vf7murUqR2i6129KCIxdLWO4Z3u3G+/Uf36DU3FxowZi9KmTUONGzWili0DKEaMGKZzYbWxa/duatu2PR08sI/ixYsbVsX4dL6W/VY0SpEiBZUoUZw+7dmDkidP7tP3FtaVX79+A33S81O7xXz33bdU93Xfg75u9ZpfCH19okSJqEVAc/rkk+7yHnjDu2L3JsLoRK7c+TjnIJu5ly9fnsaNHS3ntm3bTpMnT6UDBw9SUFAQlS5VkgYO7E9p0qSR8+6031evXlGlytUocNIEOnnqFA0ZMox2/rrNog4TJwbSL2vX0fJlS8j8uaD/ypM7NxUvUYzatG5t0Z+4UweLwsJ4J6Yr+UOTbtWqJQU0b26RPEmSxBb7tnbebxZAgwYOoFq1ato6HWmPPX/+nD9m6WjqlEBplEePHqXAwCm0cOFi+j97VwFYxdGEhyKlhWL9i1NI8eAEt+AEC+6ugVAoUEqLOxSXJLi7S4Dixd1dgxWHFi3aNv98k971JbwokZfHDOTd3e7eyrd7u7Mzs7u/rPf+4MFtymQvypw5s93iZ8sF8+VO4uXLV7Rk8UJKmTIlvX79mrZt+5VGjxlLz58/p44dO0R49vPmyUMzZ0zz18lEeKLRLIGA/daJEyd4MjGNmrdoxZ33yg/+BqMZHKHKbvHixWjTxg3yzu3btwn9+Ly5syldunTiliRJErmOGTuO1qzxptGjRkh/tGfPXurTtz9lypxJGBtb+FYko5H4s2njL2ZqrVq1oaLFighDAMfPPosrfidOnKSOnTpT9+7daOJED7p69RoBy0GDh9LkSV4SJjTtF7h/ET8+ZcyYgU6ePEWvXr2UOCx/MCa9/lcqZlkvyZIno+vXrtPESZPp4MFDMmbFiRMn1HmwTCui70PEuCATCRMklFllwAz9wpw2ZjL58+cTL0hmUPjChQvTfp4Vvnnzhvbu20/x4sWjkiWdJczLly9p1+49AlaBAvkpb9485rtnz56TD2Drtm08g61FeP7yyy+Zf/WlfXv3U+7cuQjvxIgRw8zKnTt3aNeu3fSWK6Z8ubIi4TE9o/AmThy/mTiykCZNakryZRJq1Kgp+fj4UKZMmYShOX78BB08dIhSM5ddqVJFf50p1DRbtm4lNKJKFV0IHDo6FOANv2TJktMXX3whJfzzzz8J0pErHHf2bNmoRIniZsnxXnTF0CyEDd5AkghJCyhDhvR09949WrZ8uTAuwByM/cOHjwgdPxh/EO63/bpd2m/5cuW4DpOKO8JDCoBv4/CRIzLrquhSQRikbfwtvGLmCG3AGDCePHlKN27cEAkCRM0rV66iChUqSJqI8PSZM/TwwUMqXbqUSEsvXLzEUr8ctGXLVkmvHH8nKVKkoB07d9LlS1ekXWXNmkX8rP1gRocO8dChw9z+/sdplZdvGmHxzQf8bm1FomHZb6GuknMnXaduAzp3/rzMMoEdmM4bN24KljkZI8u+5fHjJ4S+KBZL0YAlJAoGBeVnhImu188++8xs23//46fGSJYsmemGct27d588PLxo7NjRlC+fX/9fkdvopUuXWZIw3ZTIIGxQ3wr8A9KtW7f9+nSuH/Rl33zjIEGgUlm2bDkVK1aMtu/YQRnSp5d6C/h+VD4bfQLyEJvHAMs2aORrMDMohQoVFOkU3DCu9endiypWqkLXr183GUTLd621XyO+JUuXcbuubTyG+Ip6+frrNJT266+pKEt88uUvJAxM5+86mXGENA/mC5Fw88E2Li94wGzdxo1+//13QufWuUs37niPEvTv589fYN3dP3Tr1i26+dtvUpynT5+Sa7Ua3OA92f88NWzUhObOmy9+R48ep5969OJOvjnt2b2XXrx4QXPmzKOu33ejHuwO8VZ79w7Uq3dfExp0pJWruNIeHrRPnz4t4rINGzaa/rZ0EyumH5/4+efxJFv9BwwS7MDtDh36MzXhckNkCLpyxYcgpps1aw6BO2/UuBl1/7GHDFbwHzhoCJ3hwQmEDrSqaw0aMHAwXeIBCvXRpct/Yl57wlAKbKM/SRInZunLG8kdMHdzc6e+/QZwPZ0Vt7379lHZci50YP8BnvF7cydVmZnYq+I3a/YccmvnTmPHjWdG4jL15jbe3v1bqle/IXfQO3lWu5YKFixi1j+Y3x49e8u7mJnhHgy8QWBQpvLgAcL3+CO3HcSPb3I2561WrbrU4dtOLLaeRKf4u6ldp65IBI33A1779utPDRo2pgsXL9KIkaNYgupKd+/elWDWvtuA79vKc+LEfpKC169eE5j9WrXr0iQWod9/cJ86fdeZ/7qYWQXzV6y4M+3jidfGTZupYKGiwqAhQFB+ZgR2foP+FkweVByW1KpVC+rdq6eMAZbulveW34qlO+4xCS1VqgytX/+LqKAwmOMeBEYTbR3fxbJlK+gWTwSiG4H5gjqnWLGi/rIOacmypYtZKvO5P3fLB8v2a7ij/9/NgoBqrlUNpzBdY8WKRSWdS9CBAweDfN9aHoJ8IQI8QyxxWbV6DZ06dcrMgoODA/3ww/dUt05taVQ/Dx9BuXPlZi78Ls2dM1NmJgMG9KO169ZRvbp1TFXRkCHDKFnSZLRgwVyJa9nyFTSIB2GEAaFSFy6cR4jfoESJEtGihfNFGrF27ToZoAcPGkCffPKJMD8dOrhT61YtJThE9zN5sAfnH9X07t1f9IBnvWBGjrOYeqLXJJEWgXPewYPRwoWLWIq0SyQoYOjyFyhMv/JsvEyZ0oIbZsAL5s8lNCgMflVdq1st0sBBg0WispAxjR07Nn33XUdh4KCeK1u2jLwTXTG0WmAbc3z37h1LFw/Q4iVLydm5uJm71KlT0+LFC6TdgpF3d+8oHXqjRg0kTIuWrcnTayKNHTNKnlHf06ZOlvulPKsEszF8+DD5xuDoyswpbAnc27eTMKH5QRucM3umSGzQ1vKxjRSkO8uXL5FooP/2XruW2rZt/V60W7duo0WLltCO7dtEcojBA6qDEaxHN/Ju7bt9L6IodrjITNe4cRNEspUtmyNPDq6I5HPokEH06aefUoP69agSM2T3WHKGmeiM6TPJhaVeUIOARo0aQzt37SK8G5RfFBcz0pK/cOGiSEICStfis8qiYMECVvMR2LdiBIa/e4eOokJp08avLUKF0advP5HYo88HNW/elNq0bmW8Fq2u16/fEPVyQdYcBKQ8eXIHdDKfA7ZfwwOqulKszQgPO9KSpUpST2YM0V9YSh6NtALLg+EfWdcQMy4ODulEnGxkzLKx/jxsCFVwqUwbNmyicSw2tBSnGuGNK9Qi+fPn5w5zpTi9eP5C7AJ+++2WPGOAtWRa4JgzRw5TheLo6CjSHTAEEPs2a9aU0NgheYFkAjNYH58rEldU/8BYDTM2EAYuiOcnjB8rz8DBwSEdq392yzN+YJQFBgWMy/btO1kcX06YFviBGw+MoJprxqoIMC0g4JeDMZMZ/r+MS3TFMLAy24J72XIV5OOGpDFr1qxUnw3VW7RoZmYtV66cZrtFJw/7l7///sts+wnZYP0cq0INcvjXfgDPufldkHOJEnLFj6NjVkI8YSF0aoaaCd9n2nRp34t71OgxVqNG+8rG3x3UnSCoLl1YLTV9xkwzvLXv1vSMwpvRXCZIsdARf8l2GaXLlKLZs2awbdDnlJMN5sGUoM/ALPOPP/6QidM1loCCccmdO7e8O278BKpcqRJ169bVLElgfqhjSLYMguQB9WaPBBVSzE9ihqhowX0rRiRQOUIS5uLy38TTtWpVMTaFhD4bq8FB+ZycjFei3RX9BSjmvxL4oAoQVPs13oOaqHfvHsbjB13j8XeBb8WSQpIHy/CRcR9ixiV3rlzUoEF9q3mCrjxLlswihob9SWCEWRl0l0lZ4gLxtkGw7QgrrVu3nsXx/Xmm60yOPGONz7Y0tkKYma31Xi3Z6ccqg6PHjpnMBXTqMPCEntYgdHApU6WURzA97du1NbwCvQLT+/fvi42FZSAMMk9YhBgSsmUMQ5L/qAqzeNECYTbjxv00SGYd+YM9CmaLB5nBtqS8TnktH/+7/9eGy9qs579AYb8LTby3WQWVIQDjjPYFyU3ATi7sOYqYN93c2vJKr8bCYAZczQcbjfqscsA3ly+fk0g+LXOBWb2DQzpa472WatSsLbYA48aNoUwZM8qM35rfNzxpaPuvpABxQQJsr4SJFmzqnj175m+2D7tG9PPpmDk2KKTfCmzAYF+T6t9+EO/DDgzMMuy67IGMsmE8gG2cJd24eZMS8cTCmPwH1X7xHlSWL148pyJsU2oQuo5//vHPfMBPGKZ/+xUjbMAr0s+RI7t8L4ZfcHkwwkXmNcSMS1CZglgbHTNmmLCzMESrAd/BMtGUKVOQk1Me+unH7gG9RWLynmMwDh6eE6lhgwbmbAiD8OYtW4J5K/K9sdLEuWQZWs0qt5o1a8js9ezZs+bSuIA5Qod37NjxYFVewDQ1q54wK4akBoTBBDNIN7c2AaO1+hxdMLSa+Sh0hNTRMK4NLhswgAOT2Y6ZUSw9DE+CmgPGo5ipRgSlS5tWBm/LuKEaA6MdGgbI8v3IuofaIrA6gpFnzFgxZbUMviN07H15RYxBMHbPnj0bT4pKiGgfq0AGcv82f94cMYQPzM9YhGDEY69X9Pfoa9AWYKxt0MxZs8Uma8Mvaw0nUc8FVg9mIL5Jy20Nk9pTp06LwSr80A9CPWkvkitI+yBB38ftyzCRQDmvs1EubOB+YdwMxiWo9ot3li5ZRrVr1fL3HYKhxKQCk18sAjEIWolUQTDS6J+WsLobiwYsKbg8WIaNrHs/hWEIUnv1+pVwvOB6jT9w1tAHw0IaFtHDhg5hddFGsdMwooR0xTDMhVu9unVpxYpVEgYdBdQ7MBIEaGGhbxzS0fkLFyRPMN71mjhZDCRtbSaIQa5165Y0avRY6QRr1apJd27fIU9mvCBefvz4MRsh/yBSK+BQvZorgQmDRAYfMqz3A6PGjRvxwOItmMKgefwED/nQscIqJBRdMAxJWWw1DFSckMDBTgKqCag358yZ60/dEta8x40bl20KCtJq1nVjaTa+g1WrVoebNKRevTq8OuqhtFUwRzD8xX4QYMCjMzk4pJNVX1ANQU2ESRfIkAaPHTtejKQhUUB/AubQUOcF5SeRfAQ/kDxVrVKZ1WkTzDaNZbmz2dDc3b2dv8E0pHDgG4GdB9RzGMjxrXh4eskKHHuSXn3ftQtPsPk74vESZgT4ZocOGy42icA1JITxd9369VS7dk1/wcFQQiIKG7Rz586LRAwMyYGDB/mb9W8nibb96NEjmehicUhiXmDw7bf/qTr9RWxDDyFmXLDJUJ68+fz9QceNVUBYylWFGzDAQqF79uotHB/KCUNEDLqNGjWVYmPGiUEZBljYqAdXbGSEGU9YCIaoz54+I6d8BUTsW5g30UHHY6x4CEucEfUORMhobJiRoHF6eXmwkfJCWYJWwrm0LG3OlMmv0cJIEmqE1q3dKFduJ7rH6qDAqGWL5rwhWnVhAPM6FaBNm7bQlMkTZfYS2DuW7tEJQ8t8R6d7tO9JE72k/stXqEi58zjR2rXr2XYi7GpSy/K3b+/Gy5VPUvYcuWVVXkg7P8s4ArvHLHgyt6cFbEyeO08+WdWHTcaaMMMcnQkG/JBSVqteQ1YMYW8LdNw+V69KsbDM9wEzbDCax4oizPo7dGgfrF90xiS0eR8x4mdWs+XllaLVWSKSg9q6tefVLa5hbteQ4GGDNmBdrnxFifdTVhOhP7MngoQKhveQ4GXNmp0l61Vk3OrVM+S2Kpg8ZGfprbFhnYEPVG0zpk8ThgUrU514TFjHq7KwOR3GaUvCgo/CRYrLhMrYGwrv2zqFaOfcDy0EVi+gQVoCAgkLuD10FOFBEI3BANHWRdfWyorZHowbDYt5hMEMDxIpMGFYVYQ9NLCSY/euHf72UrCMD5hC4mKIGS39QnIfnTEMSflsJQy+B6IYEbJ5HJZGhmRjyLBiAclgeH2zYc1DeL8HKRX6DajcrBFs0WLG/MSqf1B+1uKyVzf0VdgSA5Ll8OqD8Z2A4Q+sXuwFS3xT2OfM2PQtpOWC0ACriSzVdAHfRduGlBT7eNkTRQrjYk+ARVZZli9fKWLADu7t6TkzI54sLgUDg91aw6tjiKyyaDqKgCKgCCgCikB4IaCMS3ghGc7xQHoyecpU2dUTkhDYMPzAyzHtbbYbzrBpdIqAIqAIKAJ2joAyLnZewVo8RUARUAQUAUXAnhAIsXGuPRVay6IIKAKKgCKgCCgC0RMBZVyiZ71prhUBRUARUAQUgY8SAWVcPspq10IrAoqAIqAIKALREwFlXKJnvWmuFQFFQBFQBBSBjxIBZVw+ymrXQisCioAioAgoAtETAWVcome9aa5tBAFs1x3W4yo+pAg4+G/Xrt0fEoW/d8+fvxAuxw/4i9TGHsIbsw8tnq3l50PLo+9HXwTQh+GYBVvccd4aqsq4WENF3RSBYBDAwXKdO3floyYKUs5cealpsxaEk20NwhleOCE3omjNau9wZVzOnTtHM2bMiqjsRkm8AesgvDH70ELZWn4Clqd9+w40aPCQgM5UvUYtmjR5irjjrLVs2XPKX+HCxajTd11oPW8vb0k4h8cIgyuOMKlcxZXPNJobJUy/Zd4i4t4oL8oXkFyr1aRp02cEdLb6HLD9Wg0UTo44O238eA+6c/duOMUYsdEo4xKx+GrsdojAlSs+1Kx5Sz56ITVt2vgLrVyxlL5MkoRq1qpD2AIe5Ok1kYYOHWaHpY8+RdI6+LC6evPmLb3lv4D0+vUbevf2nTi/ffeWv4M0/B1soDlzZ1GxYkWpX/+BNHfuPPM1nAGF72LWzBkSbsXypXw+XVUaPWYsTeRDce2NjPKOHDWKfvvtlr/ivebDiiGlDQlp+w0cpViBe6mPIqAIWEPgyJEjFDt2LJa4dJJjGJInT8anCPekCi6V6dixY3SfD8QEc4MzQhYvXsKnt9aScHfu3BEpyVue3eDk7uTJk0v0ENMuW7acXFxcaP/+/XSLJTcuFSrIoaVG+nISLJ8WjkP/ihUtYjibVxxKt23br3Tjxk0qXLgQ5cyZwzwaYufOXXJ+0cOHj0Qq1LRpE3kPUqNjx4/Licf/8NlY9kQrVqx8rw6M8p0+c4b27d0vh8MWKJBfcDLqoFixYnIie4b06QVHnMGDc8IOHTpMX331PzkXBufKgHBy8fnz5/0dXPfLLxsoIx+gmjFjBglz8+ZvtGXrVjmHphIf6oi6KF68GMf1lfjjx1p+TM9ocBMnTmzz/DQc7pksaVJq0bK1nOicKVMmswRo76lTp5LnDBnS012WSi5bvpw6duxghrGnm6RJk1EPPk9o/vw5gRYLZ9IdP36CDh46RKlTpaJKfOgqzmey1n5X8onvJYoX534jmcS3d98+SpwoMR9umVWeL1y4IN+/cXYR+p+9e/fRFR8fyp4tG5UoUdzMR8A+oW7dOqYfbvA9rF69hhwcHChv3jz+/GzhQSUutlALmodohUDJkiX59Np3tIiZEgxsIBxiduTwAZlxXrx0mR7/8ZieP3vOA9sFCYOBD+LxPdyRnD59msqUrSBH2uNdMB09evamxk2a0nIecA8cOEily5SjPXv2wls6kUaNmlLvPv3o0sVL9ONPPen4iePihx90ULVq12Xx/VS6/+A+i+s7i8jeCDBnzjxyc3Onvv0G0JkzZ8V52rTp1LBRE9q/7wCtWLmKT6odaQS3i6u1OkDBtjJzh8EE4vz27h3kpGu4G3VQr35DZiJXCPMI9779+lODho3pwsWLNGLkKKpc2dW0Azh48JCcqotwBkGKsP/AAXkE84rTeWfNmkMnTpykRo2bUfcfe/DgcsMIHmh+zADR8AaMMw7UPchtPihKwgfsQnpjrzRwQD+ZGCxZsjTQIvYfMIhat3Gj69eus4T2Z2rStLkcsGut/WIStHbtWjOu7t170Nhx483nadNn0s5/7d5w2GpV1xo0gE+fRp+BNLp0+d4Ma61PMDzBTP3Q/SeaMnWaMC6Guy1dVeJiS7WheYkWCGDG0717NzmSfjrrqxs3bkS1a9U0z5Hq2eNHFo3/SX/8/gcN4M4LhJl5hw7u1LpVS3lOmTIlzeQBrSLPwg2qUaM6tWrZQh5hX7Bp02ZhhNauXUcnTp7kk8G3U4oUKQjSFxxHb5APz6gwsx06ZJCcpNugfj2qxAMsdOSGVAdqrcWLF8hs7smTp9zhTaB+fftQ8+ZNJZrhI0bS6lVrjCij/dVaHaBQSZN+RYsWzhccgCs69sGDBpjlBR5tWreS561bt9GiRUtox/ZtIv0Cc4MT2keMHE1jx4wy3wnsZu26dZQ1axZaMH+uSNzANFrWG94LLD+WJ8UHFr+tuuOU46IsFYQkoQl/GwEJ9hSQ9i3mAd3Z+T8pQMBw0f3566/TULfvu9IQZkicnZ1NSYlRrh07dtLChYtY+rdLJHA4ky5/gcL066/byVr7LcUTpr379lObNq3p7Nlz9A9LRfax1OXVq1fCKGLCM6B/X4l+4KDBMplauGAuS4dj03ffdZTJUuXKlahs2TISxrJPwCnSBvXjCc7hw4dp2dIlIqk13G3pqhIXW6oNzUu0QQCD2+5dO6hB/fos1l1FBQsV9afXD1iQZs2aUjNW0UDyMnXqdFEz+Phc8Rcsb57/RLKOjo4irUGAo0ePsTjYUZgWPH/66acsVk6NW6GcOXPS6FEjxBh4wYJFzPBsESnNNZ7FGZQrV04ZrPEMkTI6uzJlShveBNUI60zMZ3u9yZkjh4kDMP3999/pwYOHZnHzOTmZ95CoZOMwadL4YY0BGSo8iN9DQtu37xTxPE51BxnqI8t3g8uPZdjodP85S1wCUtlyFShzlmzkmC0njRo9lurXq0t9+/QOGMyunsEIQy3Wu48fQ2FZOKiHHBzSsfpwNy1fvpK2bNlGqVhdZEhFLcPivlSpksJQgPHbvGULVavuyv1CNtq9ew9BJfno0SMqUsRPjYy2W5a/bzAtIKh8cnDbh3rJIMs+wXCbNGmKSJLnzpn1HqNlhLGFq0pcbKEWNA/REgFIXtq1ayt/CxcuZrVDH8qXL5+pc7Ys1Dq2T4HaATMvR56Fx//XTsIyTMB7X/KzO3n27Bk5pEsb0Nt8vnfvPtVnFUfKVCk5fSd/9hNmIIsbzOwwCKfi8EqBI3CbbZIy/GurYoQCEwP8IE4Pji5dukTtuX1EVwIf+4+vnyrUsgwwPo0RDJN74+ZNql7N1fI1WrxogQzMceN+SgkTJvTnZ68PkJyNGP6zqIm9WcJnSbBHg9Hy9h07TGfYq+A7tkbZsjlSvHjxRZK1ZctWlhQOlG99M98/4TZZsGAB+vzzz2TSAjs7MEyWhLb7hFVIQRFs9L74Ij5tZGlv+3ZuQQWNUj9lXKIUfk08OiKAVROPHz+mCePHmtmvU6cWQTwLQ0vDWM705BsPXjbasEED6tatqziDkcGsKSQEka63hW474Dsw7MUTsMkAAEAASURBVI0ZKybNmztbpAmwu+nbt3/AYOYz4oPa4wznFdIaJesIpEublrDXiiVBxYH6xcAdnzv4F2xfZEmWAzrUgceOHfenDrQMa+v3yL9hr2PkFRIqn6tXKWXKFIbTe1dIDE6dOi0Dq6Xn//73P0qWLKml00dxDwYCBsj9ud+AIbNBYCTOnj1LXp4TDKcgr2hbJZ1LiIrt0aPfxbgceHp5TeJVXm8JqiQQjHthBA2piyFVBaMNVZKbWxsJE9gPmCxICNu0bUf58+cjSwlkYO9EhbuqiqICdU0zWiNQvFhR2asCahl05GBiJrNhLJY55maVDCgZryjAqglY54O+cUhH51lFA/sSGIZ68TJQGCaGZOZerVpVXg10R9J4+fKliHsPHjoo8eLHwSEdYcUQVEN//MF2NWy3AYI6yBph4IVNDPZtgIj5/v0HNG/+AuLMWAsebd0C1kFoC1KvXh3G9SFhr5I/mUHBLHfDxk1Us2YNiQrtAHWP1VxgBFfxqg9L9RwkDmBQMaNGXXh4eIU2C1EavkqVynT16jWaMmWatHPcD/t5BCVI8IWoLYzMoY2jXf/22y1ZidKyVRv6odv3BAmBkh8CkF6kSJFcvjUDk1psF3eHv2u0r+fPn0tb6vr9D6aK2Fr7hboIq31gpwJpDlRLkJxiNVvp0iWNqMXubo23t9jLvHjxgsZP8JA2itWMQVHiJImpZElnsfPq2LEz5yloCU1QcUWknzIuEYmuxm2XCKDTmDplkti0FGLblmLFS9LJU6do0kRPypw5s5QZRrewncjCOn0wNzCOe/b0GW9YV0DUOoULF5TBLCQ7VYLJGDJ4IEttPGWzu+HDR1H27NlNbJEWZlbVqtcQWxuI8hPzig3MjK0RZm4eHuPo2vUbVKp0WXKpWImwjNXeKGAdhLZ8aVniMnnyRFrABpS58+STFUiNGzU0DU6BcaeO38pKoWxstwE7Bcx0DWrbtjXldcpLrVu7yaZr91h8H50Iqocxo0fyRnFzqEDBImJY/FncuLR82VJKwvsWGYSVc3ny5iPXatXplw0b6Uc2XIcKVek/BCAFEWkGXw3CN+fl5UELFiykfPkLUQnn0qym+YInFX7forX2W5yX0sdkhqVcuTJGNLJEP3WaNIT2alDLFs0Jxv4dvu3EbbCA2L1N4bZsGcYIa+36/fdduC2nZgnxDyGaXFmLIyLdYvCMz76mWRGJlsatCARAABIQiFZhMxKQoLKBPQQGOIPwnCBBgmBtBIzwllfMbJ8/f0GJElm3D8DKADAlMN4NKUFCg/xZqjhC+m50CGetDsKSb0hWLOvRMg5I2oB9/PjxLZ2lw0f6kLagjWA/GKxKglG3JYPj7yUbfUD50a4+//xzG81h9M4WvsNEiRKJFMWyJB/aftFnQOJibzZFyrhYthK9VwQUAUUgnBCABGbd+vXUwb09PefBw9PTSxiYJYsX2i2jGE7QaTSKQJAIKOMSJDzqqQgoAopA2BDAbHfylKliAwNJW8GCBdn2o2ugkpuwpaJvKQIfHwLKuHx8da4lVgQUAUVAEVAEoi0CapwbbatOM64IKAKKgCKgCHx8CCjj8vHVuZZYEVAEFAFFQBGItggo4xJtq04zrggoAoqAIqAIfHwIKOPy8dW5llgRUAQUAUVAEYi2CCjjEm2rTjOuCCgCioAioAh8fAgo4/Lx1bmWWBFQBBQBRUARiLYIKOMSbatOM64IKAKKgCKgCHx8CCjj8vHVuZZYEVAEFAFFQBGItggo4xJtq04zrggoAoqAIqAIfHwIxPr4ivzhJb7ic+PDI9EYFAFFQBFQBBQBRSBUCGRIn5Z0y/9QQaaBFQFFQBFQBBQBRSAqEVBVUVSir2krAoqAIqAIKAKKQKgQUMYlVHBpYEVAEVAEFAFFQBGISgSUcYlK9DVtRUARUAQUAUVAEQgVAsq4hAouDawIKAKKgCKgCCgCUYmAMi5Rib6mrQgoAoqAIqAIKAKhQkAZl1DBpYEVAUVAEVAEFAFFICoRUMYlKtHXtBUBRUARUAQUAUUgVAgo4xIquDSwIqAIKAKKgCKgCEQlAsq4RCX6mrYioAgoAoqAIqAIhAoBZVxCBZcGVgQUAUVAEVAEFIGoREAZl0hA/59//qF37969l9LNm7/R+PEe77lbc/jrr79o3PgJdO/ePWvewboFlZavry/9/fffwcahAWwLAbQJJUXAVhB49eqVrWQlWuXj7du32v+Gssb0rKJQAhaa4Ldv36aevfrQ4cNHKEaMGFSypDPVrl2TSpUsKdHs3buPGjdpRteuXg42WnQKjtly0soVyyhPntzBhg8YIKi0+vTpR48ePaJJk7wCvqbPVhC4dPky1ahRy/SJFSs2pU6diurUrk1NmjSimDFjmn4RdbNv/35q1aotHT1yiD7//LOISiZax1ulajW6du3av2WIQV999RUVLlyIvu/amf73v/9F67JFdOY3b95CXbp+H2gyw4YNJdeqVcR/wgRPWv/LBrp06RIlTJiQGjdqSF26fCffgS18K4EWIoI8smXPxTH7Wo29JPf9Xp4TxG/nzl00bdoMOnL0KGHyWKxoERo4sD+lSpVK/EPbfj09J9KkyZPNdOPFi0+ZM2ei7zp9S/ny5TPd7eFGT4eOoFr8888/qXqN2lS0SGHasnkDxY4dh9asWUPt2nWgnTu2UfLkySMo5dBH27ZtG3rz5k3oX/xI3/BlCdrLl69oyeKFlDJlSnr9+jVt2/YrjR4zlp4/f04dO3aIcGTy5slDM2dMU6YlCKTB7Ddt2oQaNWwooU6cOEFTpk6j5i1a0ZrVKyOFwQwiezbtVbx4Mdq0cYPkEROw+g0a0by5syldunTiliRJErmOGTuO+zVvGj1qBA+SmWnPnr3Up29/ysQDJhgbW/hWJKOR+LNp4y9maq1ataGixYpQyxYtxO2zz+LK9cSJk9SxU2fq3r0bTZzoQVevXiNgOWjwUJr87wQytO337bu3PIFKQzOmT5U07t2/R4sXL6WGjZpKe8+aNYuZr+h+o4xLBNXg3HnzKVasWDSKP2hcQW3atKYDBw9J59mvbx+rKd+6dZt27dpNEB+WKFGcvvnGwV84qJxWr15Dd+7epUIFC1LevHn8+R89doxn4cfo67RfkzO//9lnwc/G73MDf8PpZciQXkSWy5YtJxcXF9rPs/pb3Gm5VKhAadKk9peOPpAwn5C0gIDdXVbjLVu+XBgXzKYSJ05EDx8+InT8GEBBuN/263aRwJUvV46SJUsq7ggPKcDLly/p8JEjMuuq6FJBGKRt27bRK2aOKlV0IWPAePLkKd24cUMkCGgrK1euogpcT0gTdPrMGXr44CGVLl1KpA4XLl6iXDlz0JYtW8W/XLmylCJFCtqxcyddvnSFMFAF1bFB3Xny5Ck6dOgwSy7+x2mVp3jx4klckGqcPXtOBq6tnNc6tWvZjEQjYYKEIg1DRlFXyZMnozp1G9C58+cpPuffWr4x6YCE8oqPD2XPlk2+Q7x/+vRpunz5CtWsWQOPBFXdihUrKQ9/gzdv3KREiRL6m9kuW76C8jnlJQcH/9+wvGzjP+g3jLb99z9+auRkyZKZbsj+vXv3ycPDi8aOHW2WuyK30UuXLrMkYbopkUFYTNSM+AJ+K/C3JzLKiTLFjhObLNugUc7BzKAUKlRQpFNwy507F/Xp3YsqVqpC169fNxlEy3cRr2X7zZE9uxGdeY3D6Rnp45ond27ay8zkGm9vypQpI6FvL1asGG3fsYMypE8v/UdQ3/YvLEmDpDJ/fj+JDb71gzyGlS9fnjZv3kylSpUy+7A7d+7I2FWbv39jzDMzFs43auMSzoAa0YGjBuMQsALBDQfGtIBhKVWqDK1f/4uIXtGIcW9JP3T/kTZu2iwz/Np16nGDXGt6jxo1htq3/1YGx3lz51OhwsXoxYsXpn9gNytXraGFCxeLNwbBHj17swqrKS3nTvnAgYNUukw5mUkF9r66+yGQJHFilr74Sa7mzJlHbm7u1LffADpz5qwE2LtvH5Ut50IH9h/gGZA3d1KVycfnqvjNmj2H3Nq509hx45mRuEy9e/el9u7fUr36DbmT2cmz2rVUsGARYVbwgg8PqqgnEGZmuEfHYRAYlKk8eIAOHzlKP/7YQ+I/f/4Czea81apVlzp824nF1pPoFA/ItevUpalT/cIbcVhe+/brTw0aNqYLFy/SiJGjqHJlV7rLzDPo6NHj9FOPXsycNac9u/eGqM1Zxh2Z94kT+0kKXr96bTXfjx8/oaquNWjAwMF0iZm91m3cWO3hpzJBB95/wCBazRIG0PTpM6W+kvOAfvz4CerVq69ZlIuMU/fuP9Enn9hvFwtGDipwqDgsqVWrFtS7V09h7CzdLe8tvxVL94/hHvaEZ8+dYwaiqL/iZsyYgZYtXcyTzc/9uVs+WLZfS/fA7qG2TsDqO/RLRt+OPmXZshUyKcV7QX3bL5iJxzfw+++/Exiczl26SX+SJElimjxlGkt0lphJL+L7+QsWvjfmmQHC8UYlLuEIpmVUmFlnyZLZ0inI+3fv3pF7h44iOoRkBjRx0mQWu/YT2xijA2zVsoU5ex8+YiQt51ldNdeqIinBjH/SJE9yyptX3i9X3kVmhM2aNZXn0PzUqFGdkBaoffsOtImZpYAfWmjis+ewqLv9zIwsXrKUnJ2Lm0VNnTo1f9gLRCWB2bm7e0fp0Bs1aiBhWrRsTZ5eE2nsmFHyDInHtKl+OuqlPDMCszF8+DCqW6e2+LvygApbAvf27cw0QnoDHfqc2TNFYvP06VOeIRcU6c7y5X4dz+TJU8l77Vpq29av7VnGu3XrNlq0aAnt2L5NJG/oAKE6GDFytJl3dMYLF86zaekCmIlx4yaINChbNkdmAm/Kd2OZ7y5du9GXX35JCxfMZfVubPruu45UpmwFZtQqUdmyZZg56UHDhv1Mjo5ZycPTkyaMH0cJEiSg6tWryfd65YqPSN82b95KOXPmpLRp01pCaVf3Fy5cFIlwQHuh+PHjM5NdwGpZA/tWrAa2U8fr12+IerlggfzvlTAo+8WA7fe9lwM4/PHHHyyd9xbbo59++sH0bd68KbVp3Uqeg/u20fdg8vzz8BGUO1dulrLdpblzZsq7NbjNQyKDbwS0Zcs2qsnjRmSQMi4RiLKl3Ugj1jOeOHlCUkv/TXry9l7lL2WIrCGihorGINeqVWkkDw7nWaydjUXWoBw5chjeVKZMaZo1a458BHHjxhU98+PHj2nDho3kc/WqzIbQkYaFYENhkKOjI0GVoeQfgbLlKgjGmIlkzZqV6terSy1aNDMD5cqV07SjQCcP+5e///6Lmc2VEiYhD3jnuN4NckiXzrjlTiKn3DuXKGG6YbBEPGEhDK6GmgkGlGnTpWWJoP+4R40eYzVqiIazcRsw1IVx4sQR9eH0GX4dGF5KlCiRTTIto7lMkGKBcfuS7TJKlylFs2fNYNsgv1ltwHyjrM1YrQemBQQ1D745kZYx41Kvbh3pyCGxgrgc3yAIs2UwQ+jIO7ExJCRe1aq7ip+9/kCFFPOTkBmiB/et2CtG1sqF/gIUM2bww29w7Tdg/KL6zOI3VsSKFZOKFCkiqjwsCIFkFpTPycl8LSTf9s/DhlAFl8o8rmyicawWRP8Bqs7tGytdMcagT4BxdtWqlc24I/ImeOQiMnU7jhsd/b69+80SeniME1HdvHkLaPOWLaa7cQMJDfTKqVKlNJxEd4gGAXsGa5SC9cZgju7cuSszH8wWIbLG6qVvHNJJY/INxLrdWnxBuYVXPEGlEd38Fi9aILYoceN+an7MgZUB9iiQmh1kGxFLyss2EFaJRfAgiOIjgkIT721WQWXggdmSwMRAcgOGwJbJza0tr/RqLDgmTfpVkFmF1Oj+/fsiMbEMiLI+YRWSQWVKl6Ldu/cQrpYEKeXSJcuoTp1aYkMzbdoUS2+7u8fqF9gBPXv2TKRORgHRJ8FWLx0zxwaF5lsx3rHXq9HHwx4R9j6WdOMm20oxY2AwB6Fpv4gnU6ZMIlnFPWyuPv30U9wGSsF92+gnYAsH7QHUzAUspESQJkJCBGY9Xvx45MQMEcJGBtmvAjYy0AsiDVTombNnZZkxgmG2CwO1L774wupbaATgiE+dOm36Hzt2XJgdzLQNshwo4A/jThjwwlYCRrsTvTyof78+ok5Kw6qKGPxPKWIQgIgc+BudTFCpfP11GlFLtGvXVpZDYkkk/oYNHRzUayHyQ+cUi3XZkNhFBKXjtomZmSVBNYZ2GRoGyPL9yLqH2gJ1FBzTgvzAHgAGjZZlxfcGOy9HlqaAsI/S6DHjeDl8dRo8ZKgM2uLBP1hFA0nnpElTxJjRMLw2/O3tCoki8EFbsKSZs2aL/ZSh3oZfaL4Vy7js8R7SPkjo9rEBuCXBKLdMmfJ0/8ED0zk07RcvxY4dS9o72l5wTAvCh+TbhtoaEy/UN2y/LAnfAdTXWD7v6uq3PN7SP6LulXGJIGRRobA1+YEN9AyjSUhV9uzd6292YiQPMTOYHYje0IDBiHh4eonlOZbcGjTBw1MMpSCWgwFoSWdn8ULHjFUe2BMAS3XBBcOo8+W/4kHjfb1GDQJQt6GOYUCNuoWuf86cuWSpbglrzqAmLMgrzGA0iqXZ2Dtj1arV4SYNqVevDq+OekjYJwLMEdQgGzZuMlfXhDXftvhe48aNZAXGr7zyC4bt4yd4yOShPK/CAsEIGVscjBk9UuxXLDtyGO8WYT8YKBp7nNhiGcMrT5kyZqSqVSqzKm6C2ab37NlLs9nQ3N29nc0zteGFQ1ji+b5rF5a883fEan3Yv+GbHTpsuNhRAdfIouC+bTDqWAGFFU/Dhg6R/OLbMKhK5cq8lPuqSPorV6poOEf4VRmXCIIY3O706VN4KVwCWaWQKbMjVarsKrPzGdOnvZcqZq6YgcPwsVz5iuRarTp9ymqiKZMn+gsLUaBzyTLkUrEKMyUvqUMHd/GHJKdXz59kZUj2HLlo2vQZ0sFi9YlS1COA2fykiV6i2itfoSLlzuNEa9eup/D62Nu3d+Plyicpe47csronPDs/SAMncztcsHAR5zsf9eIVT9hkrAkP8vZGLVs0F2kKVlzldSrARulb5BsEBph5YjPJfizRBA0ZPIjrcB1ZduQwWERdV6wYeZ14VNbBiBE/s6F3XumvHB1zUFu39rxYwDXc2nVUli0i08Z2AjC8H8gSjKxZs3N7qSIS9149e0Rksu/FHdy3DUYdS7WrMIMKlem337rzpqq9RU2MyLD9grNzCWHYDRu69xKJAAfdOTcCQA0YJcSpMJoNacViLw90foGJ+mDcBfuCxLz8NiAhLeicQ6K+CPiuPkcOAqhftl6JkM3jsJzX2MslIkqDdmyt3UVEWlEZJ+xdIHEJ7Xc0Y+YsUQHM4M0BPyZCn4Qls1AJ2br60NbqBd8UpOWwZ4xKCuu3Xat2Xd7ksUGkSmCVcYnKlqJpKwKKgF0gACYHhvHfde4ikrXAlgPbRWG1EIoAIwATCKinsZcLdgsOyWan4QVcrPCKSONRBBQBReBjRQAGiuPGjqd2bm6B7mHysWKj5bZPBHAOHyS8Y3gfqshkWoCmSlzss01pqRQBRUARUAQUAbtEQI1z7bJatVCKgCKgCCgCioB9IqCMi33Wq5ZKEVAEFAFFQBGwSwSUcbHLatVCKQKKgCKgCCgC9omAMi72Wa9aKkVAEVAEFAFFwC4RUMbFLqtVC6UIKAKKgCKgCNgnAsq42Ge9SqmwGR020rIVwtbW9kYoU1RgvMZ7Le3atTvc4MQBauFx/EC4ZUgjUgQUAUUgEASUcQkEmA91xrku2bLnNP8KFCxCTZo2pyNHjnxo1CF+v2/f/rxFc6cQhw9rQBywZVnWgPfevC36vv37KUfOPHKOUljTsaX3cLBc585dySlfQcqZKy81bdaCcBaVQTjjAyfkRhStWe0drozLuXPnaMaMWRGVXY1XEVAEFIFwQ0A3oAs3KP1H9PbdWz5pNg3NmD5VPO7dv8c7DC6lho2a0prVK/l8iiz+X4iAp7Zt28jZOBEQtb8oixcvxjsnbhA3DN71GzSieXNn87H26cQNRx188kkMmsnboH/++Wf+3o2OD1eu+FCz5i2pbZvWsmPk06dP+CyfqVSzVh3a/us2KaOn10T64/c/aOJEz+hYRM2zIqAIKAI2i4AyLhFYNXHixGbmJZWkgGue3LlpL5+eusbbmzJlykjL+NC2YsWK8SnOOyhD+vRUuHAhOdEXW4cfPHSIUqdKRZX4xE2cWwSVxPLlK6h8+XK0a/ce2W65QP58fMBZPsJJ0bs5XhxRXqJEcT7aPLakeZ+ZpTd8aGOGDOnl9Nbz58/LYVlGkXGCdEY+iRRHrO/cuUvOGcE5OodZKpSK067oUkEkJNu2baNXfOpwpYouVs9bwq6JRjn//sdPNZUsWTLTDendu3dfjkZHGQ0Ck7ONTxrF2Sbly5WT49jhh7zgvJ2HDx+JFKNp0ybGKzZxhdQMx8d37tyJYsWKRcmTJ6PevXtSBZfKdOzYMbp//z6BucFJytgOu3btWhIOW2RDvfOWT4bGacPJkyeX8kDVhLbg4uJC+1kydYtxcalQQQ41Mwr85s0bWrduPT3gU5qLFS1iOJtXHM65bduvjPFNaUc5c+Ywz4wJDE9IjY4dP04OzGD+w2pFJUVAEVAEogMCyrhEYi2BAUmQMCG9fv1GToHu0bM3pUyZkr788ktq0sTvpN3+A/xOnC1XtgzNnTOPFvHAt2D+XDP8zFmzyTFrVnr06Hfeankc1a9fl3YzI5M/f36aNWuOMBbea1ZKqVauWiOHMRYtUoQOHjzEJ0dP88e4jB4zlpo1ayqMyyw+ih6D7ddfp6FkSZPSpElTyJvtKKDuAGNz//4DGtB/IG3duolwomhoCadUo7z169eTV/fu20etW7tRqZLO9ODBQxo7dhwtW7qE0qf/huZwucFkfcJ4FS1SOLRJRXj4kiVLUh9Ww6FucLjYJ598InV45PABSRvH0z/+47FIu2A7ggPoDh06TG7t2lPRokV5e+y4fDLsSBo1cjifCuti1u38BQuZeUsmcYwYMYpmzZzOjG1RsaFpxJK6s6zOceFTZXEi8d27d+mbbxwkLBgkSLlixPiEnJzyUKfvOlPOnDnJY8I48beG57Rp0wn5RNs4duw4nyx9ymR45SX9UQQUAUXARhFQxiWSKuaPP/6g1WyXAOnITz/9YKbavHlTatO6lTzv2LGTFi5cxKfL7qKvvvpKmI78BQrTryyVMCQV7u3bUfXq1SR88xataMWKVbRn9w4ZOG/e/I2cS5YWyUZYmAuor6ZNnSxxL2UJwI8/9pCj1+vWqS1urq41CGeyIA8fQpAeubt3pN69elKjRg0kqhYtWxPUK2P53AtQ6tSpWVqxQKRN4mBDP5CwdO/eTY6knz59BjVu3Ihq16ppnprcs8ePLKn6U1RFAwb0k5yDEevQwZ1at2opz2BYZzKjCcbFoBo1qlOrli3ksX37DrRp02ZhXMConDh5knbv2k4pUqQQhqiqa3XjNZam+bAELxMNHTJIThRvwMxhpcquLOW6Z0p1LPF88uQpjR03gfr17UNof6DhI0bSamZ0lRQBRUARsHUElHGJwBo6e/YcZc6STVKIFSsmFeHZ7dixo1nKUJJevXol7vmcnMwcQD3k4JCOVSX/rRaByubMmbMm4+Lg4DfLxku5cuWkP1/8KUwLniEtwfHoFy5cDJNUBCoDg3Jz3CDnEiUMJ3J0zCpxmw5hvEH+nj9/zpIEqL/8pEMJEySgc4yXQSgbJFS2SmA2q1apwszoGmEeR44czYxYDwpMrQXJ1jtWEUHycuLESVHd+fhc8Ve8vHnymM+Ojo6iMoPD0aPHGHtHYVrw/Omnn7IaMTVuhSBdGT1qhMR54MBBApMM9dO1a9dNxsUSzwsXLkj7K1OmtBGFqCpZZGM+640ioAgoAraKgDIuEVgzmAXPmT1TUkiUKKEMOEElB/uEly9fic2LEQ7MQspUKY1Hf1fYhgQka24Bw4To+d+4wy0+i0Rv3Lgh6pWDPIhbUl6nvJaPNn8PyUu7dm3lb+HCxdSrdx+xOUKdBSTYp/Tt15+cnZ1Z1ZeF4jODGRz5kp/dybNnz8ghXeDqOdgP1a/fUNpJvnxOIq0LKu6nT59SnDhx2I7JersK6l31UwQUAUUgqhFQxiUCawAGnMmSJQ1xCmnSpKazZ8+Sl+eE996B0eyHUPwv4tMLtoWwpIhgSizjD+wekiFIBDDo58iePbBgNuvej219Hj9+TBPGjzXzWKdOLRo4aDCdPnNGJFOmx783Hrw8vmGDBtStW1dxASOzecuWgMGsPkPN4712rVU/OMKwNyZL9LCSC1Iq2NRgKXxghPhgzHuG8wppjZIioAgoAtEJgU+iU2btPa+12E7izu07hD1goErB4Nj1+x/YUPXCBxe9OBt5Ij6sPMGgtWrValElfHDEYYgAao9s2Rxp1Kgxot6ACmXOnLnRZgM0YLl+/S+0YMEi+v333wVXLIeG7Y6hYkuWNBndZRsTMGigbxzS0XlW0cC+5NLly+Q1cbIYaWOTwOCoWrWqvLrqjiy5BgMLw+aDhw6arzk4pJMVWFANQU00YOBg8TPUkWbAf28gEYI0cPx4D4JdFAyv581fQLykLWBQfVYEFAFFwOYQUMbFhqokEy9N9vLy4AFxIeXLX4hKOJemL774QpZOf2g2EydOTJ06fkvd2eA2W7acYltiLGH+0LhD+z6kApMmeomRafkKFSl3HideKbOeKvPS7+hAZXnF19Qpk2ju3HlUqFBRKla8JJ08dYrL5EmZM2eWIsDoFqulsrCNE5ib777rSM+ePuMN6wqIWqdw4YJiZ4LVQcERmIwhgweSh6enbHY3fPgoym4hqUJasFepVr0GFeT8+LLEBfXtc/Wq1aghafPwGEfXrt+gUqXLkkvFSoS2p6QIKAKKQHRAIAbP+HSaZYM1hZlzokSJxBYkPLMHqcBr3pMlfvz44RltmOPyU4HFiLYb0yH/2MsFNiMBCSob2JOAiTAIzwnYEDksajpIb54/f8HtIqERnb8r6hXxwng3pIR2hvyFJT8hTUPDKQKKgCIQnggo4xKeaGpcioAioAgoAoqAIhChCKiqKELh1cgVAUVAEVAEFAFFIDwRUMYlPNHUuBQBRUARUAQUAUUgQhFQxiVC4dXIFQFFQBFQBBQBRSA8EVDGJTzR1LgUAUVAEVAEFAFFIEIRUMYlQuHVyBUBRUARUAQUAUUgPBFQxiU80dS4FAFFQBFQBBQBRSBCEVDGJULh1cgVAUVAEVAEFAFFIDwRUMYlPNHUuBQBRUARUAQUAUUgQhFQxiVC4dXIFQFFQBFQBBQBRSA8EVDGJTzR1LgUAUVAEVAEFAFFIEIRUMYlQuHVyBUBRUARUAQUAUUgPBGIFZ6RaVyKgD0gcMXnhj0UQ8ugCCgCioDdIZAhfVrSQxbtrlq1QIqAIqAIKAKKgP0ioKoi+61bLZkioAgoAoqAImB3CCjjYndVqgVSBBQBRUARUATsFwFlXOy3brVkioAioAgoAoqA3SGgjIvdVakWSBFQBBQBRUARsF8ElHGx37rVkikCioAioAgoAnaHgDIudlelWiBFQBFQBBQBRcB+EVDGxX7rVkumCCgCioAioAjYHQLKuNhdlWqBFAFFQBFQBBQB+0VAGRf7rVstmSKgCCgCioAiYHcIKONid1WqBVIEFAFFQBFQBOwXAWVc7LdutWR2jsBff/1l5yXU4tkKAm/evAkyK2iLf//9d5BhPkbPkOASHLYfI27BlVkZl+AQUn9FIAACly5fpmzZc5p/uXI7UeUqrjR79txI67z37d9POXLmoZcvXwXInT4aCFSpWs2so2zZc1HJUmWpR8/e9OjRIyOIXoNA4J9//qE5c+ZS/QaNGMdcVLhIcRo8eKi/Nr5//wHq3LkrOeUrSDlz5aWmzVrQ7du3zVhRB9OmzzCfP5ab4HC5d+8eDft5OJUqXU6wrVipKm3YuMmEx9NzItWuXc98DuoGYS37owIFi1CTps3pyJEjQb0Wrf2UcYnW1aeZjwoEfLlDB8Mwa+YM2rRxA61YvpRcq1al0WPG0sSJkyMlS3nz5KGZM6bR559/FinpRcdEXr16RU2bNpE62rTxF+r2fRc6c+YMNW/Ryt/gGx3LFhl5njJ1Go0YOYratmlNx44eop+HDaHtO3ZQr159JPkrV3yoWfOWlDp1asb4F1q5Yil9mSQJ1axVx2SoUQfv3r2LjOzaTBohwaVN23Z04sRJmjBhLB3Yv4caN2pIHTt+Rzt27JRyvH33ll6/eR2iMiFs6tRp/m3nG7gP8qBkyZJRw0ZN6fz5CyGKI7oFihXdMqz5VQRsBYHkyZNzh5FKspMhQ3q6y7OoZcuXcwfUgXbu3EWJEyeihw8fyQwUAygIs9Ftv26nGDFiUPly5biDSSruCP+///2PO/yXdJhnSqlSpaKKLhVkANi2bRu9ev2aKlV0oSQ8MICePHlKN27coMKFC9Hbt29p5cpVVKFCBUkT/qd5gH744CGVLl2Krl27RhcuXqJcOXPQli1b4U3lypWlFClS0I6dO+nypStUvHgxypo1i/hZ+8Hs++TJU3To0GH66qv/cVrlKV68eBIU8Z89e44yZ85MWzmvdWrXkrJYiyey3RImSGjWEeoqefJkVKduAzp3/jzF5/xby/eff/5Je/fuoys+PpQ9WzYqUaK4ZPv06dN0+fIVqlmzhjxDDbBixUrKkzcP3bxxkxIlSkj58uUzi7hs+QrK55SXHBwcTLfodAMM0EbRhkDOziXI7UFb8vDwFMYPM/rYsWOxxKUTxYoVS7Dt3bsnVXCpTMeOHaNixYpGp+KGW16DwyUnf4dnzpylqVMmUY7s2SXdRo0ayLe4nRmXkiWdQ52XOHFi+2vneXLnpr179tIab2/5rq31R0F907/8soG/868of36/9oxv/ODBQ1S+fHnavHkzlSpVyuy77ty5Q7t27WYJUS1pB6HOfBheUIlLGEALr1fu3btPU6dOp7HjxptRWnMzPT/wJjxsIn7lQReNWul9BJIkTkyvX/vZAsyZM4/c3Nypb78B0kkh9N59+6hsOReeYR2gNau9qWKlyuTjc1UimjV7Drm1c5e2cPnSZerduy+1d/+W6tVvyLPcnbRmzVoqyCJgMCsgHx5UofYAYVaLe3QgBoFBmTptujwePnKUfvyxh8SPGdhszlutWnWpw7edyMtzEp3iAbl2nbrSFo33A1779utPDRo2ZgbooszCK1d2pbt370qwo0eP0089erF0oznt2b2XXrx4EfB1m3lOnNiP8Xv96jVZy/fjx0+oqmsNGjBwMF1iZq91Gzfq0uV7yT868v4DBtHqNd7yPH36TKmv5Dy7PX78BEsi+prlvMg4de/+E33ySfTtYsuXL0c7eUCCatSgunVq0+5dOyhmzJg8wJZkpvkdLVq8hDAIgr788ks6cvjAR8u0AIPgcEmQIAF/ywVo6bLl9OzZM7wiNG3qZBrQ/782ZLiH5Yr6SZAwYZD9UVDf9Atm3tH2f//9d6nbzl268YTqKE+cEtPkKdNoMde5Qaj/+QsWRhrTIun6KkUIAh4eXr6O2XK899eiRWtJj2fJvmwb4duqdVvfxUuWBuoW1szxrNGXZ5P+Xs/rVMDX23utP7fQPvAA6eveoWNoX7Or8BcuXPBN55DB98aNm1Iu1CXPaHzZBsC32w/dxQ31zDpqX2YW5ZnF5b5sA+A7f/5CEwtWWfh27vK9PLPI3Zc7CtNvydJlkgauBlWtWt3Xa+IkedyzZ6/44+HJkydyz7M4I6gvq618memRZ8SRPUduX+6E5BnhM2TI7Is0DZo0aYov2+kYj/6uzAT5fpM+k+/Nm7+JOxsT+taoWdvM+7JlK3yzZM3ue/XqVX/vRfVD6TLlfFEug1Bv7dq5++bLX8gX34e1fKM+atep74s6BaFMDt9k9AUGIHyrBQoW9r146ZJ821u3bhP3S5cuSx2wREaeJ0zw9HWtVlPuo+vPn3++9GWbFSlX4ybNfDdu3GS2Z6NMzBz7ZsiYxbeEcylf3P/xxx+Gl1xRB0ab9edh5w/B4cJqIukvMEbwJMX33Lnz/hDB9xvY9+gvID8gLNsSmc74zmfMmCX19uv27eIesD8K7pvGS6h79Gfos9Dm0W+Axo2b4Fu+fEW5xw9L2HynTJlmPkfGTfSdDhjsno1eA+odYQuBv+HDh0qOd+/eQ1zBNHmSF9WrWydQt7AW78TJk2IwijQMmjLZi2cDoRdDGu/r1T8CZctVoMxZspFjtpw0avRYql+vLvXt4ycFQchcuXLKzBT3Fy5cpOfPn7OI/S9avnyl/CXkmdc5VrEY5JAunXFLufldkHOJEqabo2NWicd0CMUNZnmGmikhz8TSpksb4rghIs7m6Ehp0qSWFOPEiUMurJaCKsGgRIkS2aRKZPToMVJHmTI7UvPmrSjJl0lo9qwZbBv0uWQ9YL5R1rJlSrMKJLb4Q82TI0cOkZbBAd8qVGKQWEFsXobDgjJmzEDZsjma0khIvFxdq4hfdP2B/dSc2TPZdmUZpUubVqR6xUuUIkiTDGrTupVIYBrUr89qs1VUsFBRmjt3nuH90V6DwwV9w/Zft7Dd0FCRlLpWq0Gwe3nNKuGwkKg8uS9Cf1S8REnaf+AAjR07mkqxVMwgy/4oJN80bJo2bdoiRsRDBg8i9Bug6tVdRQoHWx6ezNClS5eoatXKRjKRclUblwiE2VLvaJnMkaNHWfTvTZ9++ikPYCvIycmJnj57+p4bOkMwHhBDHzx0iFKz3UOlShXNwRBxQve4m3WZSZMmpdKlShIGlcOHj/BHsUOShEivYMGC9M03DtLIkiVLLuI/xFmjRnUJgx/oXCH6h+0DKDBbDPHkHxinerP+NKp1nUZ+ouK6eNECsUWJG/dT86MOLB9Q8UBtcJBtRCwpL9tAWCW2gQHBFiYiKDTx3mYVVAZui5YEJubp06fSPi3dbe3eza0tNWnSWHBMmvSrILOH5bz3798n2CtZEsr6hFVIBpVhmw9MPHC1JHxPS5csozp1aokNzbRpUyy9o+19njy5CX+9evUQ9WK79t/KoGsUCHZD7dq1lb+FCxdTr959xNYHjPbHTMHhgv6/atUq8gcGoKprdcIKoW7duoYatkyZMgmTiRdha4W4g6Lgvmn0D7CBy5Ilsxj4FiiQ34wuLTOxaA8wGYgXP56MXwgbmaQSl8hE+9+07t29R/e4g8T6fdgcPH78mKy5ITh06tA1Xr92nYYO/VmWuRlSlPXrfxGbCRheLWAdY8FCRei3326JkeiNmzclNcTPIj65HzhoiKyqwGzy+27d6fr16+KOn+EjRtKx48flOShbDOMFzMZsQtdpZCgKrjCmhXGtMRMJKgtff51GDBrRwXt5TjD/hg0dHNRrIfJDJxWLddqs/ghR+NAGwmwbMzRLwnJPDEyhYYAs34+s+/jx40sdBce0ID+wC4ABr2VZ8a0dOHCQpWqOkmUsYx09Zpww/YOHDPVno+DKg5DP1avE6ikxajQMryOrrOGZDuzhypQtT6tXrzGjjRs3LjNltaXfQFvr138gdfqui+mPGzBtaI8wDv9YKThcYMjqXLI0sVrNhAj9A4zAw4objKTR3vAXHNOCREPyTcMGBxMuSGpg82VJYNLXM+OyefOWKJEsKuNiWRvhfA8u2p0NLC3/YPxXpUplqly5kqzOGDCgH4Gbtea2g40yFy5cxCqm9axiGkYb+XqEDaRgIAuDTDAfP/88lGZMn0rz5s5m6//SNHPWLF6aW4XF4k2lNIg/L696sCSsWEGaaHggzJxhMFqjejVCh+Xu3pF69+rJy+o8WSK0hBtuLvL0mmgZhdwjvKWh7pYt22RZ8HsB1YEHeUdRJYwaNUYMctnmRfbImD5j5gejgwEFUjUYjULUDGPKVatWh5s0pF69Orw66qHMBjFgQQ2CPSeM1TUfXAAbiqBx40ayEgPfGIyMx0/wkFVb5f+VRMIIuWiRwjRm9EjCzNOyQ4fxbhH2g6EivsHoTFglhO9+3HgPYnsqwQCqgXlz51OmjBllRVnxYkUJk6cFCxaJFBcTsMmTp0ofYqg6gQH6KqyCs/yDdMteKThcnFjK+vz5CxoIA3BWs2BVIPZlQpvDNgcG/fXX3/4wA35hVSUZcRrX4L5pMOjYs6dP7140bOgQ2rBho+TPeL9K5crE9l+iDajMWoDIpliRneDHlB5me1hmakkh4YaN8FAPOTik46W1uw0nUU1ArZMwYQJp8Jbi6oHMpBjSFfOFQG7AdMydN586uLcnNjCkjJkyEsSNiNvSFgOvB7TFMKKErnPc+AmEDg0qqqjQdRp5sfUrZvOTJnrRD91/pPIVKhLUS1mzZOWlpePCJevt27vR0GE/Exvh8lLkL8UmBSsDwoMwQE+ePFH278BAnphXT2HfiSY8yNsbtWzRXAZhrLjC4Jo+fXqawmUHBpiBQg27besmKTb0/pUqVyV03MaSYXxXkEZVrBj5nXl418XIET/LCrLvu/3AmPwhy2NhIzd06CBJqmzZMrKkd8SIUdS//wCKw5IWLM+fxBMe2AEZBPUH/ixp/TpvkdhZutnLfUhwWbd2NfXk/XDYyJ378Xe8ZDkrubVtQx06tDdhgC1Rnrz/La+Hh3v7dvTDD36r3MyAYbgJ7psGg547dy6ZUCP6b7915/z2lv16IGHGVg9YHo+JrmE7F4ZshPmVGCwK/c96M8zR6IsBERgzdhxt376D1nqvDuglz2AaYMS2dYtfJwjHgG68eodOnTotojrLSNB5fMaz7F68ZPbkiaOWXuY9OPhGvAHRVZ9Lpjg/d558zD0P5k7VRZiT/AUKizRn8JBhlJ/3n2jbtrXMoL7jnTCxT4clwbgT7+Jjg4QG6g4QNpsq6ewsus6NGzfTsqWLLF/TeysIYK8Wtl6JkM3jINFDpxJRhFk1GBd7JzAtkLiERA1oicWMmbNoHxstz+DNAe2JgmtXaNOQ0mACo/QfAsHhgnYGKSb616iisH7TtWrXpUYNG0SJ5FUlLlHVWkKQLowCz549azIJlq+cOnVK9OuQckBSAoJdyy22cSlatIhlUKv3X3zxhayI4CWhsjpk0MABEs7SFsPYHMlqBP86QtfJy+XEICy6r6IIqpzh6WesaAnPOI24IpJpQRofA9OCckJCFhqmBUwODN69WKUKyZq9UXDtKiLbdHTGMjhc0M6ikmkBtqH9prFfFNTSUB9jEhwVpDYuEYg6uGlLvS7uoYYJKdWqVZPu3L4jYla8B8646/c/iEFvdt5xEeJYDxbBQh95//4D6tSpi0h5EH9yXj0Euvnbb3K19gOxNjYpwy6LsIAHhdYWI6p1ndbKpW6KQGQjAHsxbDjXzs1NNheL7PQ1PUUgshCA1B3LpMeMGUWfffZZZCXrLx2VuPiDI3wfsKInoI4SKzGg3w0JwQjOy8uD+vHuqx6eXiKGhUFkJrZHwdLaSXwmRZeu3XjdfinZdwLcr6H/xPJnqJTKlCnP7/exao8A//i8nK16jWpmdkJrixHVuk4z43qjCEQhAtjfxdiPKQqzoUkrAhGOAPZBimpSG5eoroEQpo+lc9gsy9oW4pDGwOjXmn4ZuukECb7wt/dLCJOUc3NCYosRlbrOkJZFwykCioAioAjYBwIqcYkm9RiU5TbsVQKj4HTTgb0H9+D0s7ag6wwq/+qnCCgCioAiYH8IKONif3UaaSWCrhMSnajUdUZaYTUhRUARUAQUAZtAQFVFNlENmglFQBFQBBQBRUARCAkCuqooJChpGEVAEVAEFAFFQBGwCQSUcbGJatBMRFcEsHMklr1HNq3xXks48yS8CCvgwuP4gfDKj8ajCCgCikBgCCjjEhgy6q4IBIEAtnXvzDsMO+UrSDlz5aWmzVrIidrGK9hb59at28ZjuF/XrPYOV8bl3LlzvNvrrHDPp0aoCCgCikB4I6CMS3gjamfx/fMP0dEzr2nk9Md09+Ffdla6sBXnyhUfata8JZ8knFrO7li5Yil9mSSJHH/w8uUriRSHUg4dOixsCehbioAioAgoAoEioKuKAoVGPYDAQK/fKUnCmHTO5y0fqKWYAIEjR47whn+xWOLSSc5nwa7DvXv3pAoulenYsWO8i/F9OXgSZ5AsXryEateuJeGwfBzqnbd8MjROG06e3G93Y6ialvEBfi4uLnxA3366dfs2uVSoQDjywaA3b97QunXr6QFvs13MypEOOGF227Zf+Rj6m3LQXc6cOcwzqnbu3CXnFz18+EikQk2bNpFoITU6dvw4OaRLR//okWUG1HpVBBQBG0dAJS42XkFG9mBLERl08+ZvNJ6PsjeoT4cvqVPTRBT/8xiGk9VrZOXPauKR7FiyZEk50XURMyX/QCTF9OWXX9KRwweoWLGidPHSZXr8x2N6/uy5HM+AMIcOHabKVVxpDx/Ad/r0aSpTtoIcFY93wXT06NmbGjdpSstXrKQDBw5S6TLlaM+evfAWGxocmNm7Tz+6dPES/fhTTzp+4rj44QcMEjYBnDR5Kt1/cJ86fdeZ/7qY/nPmzCM3N3fqyzsw4/Rv0DQ+6qFhoya0f98BWrFyFQ0fPtIMrzeKgCKgCNg0AjgdWsn2EcjrVMDX23tthGeUB0vfdA4Z3kvn24H3fW/eefeeu+EQWfkz0ovqK5/x5JshYxbfEs6lfHHPOxv7y1Kv3n1827fvYLrNnj3Hd9r0GeYznx7uW7tOfXnmE2QFczaONf3btXP37d27rzyvWrXaN32GzL4ssZHn169f+5Yr7+I7aNAQeT558qQvn2HlC3fQxYsXJfzdu3fluUWL1r61a9fzZeZSnnnvHd+sjjl8Z82aI8/4+Xn4CN9ChYqaz3qjCCgCioCtIqCqIptmK//L3JTJXnKo4n8utnVn6/kLb7TatG5FVatUodWr19CKFato5MjR1LtXDzLUMAHTa9asKb1jFREkLydOnCQfn6v8d8VfsLx58pjPOOwSKh7Q0aPH5PDLFClSyDOOd0id6j81Us6cOWn0qBESJ6Q1OB4C6qdr166b6qhcuXKaxz5cuHCBXr16JaeDS4T8kyF9ej7dIWipmhFWr4qAIqAIRCUCyrhEEPrW7AqYe6Xjx0/QwUOHeOBJRZUqVTQHE2QDapotW7fKmUOV+MBExFG8eDH66quvxC8Zn/hsbO8P9cBeVjtc8fGh7NmyUYkSxc2S4D2oLnz53769+yl37lxUoEB+0+YBAQOztzAjCeUN8m7kLyTphzJ6mwwO25Z27drK38KFi4mlLJQvXz5mMrK+l1/Yp/Tt15+cnZ3JMWsWih8v3nthAjqg/kDPnj1jO5S0Ab3N53v37lP9+g0pZaqUnL6TtBfT08rN06dPpY2l4vBKioAioAhENwTUxiWCasyaXUH/AYOodRs3us4z4aFDf6YmTZsTmBkQVqpUqVqNWHwvM/JGjZtR9x97sLHlDfEfOGgI2yeckXtss1/VtQYNGDhYbB4QZ5cu34sffpB21++7UY8evejS5cvU3r0DD6p9Tf+g7C3MQKG8scxfcOmHMmqbC96v/0B/NiTIYJ06teSgy9P/1lHATHt4TqSGDRrQWD4Kvk2b1mILEzBMYM9YvQQj2sAIhr0xY8WkeXNnU9cunalRwwaBBRV3xAe7GqM9BRlYPRUBRUARsDEEVOISgRWCAWLx4gUiVdmxYyctXLiIJSC7ZEaMWW/+AoXp11+3i8h+7bp1lJVn4gvmz5UVKDCirOpa3WruBg4aLBKVhQvm8uqW2PTddx3F2LNy5UpUtmwZeQcnSS9aOF/SXrt2nTA5gwcNkNOlz58/Tx06uFPrVi0lbMqUKWkmM0wVWcoTXhRU+uGVRlTFU5wNcN3auVPBAgV4JVB5wXT+/IW86uovys0qGVCypMno7NlzorKJGTMmfeOQjs6ziubJk6e8MugBeU2cTK9fvzEZV3kpkJ9q1aqy4e0UmszGt02bNmbDXEjtDtI33zjIGw4O6QgrhqAaSpIkMY2f4CnuUAdZI0iEMmXKJEbY/fr1FYZr3vwFxJmxFlzdFAFFQBGwKQRU4hKB1WFpVwD1kINDOlb/7Kbly1fSli3bKBWri4xVHtu37xR1T6xYfrxkxowZAs3ZwYOHqGyZ0sK0IJCDgwPlyJGD9u7bZ76Tk58xYIJgL/H777/TgwcP5Rn2Fs14SSwkL1OnTrdqbyEBLX48+iSlNClCzucGlb5FtNHyFszh1CmTaO7cecQGrVSseEk6eeoUTZroadohgQkE3lmyZBPswVw+e/qMN6wrIGqdwoULip0JG9AGiwGYjCGDB5KHp6dsdjd8+CjKnj27+R7SKsPtoVr1GlSQ8+PLq5gSJ05MPlevmmEsb2KwLYuHxzi6dv0GlSpdllwqVqJMGTNaBtF7RUARUARsFoGQj0Q2W4TokTHsr4HNybbv2GFmGDNf2CWALl26RO3ZXiI4gtEl9gnJkIGNKS0Ie348YRVSSCgs9hYhifdjCgNGAX+8IkgkZHHixPFXfNTP7l3bCZI1MBGwOVq2bLE8J0iQQOyN+vbpbb5z7epl8x43HTt2kD/DsUGD+lS3bh16/vwFJUqU0HCWKxhUqKB4VZHEC+PdgQP7m2Fmzpxm3hs3YFR+3bZZDHmRPzAzSoqAIqAIRAcElHGJpFoCY3H27Fny8pxgNUWoa44dOx6sugaDVOrUqQhSFwycINjJYDWJm1sbq3EHdDTsLbp16ypeYGQ2b9kSMJg+hwCBzz//PNBQn3zyiTAtlgESJvTPdFj6BXePug/ItFi+EzduXMvHEN0n4R1/lRQBRUARiE4IqKookmqrVq2adOf2HfJkI83nz5/T48eP2YD2B9mgDFmoXs1VdkaFRAa2CR4eXoHmrHHjRrTG21vsY168eME2DR5ibIndWENClvYWMN4Njb1FSOLXMIqAIqAIKAKKQEQhoIxLRCEbIF6I5r28PGjBgoWUL38hKuFcWpY2Z8rkZ1vQtm1ryuuUl1q3dqNcuZ3oHquDAqOWLZpTjRrVqcO3nfidArRp0xaaMnkipU0b+JJZy7g+xN7CMh69VwQUAUVAEVAEIhuBGNgZL7IT/djTwwZhWHUDVYJBqAZsDQ9pCwx0T548RfUbNGI7iR2iGjLCWV5h7wKJS1jVD7C/MOwtLOPVe0VAEVAEFAFFwFYRUMbFRmoGK43WrV9PHdzb03NmRjw9vYSBWbJ4oRpO2kgdaTYUAUVAEVAEoh4BZVyivg4kB5CeTJ4yVU74hSSkYMGC9AMbz2LFh5IioAgoAoqAIqAI+CGgjIu2BEVAEVAEFAFFQBGINgj8Z2QRbbKsGVUEFAFFQBFQBBSBjxUBZVw+1prXcisCioAioAgoAtEQAWVcomGlaZYVAUVAEVAEFIGPFQFlXD7WmtdyKwKKgCKgCCgC0RABZVyiYaVplhUBRUARUAQUgY8VAT2rKBJq/s2bN4SD7yKT/vrrL/L0mkj169Wl5MmTh0vSa7zXUmLeOK9EieKhjs/YYM84sTrUEUTiC1d8bkRiapqUIqAIKAKKQEgRyJA+LSnjElK0QhkOu+DOmzefNmzcREeOHKWvvvqKKleqSD16/EjG4I0TocFUYPfa8KZ3797R+PEeVKJ48fBjXFZ70zffOLzHuODMpU2bNgVahOPHjtCgQUPo0aNHNGlS4GcwBRpBJHvgw1BSBBQBRUARsE0ElHGJoHqZMnWa7H7rMWE8TZ0yiY4fP0EDBw2WLfp//nmopIot/QcNHECVK1eKoFxETrS9e/Wgrl06S2Lz5s+nzZu30ry5s83EY8eOTW3btiFInpQUAUVAEVBlJOFGAAAeDElEQVQEFIEPQUAZlw9BL4h39+7dR+XLlaPSpUtJKGfnEuT2oC2f+uxJt/mU6N27d8tAvnfffooXLx6VLOks4Y4eO0ZHjxyjr9N+Tc6skvnss8/E/dq1a3ThwkUqUCA/bdy4meLG/ZQqVqxIn3/u549Av/12izZv2UJgFEqX8ktXXv73586dO7Rr1256y9IYnCRtqJCwa++yZcupWLFihNOpM6RPT4ULF5L8rVu3nh48fEjFihaxjMrffZIkSYj/C+EMptixY713vtL9+/fozdu3lCFDegkH1RGYuYOHDlHqVKmoEkujIIkKLC/+EtQHRUARUAQUgY8WATXOjaCqL1++HO1kJuHS5ctmCnXr1JZDE1+/fk3nz1/gQfofunXrFt387TcJM2rUGGrf/ltmbG6zxGI+FSpcTCQ08Dx69Dj17NWbmjZrQcdPnKBp02dS8RIlZaCHP+KrUrUazZ49Rw5obN6iJZxNOnToMFWu4kp7mKE6ffo0lSlbgTZs2Cj+b5mh6NGzN9Wr35AZmBV0i9MHA9GoUVPq3acfXbp4iX78qSene9yML7Q3K1etoYULF5uv9R8wiFq3caPr167T0KE/U5OmzQnMjLW8mC/pjSKgCCgCisBHj4BKXCKoCdSuVUvOHapQoRJLMopS40YNqWzZMiJVSJ/+GxowoB+tXbeO6tWtI6oiMAp3791jGxBPcsqbV3JVrrwLrVixkpo1ayrPr1+/IU+P8eTg4EAvX76ivE75CQwJpCOjx4ylbNkcae6cWXI445kzZ6mqa3WzdOfPn6cOHdypdSs/hiZlypQ0c9Ycltq4mGGaN29KbVq3kufVq9fQiZMnmdHaTilSpBDpi2V85kthuNmxYyczMYto395dYvuDs5nyFyhMv/66nYoUKSwxWuYlDEnoK4qAIqAIKAJ2ioAyLhFUsVDhzJk9U9QhK1euEonGgIGDadbMaZQ5c+b3UoWaZPSoEfT48WORhPhcvSqnQl+54mOGhRoGTAsI8adNm1YkLWBcjh07Tm5sRxIrll+VgjmyJDA/MNgFo3PixEny8bnKf1csg1A+Jyfz+ejRY+To6ChMCxyxKip1qtSm/4fcQD3k4JCOdu7cbUaTitVFYLYMxsUyL2YgvVEEFAFFQBH46BFQVVEEN4E8eXLzipoBIl3ImjULtWNVUGDUpWs3qlGzDtt9HKYEX3xBceLEIV/+FxjFiBHD9Hr+7JkwA6ZDgBvYqhQsVIQWLV7CDBFRfLarCYqeIb50EbO65saNmyIxgj2N8efomJVSpkoZVJbUTxFQBBQBRUAR0OXQEdEGsIdKBZdK1PHbDlS9ejVJIm7cuFSHbVzat+9Af/75pxjkWqYNCQjUM+vXebOkI6t47d9/gGLwv5AQJBYw7IVtjTXy8JxIDRs0oG7duoo3GBkY8gZGqVOnJu+1awPz/iD3NGlS09mzZ8nLc8J78bx69eo9N3VQBBQBRUARUAQMBFTiYiARjleoa3LlykXjeB+VPXv2isEpVD4wuM2UMaPJtCRNmsw0zE2a9CtxP3L0qEgjfvllA0sjdtLLEA7kNWpUJ2/vdax+2UUY/L28Jvkr0TcO6ej8hQv05MlTMRj2mjiZYDMDg1hrVK1aVVn9NHnyVM7PS9q7bx9Lgg5aCxpqt1q1atIdXlnlyczU8+fPRT2GvWBgYKykCCgCioAioAgEhYAyLkGh8wF+I0f8TBUqlKPvu/1AjtlyyqoZLHGeOvU/hqJRowa8PNpLVu98waqhXj1/Yv/plD1HLl41NIOKsqGqj89/Ni5BZcfNrQ05OeWllq3aUO48+QgGr1gWbdB333WkZ0+fkVO+AlSfVw8VLlxQGJy7d+8aQfxdM2XKREMGDyQPT0/KmSsvDR8+irJnz+4vTFgfwLx5ef2/veuAr+lu/08VL+pFKDGC0NrEaLxKqdVWbBEriD1ja2vXHlUiEXuLPYvaI/YsNVptUXsnXqv8y2v+n++T3tub62a4uck94Xk+n3vvOb9zfuN8f/ec8/yeOYEWLlxEniU/pk/LVyJcf968eextUuspAoqAIqAIvCUIvMMrbttL7rcEgIS4zLt375GLSzqbXUGaAVsVU7wWTAfsS9KmTWvz/JgKHz58KAxLVCkGwNAgUq+lfUx0bcLb6cGDh5QunX3jia5tHLtz5w63nY6SJFEeOias9LgioAgoAooAkTIu+i9QBBIpArClMnmRJdJL0GErAoqAgRC4fPkKrVq1miChNzIp42Lk2dGxGRIBBBX09vYxjy1p0mQSKbh+vXrk59fEnIvKfEI8bOw/cIBat27HUZZ/jBQ9OR66SrRNIiAjIk5H0DsSMwihA77s2Z3ef//9RHtdCTVw2KAhiObyZYsjdYkca95169GmjRvYLu136tHzy0jHLXdGjRrJ+dn6c5FtwX6FChXESP9Nmivr54MlHvv27olReh2fOewsx2JrGxHfm/o1pwvn/wmcaus8Z5dpHBdnz4D2n+gQeMkJNBEAcOmSRYRAfoiEHBq6XYIAwti4S5dO8X5NJYoXp9mzZijTEg3SMFJv1syPmjRuLGcd54jTyCHWomVrWrP6+wRhMKMZnuEPPXn6hP/br3r5IYEs/v8vXr6gcuXK0uZNG+VaEPEb+deQp8zd3V3KkA6kxKbi5mttzTZ4n5QtQ61atpSylClTyO+bNFfWzwfzxfNGmjT/tty1uf2m5LCzeXEOKlTGxUFAajNvHwKZM2c252RCDiZEPl6+YoUwLvDugl3TrVv/lRQOeIGC8HAP5QjBsDFCLitX10xSjvMhBYDN0+EjRwju7VW9qsgLIjQ0lB4xc1SNoxzjRQCCd9ilS5ckajLSJCDIYZUqVcy2VL+cPEm3wm9JrizJc8VpG4p6FKGtW7dJ/c85VxUiIu/ctYv+OHNWXkCIMxQV4WV14sTPEsAwY8b3ua8vzN5xaP/XX3+TwIrbeKz16/kYRqKRNk1a8xy5uWXj/FyuVL+BL/3GkgLEMrI1boQrwMrzLBvGFy5UyJwNHaky/vjjLNWt6y0wQVWHyNbFSxSnyxybCHZgnp6eZgiXr1jJQR1LmINGmg+8QRuwzQOuoOcvnsuvq6uruQwFqVJFHMd2suTJyHJOUGYiy3LruSpiwzEgqnlCe1Hdf6a+EuLX8vlg2R88RjNmzEglS0b8V3D/HDr0I9/LpekAS1KRjNY6hx2eC7v37JUUKchXV4L/cyBb9x7+0xkyZJAYYPv3HaBixYpKjjtLu8aocuJZjtPI28q4GHl2dGyJCoH0Li7iYo5Bh4TMFzF6Eo6IDO8wEFzK27RpTxU5oWY4MxWBgUEshl9KiHI8h3NMwWU+R47s5JopE6d+mMbu7Ws5l9U1ypPnQwoLC6chg4fStm2bJWIyvM2QX6pRo4biHYbtIkWKmBkXMCiIkowkn4eP/ETDh4/kejmoEEdDRoBDuLnjhRvO7WbOkpnGBwdTt65dOYt3Gxmr9dfAQYNpxYrvJUXEnLlzKTh4Ii1evECYH+TRGjxkKP07dWrKnTu3MFxGVcW4uEQwfo8fPabTp868Mu53301KPvUayMujpOdHFBQUTNU5AWhgYIC8bJo0bU6Y0zq1a9FMzhc2NySEtmzeyBKcH3huQmnz5g0C3enTp6lXrz60c0cEo2iNp+7HjIDlXFmfDYeHqOYJ59q6/6zbcNb+Q2aMcb9uD93C96sLde/xlSSfLVmypISEsM5hB4cKXCscLpAAN2h8MPVjD9Rmfk0lh531vYdrv3rtqgQwRZT2adOnk5eXF40cMUwuGTnxlnFSXSyMwOD17t2X9u3dRan5/k0spIxLYpkpHadhEUAqBQQLXLJ0GZUvX848TgTxW7JkoagksDr39+9CA/r3Y/d3XzmnZas2NHHSZAocN1b2IfGYMX2qbOPBggfK6NGjCMk5QbVqedN6Xq35d+wg+6/zBW81pKCAxAYPQk/PUiLdWbFiqTQDRgYBB20xLnghL168lF/CoYTggZDwQJz93ZgA89jhfbZo0XxDSxfATIARAVOFvF6I4Gw9bkSvxmp10cJ54p0HI0UkJK1evZrkGuvfvy+NGvWtBIlEqIDg8UHipYdAk5OnTBXmE9K3LVu2kYeHhzCZrzNPRjsXxpr+/pGjff/J6tD4Juu5su5v6LDh0c4Tzre8/6zrJ8Q+mP1ULJEyEeJXVa5cSe7n9es30Lejv6NiRYvRzZs3OMfcbPEktc5hh7ojRozixYwrh4+YJ01Bkjds2AjJc4cC6/8wyuCpuXjRAnn2rF27jpBuZjhHcMdzIKaceKhvdFLGxegzpOMzLAKffV5FVD5QoxQoUIAaNWxALVs2N4+3aFEPsx3FqVOnJdje8+fPRHKBk9KyW/pvLNY1Ua6/7QKwX4zrgsp/+qn84gsRldGOPQQXeJOaCa72OTmdg3XbYwPG2WwaYmxIasC0gJCKwovVUjNnzTafb5lHy1xogI0AvqbAoPHywM7ATFulyhVp7pxZrL5IJaOzHjeutTmr9UwxkJAbDJIsSMuQJBVJUfHS8fFpwFGqv5AXERqCVAzMENQAXbt2FpVc7Tq1DIBA3IaAVTjsWCwJLz6o0hxNMc2VZX8xzRPOtbz/LOsm1DZUQZDCmsikUsP+t6NGcHT16pyXbjMFsTQvuvAXyO0GaQwknqCHDx7Ks+TKlauyb/0fRqEH/2eR/w6EnHO3b98WKS9UpTHlxJNKBv9SxsXgE6TDMy4CSxYvFFuUFCn+Fe2DB1cAexTEqoGaxpJKsA2ETWIbGJClXtrmeXYWvk67165fpw/5xWxJYGIguTF6GKj27duxp1dTwRHRqaMjrFzDwsJEbG95Hq71HqsmTFSZ1W972N4Av5aE6NXLli7n1B4+YkMzY8Y0y8OJcjt9ehfy9W0UaeynOAI3Amc6mmI7V7GdJ0eP73Xbq1mjhqh+bdWDfVn+/PlENQSblagI1wp1MaKsW6ZDqcbqS3sJUsVjx45TBVZZI6J6TDnx7O0nPusp4xKf6GrbbzQCUDmYjGtjulDYruAh1KFDO7JlaBhT/eiOQ/edlFdXMFaMD3LnLORr2N7GkqAagwTodRggy/oJtQ2JQWznCCtUrIqxmodIHwTG7ODBQ4TI1KCbLG0IGBfE7vB1aPiIkWK4C2kWqFbNGqxGGi32SVhtx7ZfqaxfYmMRG8xiM09GhxOqYCxmIBWCGgdSEFuEa82aNQtHRS9OfXr3euWU48dPvFIWXUFcc+JF13ZCHtNwpQmJtvb11iIAcS1UCTCMw8MDdjEhIfMiqVvsBQcJPEuVKkWr1/wgrtmII4EgUo6ShjRsWJ+9o25JbikwRzD83bhps9m7xt5xG7Fe06ZNmEn7gbaz5xeiUI8PniA2PV+wFxaoD8ckgbH1uIAxYr+Cl46J4ClSho8tWLhImBhTuf46HoGY5snxPb5+i4iADu8/yw/UymB+YSz/zYD+NGrkCFYXbZL/m6kHyxx2KGvYoAF7r62Sc1AfzEqnzl1lIWSqE9vfuObEi20/8X2eSlziG2FtXxFgBLBymjJ5En3dqzd9UaUqQb1UIH8BFrkHOQSfjh3b00g2Gi1cpBgbn2YQmxR4LziCcrLEZerUydS//zfyIocnRNMmjcmPX/JvGrVq2ULsAUwvhg/Yi2MaXzswwCr58OEjFMqeXaARw4dRteo1xesI3lsgbzbShTSqalX7RfnSkH5Fi0B08xRtxQQ8WLNWnVd627F9K3uyDRMX5Ro1qsvxzp39qV//ARwPZ4OonGG8D8nd3j37xCAXUlqoZf07dREJJ+6/QQMHmG1YXukkmgJTTjwk2R3MXoqQ+LxOTrxomk7QQxo5N0Hh1s4UARJvHrZeiZfgcdHlxXIE9nfv3hUXTke0ZeQ2oNaDxCU6o0lb4581ew7tZ8PVWRwcUCn+EbB3nuJ/ZHHrwTqHHVrDtUKKA8YlrgRpbFxy4sW1/7jWV8YlrghqfUVAEXjrEQCTA4PHbt17iGStVKn/vPWYKACKQHwhoKqi+EJW21UEFIG3BgHE1wkKHE8d2rdneyNlWt6aidcLdQoCKnFxCuzaqSKgCCgCioAioAjYg4B6FdmDmtZRBBQBRUARUAQUAacgoIyLU2DXThUBRUARUAQUAUXAHgSUcbEHNa2jCCgCioAioAgoAk5BQBkXp8CunSoCioAioAgoAoqAPQgo42IPalpHEVAEFAFFQBFIZAg8fvw4xhH/73//c1jU7Rg7s/MEZVzsBE6rKQJA4NmzZ3aF3o4resgdtHv3nrg2Y67/+++nHJJ+wNygbigC8YgAXq5Kr4fA0aPH6Kuve79SyRpLRIfux1GykV7AqKTu0EadGR2XoRFAWPelS5fRjp27hHn5iLM8jxo5XLJFY+DIR/Ls2XNJ2hcfF9KqVVvKnTsXDRjQzyHNr1z5PY0NCKQD+x3HDDlkYNqI0xCYOHEy7WLmePmyxZHGcObMGfKuW482bdzA2Y1/px49v4x03HJn1KiR1JfzO3G6Ssti83aFChVo0sRgqlGzNl24cOHv8ncIeZ9Kl/6YvuzZnVNYvC/luKfmzA2hLVu20ZUrVyhPnjzUtWtnqupVxdyeETaQK8zb24dD+G985f7HddauXYvatmlNhQoX5eFGjQuSp27eHJFewtZ1HTt6hKZPn0lTpk41H37vvdSUL19e6sa4eHp6msvPn79AzZq3pKVLIjLax4Rl9+49BXdHPV/MA3HQhgagcxCQ2szbg8DZs+eoeYtW1K5tG8kvcv/+Pc7lM53q+tSnHdtDJZT/xEmT6c7tOzR58sS3Bxi90jcKgSdPn3DSzkevXBNW4n/99YhevHxB5cqVlRc0Trp27Ro18m1C8+fNJXd3d6mXPn16KrGpuGzjq3XrtvRJ2TLUqmVLKUuZMoX8Pnr0iJo186MmjRvL/vHjx2na9BnUomVrWrP6e8nL07ZdB763UlFwcCBlyZyZX+pbqUuXbjRzxjSqUKG81DPC10sTPjYkFsANUloQchOZyBYuyLzes0d3OWX+ggXCsAFbEyVLlowwR25u2WnWzOlSfDPsJi1ZsowaN2kmuBUokF/KJ02eQs2b+5kXVjFhOWTIICpbrgK1YQYrc2ZXU5eG+VXGxTBToQNJLAgcOXKEkiVLSt27d6WkSZPKjY2VSRWv6nT06FEKCwsjMDfIpLxkyVKqV89Hzrt+/bqod55wZmhkG87MD18QcpAs5wR+Xl5enKDvAF3lF4BXlSqUPbubGRKIc9etW0/hnKW57CdlzOWmjSdPnlBo6Ha6dOmyrFQ9PIpIQjYc37VrN+c3SccZnv8rLxe8IECQGh09doxy8UvmBecuUVIEXheBlClTmqUKz188l+qurq7mMhSkSpXN3Gyy5MkobZq0kY6bDlqWu7llk/uqfgNf+o2lOjlz5KCTJ3+l6dOmUJHChaUKkhHu3LVLpJ5GYlxM1xPTL67RRFHhwnyfULp06eSZY1nHVDc5Y2oqx2/xYsVo3959kuUcjMvVq9foB84c3+vr3VIFOYpiwhI5uoDpzJmzHCbVNY3XEb9q4+IIFLWNtwoBiLefPHlKi5kpMemBM2TIQEcOH6SyZT+h02f+oLt37tKDPx+wKP2UnPPjj4epeo1atJcT8P3yyy9U+bMqks4ewIHp6NtvADX1a0YrWGVz8OAhqlT5c9rLDx8QGJsmvIIa8M0gOnP6DPXu04+OHT8mx/AFBsmnXgMWGU+nsPAw6tqtO396mI+HhMyn9u39aeCgIfLAwoEZM2byqsyPVUMHaeX3q2j06DHm83VDETACAi4uEW/tx48eU5o0aSSVAjJ048VrohnTp9KQwQNNu/rLCCATfRpmPB4/jrAD2rFzJ7kwB+TqmknwiS2Wn/PiasvWrYbEVCUuhpwWHZSREYDotFevr2jo0OGyImnatAnV86lrztrar29vFqX/n6iKIHIFwRagUyd/atO6lexnzZqVZs8JoapVvWQfX97edah1qwgReseOnVgUvkUYobVr19HxEydoz+4dlCVLFoL0pWatOuZ6586do7x589LIEcMIenHfRg2pWvVaYmdjkuq4ubmx9GehPNTu3btPgUHBNGjgN9SiRTNpZ/R3Y2j1qjXmNnVDEQACly9fIX//zpHA+PPBg0j78bFz+vRpCuL/KOxbChUqKF307dObOvJYSpcpS3W9valxY18yqULiYwxxbXPgoMGUiiVSlgRpbHzSnTt3aPXqHwh2SH36fC1dXWYpbJHChSJ1Gxss3bJlo+vXb8jCCcyQkUgZFyPNho4l0SAA47qaNWrwQ2INrVy5isaMCaAB/fuKnt7WRTRv3oyePn1KkLwcP36Czp07z5+zkU4tUfwfW4CCBQuKigcn/PTTUcI+mBYQmBO3bP+okTw8PChg7HfSJqQ1eHhBSnPhwkWzOqpoUQ9hWlD/1KlTBJuCypUrYVfoww8+INYtmXb1VxEQBFKnTi12LJZw3GAj2X0sOXQ0BQSMY4Z6vLjiZmAJQaXKFWnunFli14K+8B/esX0r23pslfuuVm1vUWdMCA6iFCkibGUcPaa4tFeypCeld3GJ1MThIz9F2nfEzq+//kb58kcwJkmTvktlypShwMAAqsiSYdDFS5coLxvsWlJssMyaNYs8R6C6hqrOSKSMi5FmQ8eSqBCA5KVDh3byWbRoCfUf8I1Y8hcsWOCV64B9ClZg5cuXp4Ksd0793nuvnGNd8PJvjwOIxnO557Q+bN6/eTOMGjVqTFmzZeX+PxKPDPNBGxv379+n5MmTs6FeVhtHtUgR+AeB9OldyNe30T8FvAXGd8KESZHKHLHTvn078vNrKrZZmTJltNkkmPaaNWvIB9IgSB7h/fTVVz1tnu/MQixscuTIHmkIM2bOjrTviB1IW0PmRrSbLl1aWdhYtpskSRJ69jTCINiyPCYssfgRMqD9WxLLC9FtRUARiBmBQYOHRrIhQY369X3kgfHLyZM2G5jAD9fGvr4UOG4stWVvJNjCxJag5oERbVQEw953eaUFjwN4ITRhEXp0hPZgV3MyirFGV1ePKQLxhQCkO7DDsMW0IGZR+QqVRJpo6h9MwaeflqOo7jnTeW/6LxwFgBs+YEasKUf27BQeHm4uji2WsNWDiigbq4yMRsq4GG1GdDyGR6AcMx3r12+ghQsX0+3bt+nu3bviDg03x2Iszga5ZnIliNRNq5bcudzpd16pwr4EcR4mTZ4qxnMvY7GaqV27JnsDXZc+/vrrL9q3fz8d+vGQ9IOvXLncxWMIqiGoiYaw7Q0I6iBbBIkQVmnjx08QG4awsHCav2Ahh5RQzyJbeGmZ8xFAnKQHDx6KXRnsN8B472cPvO3bd5ClitX5IzXeCHLkzCGeiqaRxRZLOAJAXQTPSaORMi5GmxEdj+ER+OyzyuKWOW/efPr4408k3sGJn3+mKRyzJV++fDJ+GN2Gh9+i/Kx7BnPTrVsX+vP+n/SR539ErVO6dClhLG7cuBHj9YLJGDF8KE2YOJE8ipZgD6CxVPhvl1BURl+wV6ldx5tK8XgQR8KFdevnzp+32TbiQ0yYEEQXLl6iipU+I6+q1SgvB/NSUgSMisB7rFpdt3Y13WM1J4LfIXjbt9+Oofbt2lLnzv5GHbYhxlW5UkXxJsTzCBRbLE8zg4iwDEYkjZxrxFnRMSUaBCABwYoENiPWBFdp2JOAiTAR9uGOCObhdQnSG6w6oce2RchDgnZtiYttnY8ySGgwPnvGE1WbWq4IxCcCuA8QAgD3kVLsEECofyxO2rVrE6lCVFjCrg4hG9atXWN2o45U0ck7yrg4eQK0e0VAEVAEFAFFID4RuHjxIjVkA/55IXPMUuHo+oMdX4oU/yK4TRuRVFVkxFnRMSkCioAioAgoAg5CwN3dXVIjTJw0JcYWYUMHdXOf3r1iPNdZJ6jExVnIa7+KgCKgCCgCikACIgCjZltqbcshxOYcy/Odsa2MizNQ1z4VAUVAEVAEFAFFwC4EVFVkF2xaSRFQBBQBRUARUAScgYAyLs5AXftUBBQBRUARUAQUAbsQUMbFLti0kiKgCCgCioAioAg4AwFlXJyBuvapCCgCioAioAgoAnYhoIyLXbBpJUVAEVAEFAFFQBFwBgLKuDgDde1TEVAEFAFFQBFQBOxCQBkXu2DTSoqAIqAIKAKKgCLgDASUcXEG6tqnIqAIKAKKgCKgCNiFQNKz5y7ZVVErKQKKgCKgCCgCioAikJAIfPhBTtLIuQmJuPalCCgCioAioAgoAnFCQFVFcYJPKysCioAioAgoAopAQiLw/9pR9Kv91WizAAAAAElFTkSuQmCC;sketch=0;imageBorder=#000000;labelBorderColor=none;" vertex="1" parent="1">
            <mxGeometry x="-323.18" y="-625" width="400.48" height="300" as="geometry" />
          </mxCell>
        </UserObject>
      </root>
    </mxGraphModel>
  </diagram>
</mxfile>
